M48
;DRILL file {KiCad (5.0.2)-1} date 6/10/2020 7:39:03 PM
;FORMAT={-:-/ absolute / inch / decimal}
FMAT,2
INCH,TZ
T1C0.0157
T2C0.0394
%
G90
G05
T1
X4.19Y-4.96
X4.25Y-4.85
X4.32Y-4.86
X4.33Y-4.95
X4.54Y-3.76
X4.6Y-3.65
X4.67Y-3.66
X4.68Y-3.75
X4.82Y-3.72
X4.82Y-4.84
X4.84Y-2.71
X4.9Y-2.6
X4.98Y-2.7
X5.1Y-2.67
X5.1Y-3.64
X5.37Y-4.9
X5.6Y-2.61
X6.1Y-2.66
X6.1Y-3.64
X6.18Y-2.7
X6.28Y-2.59
X6.34Y-2.7
X6.38Y-3.72
X6.38Y-4.84
X6.38Y-4.9
X6.5048Y-3.75
X6.53Y-3.66
X6.6048Y-3.64
X6.6648Y-3.75
X6.8548Y-4.95
X6.88Y-4.86
X6.9548Y-4.84
X7.0148Y-4.95
T2
X5.75Y-4.9
X5.85Y-4.9
X5.95Y-4.9
X5.45Y-3.5
X5.45Y-3.6
X5.45Y-3.7
T0
M30
