G04 #@! TF.GenerationSoftware,KiCad,Pcbnew,(5.0.2)-1*
G04 #@! TF.CreationDate,2020-06-10T19:39:01-05:00*
G04 #@! TF.ProjectId,Top_Hardware,546f705f-4861-4726-9477-6172652e6b69,rev?*
G04 #@! TF.SameCoordinates,Original*
G04 #@! TF.FileFunction,Profile,NP*
%FSLAX46Y46*%
G04 Gerber Fmt 4.6, Leading zero omitted, Abs format (unit mm)*
G04 Created by KiCad (PCBNEW (5.0.2)-1) date 6/10/2020 7:39:01 PM*
%MOMM*%
%LPD*%
G01*
G04 APERTURE LIST*
%ADD10C,0.150000*%
G04 APERTURE END LIST*
D10*
X143510000Y-83820000D02*
X143510000Y-126238000D01*
X144272000Y-127000000D02*
X178511200Y-127000000D01*
X143510000Y-126238000D02*
G75*
G03X144272000Y-127000000I762000J0D01*
G01*
X140970000Y-126238000D02*
G75*
G02X140208000Y-127000000I-762000J0D01*
G01*
X140208000Y-127000000D02*
X105968800Y-127000000D01*
X140970000Y-83820000D02*
X140970000Y-126238000D01*
X140970000Y-83820000D02*
G75*
G02X143510000Y-83820000I1270000J0D01*
G01*
X141757400Y-32385000D02*
G75*
G02X142722600Y-32385000I482600J-381000D01*
G01*
X128854200Y-70739000D02*
X113969800Y-95377000D01*
X121767600Y-97663000D02*
X105308400Y-125857000D01*
X114630200Y-96520000D02*
X121107200Y-96520000D01*
X105308889Y-125857000D02*
G75*
G03X105968800Y-127000000I659911J-381000D01*
G01*
X121767478Y-97663211D02*
G75*
G03X121107567Y-96520211I-659911J381000D01*
G01*
X122047122Y-68453000D02*
G75*
G03X122707033Y-69596000I659911J-381000D01*
G01*
X128854078Y-70738633D02*
G75*
G03X128194167Y-69595633I-659911J381000D01*
G01*
X113970289Y-95377000D02*
G75*
G03X114630200Y-96520000I659911J-381000D01*
G01*
X141757400Y-32385000D02*
X122047000Y-68453000D01*
X122707400Y-69596000D02*
X128193800Y-69596000D01*
X142722600Y-32385000D02*
X162433000Y-68453000D01*
X162432878Y-68453000D02*
G75*
G02X161772967Y-69596000I-659911J-381000D01*
G01*
X155625922Y-70738633D02*
G75*
G02X156285833Y-69595633I659911J381000D01*
G01*
X170509711Y-95377000D02*
G75*
G02X169849800Y-96520000I-659911J-381000D01*
G01*
X162712522Y-97663211D02*
G75*
G02X163372433Y-96520211I659911J381000D01*
G01*
X179171111Y-125857000D02*
G75*
G02X178511200Y-127000000I-659911J-381000D01*
G01*
X162712400Y-97663000D02*
X179171600Y-125857000D01*
X169849800Y-96520000D02*
X163372800Y-96520000D01*
X155625800Y-70739000D02*
X170510200Y-95377000D01*
X161772600Y-69596000D02*
X156286200Y-69596000D01*
M02*
