G04 #@! TF.GenerationSoftware,KiCad,Pcbnew,(5.0.2)-1*
G04 #@! TF.CreationDate,2020-06-10T19:39:01-05:00*
G04 #@! TF.ProjectId,Top_Hardware,546f705f-4861-4726-9477-6172652e6b69,rev?*
G04 #@! TF.SameCoordinates,Original*
G04 #@! TF.FileFunction,Paste,Top*
G04 #@! TF.FilePolarity,Positive*
%FSLAX46Y46*%
G04 Gerber Fmt 4.6, Leading zero omitted, Abs format (unit mm)*
G04 Created by KiCad (PCBNEW (5.0.2)-1) date 6/10/2020 7:39:01 PM*
%MOMM*%
%LPD*%
G01*
G04 APERTURE LIST*
%ADD10C,0.100000*%
%ADD11C,0.950000*%
%ADD12R,0.550000X0.550000*%
G04 APERTURE END LIST*
D10*
G04 #@! TO.C,C1*
G36*
X138690779Y-85328144D02*
X138713834Y-85331563D01*
X138736443Y-85337227D01*
X138758387Y-85345079D01*
X138779457Y-85355044D01*
X138799448Y-85367026D01*
X138818168Y-85380910D01*
X138835438Y-85396562D01*
X138851090Y-85413832D01*
X138864974Y-85432552D01*
X138876956Y-85452543D01*
X138886921Y-85473613D01*
X138894773Y-85495557D01*
X138900437Y-85518166D01*
X138903856Y-85541221D01*
X138905000Y-85564500D01*
X138905000Y-86139500D01*
X138903856Y-86162779D01*
X138900437Y-86185834D01*
X138894773Y-86208443D01*
X138886921Y-86230387D01*
X138876956Y-86251457D01*
X138864974Y-86271448D01*
X138851090Y-86290168D01*
X138835438Y-86307438D01*
X138818168Y-86323090D01*
X138799448Y-86336974D01*
X138779457Y-86348956D01*
X138758387Y-86358921D01*
X138736443Y-86366773D01*
X138713834Y-86372437D01*
X138690779Y-86375856D01*
X138667500Y-86377000D01*
X138192500Y-86377000D01*
X138169221Y-86375856D01*
X138146166Y-86372437D01*
X138123557Y-86366773D01*
X138101613Y-86358921D01*
X138080543Y-86348956D01*
X138060552Y-86336974D01*
X138041832Y-86323090D01*
X138024562Y-86307438D01*
X138008910Y-86290168D01*
X137995026Y-86271448D01*
X137983044Y-86251457D01*
X137973079Y-86230387D01*
X137965227Y-86208443D01*
X137959563Y-86185834D01*
X137956144Y-86162779D01*
X137955000Y-86139500D01*
X137955000Y-85564500D01*
X137956144Y-85541221D01*
X137959563Y-85518166D01*
X137965227Y-85495557D01*
X137973079Y-85473613D01*
X137983044Y-85452543D01*
X137995026Y-85432552D01*
X138008910Y-85413832D01*
X138024562Y-85396562D01*
X138041832Y-85380910D01*
X138060552Y-85367026D01*
X138080543Y-85355044D01*
X138101613Y-85345079D01*
X138123557Y-85337227D01*
X138146166Y-85331563D01*
X138169221Y-85328144D01*
X138192500Y-85327000D01*
X138667500Y-85327000D01*
X138690779Y-85328144D01*
X138690779Y-85328144D01*
G37*
D11*
X138430000Y-85852000D03*
D10*
G36*
X138690779Y-83578144D02*
X138713834Y-83581563D01*
X138736443Y-83587227D01*
X138758387Y-83595079D01*
X138779457Y-83605044D01*
X138799448Y-83617026D01*
X138818168Y-83630910D01*
X138835438Y-83646562D01*
X138851090Y-83663832D01*
X138864974Y-83682552D01*
X138876956Y-83702543D01*
X138886921Y-83723613D01*
X138894773Y-83745557D01*
X138900437Y-83768166D01*
X138903856Y-83791221D01*
X138905000Y-83814500D01*
X138905000Y-84389500D01*
X138903856Y-84412779D01*
X138900437Y-84435834D01*
X138894773Y-84458443D01*
X138886921Y-84480387D01*
X138876956Y-84501457D01*
X138864974Y-84521448D01*
X138851090Y-84540168D01*
X138835438Y-84557438D01*
X138818168Y-84573090D01*
X138799448Y-84586974D01*
X138779457Y-84598956D01*
X138758387Y-84608921D01*
X138736443Y-84616773D01*
X138713834Y-84622437D01*
X138690779Y-84625856D01*
X138667500Y-84627000D01*
X138192500Y-84627000D01*
X138169221Y-84625856D01*
X138146166Y-84622437D01*
X138123557Y-84616773D01*
X138101613Y-84608921D01*
X138080543Y-84598956D01*
X138060552Y-84586974D01*
X138041832Y-84573090D01*
X138024562Y-84557438D01*
X138008910Y-84540168D01*
X137995026Y-84521448D01*
X137983044Y-84501457D01*
X137973079Y-84480387D01*
X137965227Y-84458443D01*
X137959563Y-84435834D01*
X137956144Y-84412779D01*
X137955000Y-84389500D01*
X137955000Y-83814500D01*
X137956144Y-83791221D01*
X137959563Y-83768166D01*
X137965227Y-83745557D01*
X137973079Y-83723613D01*
X137983044Y-83702543D01*
X137995026Y-83682552D01*
X138008910Y-83663832D01*
X138024562Y-83646562D01*
X138041832Y-83630910D01*
X138060552Y-83617026D01*
X138080543Y-83605044D01*
X138101613Y-83595079D01*
X138123557Y-83587227D01*
X138146166Y-83581563D01*
X138169221Y-83578144D01*
X138192500Y-83577000D01*
X138667500Y-83577000D01*
X138690779Y-83578144D01*
X138690779Y-83578144D01*
G37*
D11*
X138430000Y-84102000D03*
G04 #@! TD*
D12*
G04 #@! TO.C,D1*
X107635000Y-125410000D03*
X107635000Y-124460000D03*
X108585000Y-125410000D03*
X108585000Y-124460000D03*
G04 #@! TD*
G04 #@! TO.C,D3*
X116525000Y-94930000D03*
X116525000Y-93980000D03*
X117475000Y-94930000D03*
X117475000Y-93980000D03*
G04 #@! TD*
G04 #@! TO.C,D5*
X124145000Y-68260000D03*
X124145000Y-67310000D03*
X125095000Y-68260000D03*
X125095000Y-67310000D03*
G04 #@! TD*
G04 #@! TO.C,D7*
X159700000Y-68260000D03*
X158750000Y-68260000D03*
X159700000Y-67310000D03*
X158750000Y-67310000D03*
G04 #@! TD*
G04 #@! TO.C,D9*
X167955000Y-94930000D03*
X167005000Y-94930000D03*
X167955000Y-93980000D03*
X167005000Y-93980000D03*
G04 #@! TD*
G04 #@! TO.C,D11*
X176845000Y-125410000D03*
X175895000Y-125410000D03*
X176845000Y-124460000D03*
X175895000Y-124460000D03*
G04 #@! TD*
M02*
