G04 #@! TF.GenerationSoftware,KiCad,Pcbnew,(5.0.2)-1*
G04 #@! TF.CreationDate,2020-06-10T19:39:01-05:00*
G04 #@! TF.ProjectId,Top_Hardware,546f705f-4861-4726-9477-6172652e6b69,rev?*
G04 #@! TF.SameCoordinates,Original*
G04 #@! TF.FileFunction,Copper,L1,Top*
G04 #@! TF.FilePolarity,Positive*
%FSLAX46Y46*%
G04 Gerber Fmt 4.6, Leading zero omitted, Abs format (unit mm)*
G04 Created by KiCad (PCBNEW (5.0.2)-1) date 6/10/2020 7:39:01 PM*
%MOMM*%
%LPD*%
G01*
G04 APERTURE LIST*
G04 #@! TA.AperFunction,Conductor*
%ADD10C,0.100000*%
G04 #@! TD*
G04 #@! TA.AperFunction,SMDPad,CuDef*
%ADD11C,0.950000*%
G04 #@! TD*
G04 #@! TA.AperFunction,SMDPad,CuDef*
%ADD12R,0.550000X0.550000*%
G04 #@! TD*
G04 #@! TA.AperFunction,ComponentPad*
%ADD13R,1.700000X1.700000*%
G04 #@! TD*
G04 #@! TA.AperFunction,ComponentPad*
%ADD14O,1.700000X1.700000*%
G04 #@! TD*
G04 #@! TA.AperFunction,ViaPad*
%ADD15C,0.800000*%
G04 #@! TD*
G04 #@! TA.AperFunction,Conductor*
%ADD16C,0.381000*%
G04 #@! TD*
G04 #@! TA.AperFunction,Conductor*
%ADD17C,0.254000*%
G04 #@! TD*
G04 APERTURE END LIST*
D10*
G04 #@! TO.N,+5V*
G04 #@! TO.C,C1*
G36*
X138690779Y-85328144D02*
X138713834Y-85331563D01*
X138736443Y-85337227D01*
X138758387Y-85345079D01*
X138779457Y-85355044D01*
X138799448Y-85367026D01*
X138818168Y-85380910D01*
X138835438Y-85396562D01*
X138851090Y-85413832D01*
X138864974Y-85432552D01*
X138876956Y-85452543D01*
X138886921Y-85473613D01*
X138894773Y-85495557D01*
X138900437Y-85518166D01*
X138903856Y-85541221D01*
X138905000Y-85564500D01*
X138905000Y-86139500D01*
X138903856Y-86162779D01*
X138900437Y-86185834D01*
X138894773Y-86208443D01*
X138886921Y-86230387D01*
X138876956Y-86251457D01*
X138864974Y-86271448D01*
X138851090Y-86290168D01*
X138835438Y-86307438D01*
X138818168Y-86323090D01*
X138799448Y-86336974D01*
X138779457Y-86348956D01*
X138758387Y-86358921D01*
X138736443Y-86366773D01*
X138713834Y-86372437D01*
X138690779Y-86375856D01*
X138667500Y-86377000D01*
X138192500Y-86377000D01*
X138169221Y-86375856D01*
X138146166Y-86372437D01*
X138123557Y-86366773D01*
X138101613Y-86358921D01*
X138080543Y-86348956D01*
X138060552Y-86336974D01*
X138041832Y-86323090D01*
X138024562Y-86307438D01*
X138008910Y-86290168D01*
X137995026Y-86271448D01*
X137983044Y-86251457D01*
X137973079Y-86230387D01*
X137965227Y-86208443D01*
X137959563Y-86185834D01*
X137956144Y-86162779D01*
X137955000Y-86139500D01*
X137955000Y-85564500D01*
X137956144Y-85541221D01*
X137959563Y-85518166D01*
X137965227Y-85495557D01*
X137973079Y-85473613D01*
X137983044Y-85452543D01*
X137995026Y-85432552D01*
X138008910Y-85413832D01*
X138024562Y-85396562D01*
X138041832Y-85380910D01*
X138060552Y-85367026D01*
X138080543Y-85355044D01*
X138101613Y-85345079D01*
X138123557Y-85337227D01*
X138146166Y-85331563D01*
X138169221Y-85328144D01*
X138192500Y-85327000D01*
X138667500Y-85327000D01*
X138690779Y-85328144D01*
X138690779Y-85328144D01*
G37*
D11*
G04 #@! TD*
G04 #@! TO.P,C1,1*
G04 #@! TO.N,+5V*
X138430000Y-85852000D03*
D10*
G04 #@! TO.N,GND*
G04 #@! TO.C,C1*
G36*
X138690779Y-83578144D02*
X138713834Y-83581563D01*
X138736443Y-83587227D01*
X138758387Y-83595079D01*
X138779457Y-83605044D01*
X138799448Y-83617026D01*
X138818168Y-83630910D01*
X138835438Y-83646562D01*
X138851090Y-83663832D01*
X138864974Y-83682552D01*
X138876956Y-83702543D01*
X138886921Y-83723613D01*
X138894773Y-83745557D01*
X138900437Y-83768166D01*
X138903856Y-83791221D01*
X138905000Y-83814500D01*
X138905000Y-84389500D01*
X138903856Y-84412779D01*
X138900437Y-84435834D01*
X138894773Y-84458443D01*
X138886921Y-84480387D01*
X138876956Y-84501457D01*
X138864974Y-84521448D01*
X138851090Y-84540168D01*
X138835438Y-84557438D01*
X138818168Y-84573090D01*
X138799448Y-84586974D01*
X138779457Y-84598956D01*
X138758387Y-84608921D01*
X138736443Y-84616773D01*
X138713834Y-84622437D01*
X138690779Y-84625856D01*
X138667500Y-84627000D01*
X138192500Y-84627000D01*
X138169221Y-84625856D01*
X138146166Y-84622437D01*
X138123557Y-84616773D01*
X138101613Y-84608921D01*
X138080543Y-84598956D01*
X138060552Y-84586974D01*
X138041832Y-84573090D01*
X138024562Y-84557438D01*
X138008910Y-84540168D01*
X137995026Y-84521448D01*
X137983044Y-84501457D01*
X137973079Y-84480387D01*
X137965227Y-84458443D01*
X137959563Y-84435834D01*
X137956144Y-84412779D01*
X137955000Y-84389500D01*
X137955000Y-83814500D01*
X137956144Y-83791221D01*
X137959563Y-83768166D01*
X137965227Y-83745557D01*
X137973079Y-83723613D01*
X137983044Y-83702543D01*
X137995026Y-83682552D01*
X138008910Y-83663832D01*
X138024562Y-83646562D01*
X138041832Y-83630910D01*
X138060552Y-83617026D01*
X138080543Y-83605044D01*
X138101613Y-83595079D01*
X138123557Y-83587227D01*
X138146166Y-83581563D01*
X138169221Y-83578144D01*
X138192500Y-83577000D01*
X138667500Y-83577000D01*
X138690779Y-83578144D01*
X138690779Y-83578144D01*
G37*
D11*
G04 #@! TD*
G04 #@! TO.P,C1,2*
G04 #@! TO.N,GND*
X138430000Y-84102000D03*
D12*
G04 #@! TO.P,D1,1*
G04 #@! TO.N,Net-(D1-Pad1)*
X107635000Y-125410000D03*
G04 #@! TO.P,D1,4*
G04 #@! TO.N,+5V*
X107635000Y-124460000D03*
G04 #@! TO.P,D1,2*
G04 #@! TO.N,GND*
X108585000Y-125410000D03*
G04 #@! TO.P,D1,3*
G04 #@! TO.N,/DIn*
X108585000Y-124460000D03*
G04 #@! TD*
G04 #@! TO.P,D3,1*
G04 #@! TO.N,Net-(D3-Pad1)*
X116525000Y-94930000D03*
G04 #@! TO.P,D3,4*
G04 #@! TO.N,+5V*
X116525000Y-93980000D03*
G04 #@! TO.P,D3,2*
G04 #@! TO.N,GND*
X117475000Y-94930000D03*
G04 #@! TO.P,D3,3*
G04 #@! TO.N,Net-(D2-Pad1)*
X117475000Y-93980000D03*
G04 #@! TD*
G04 #@! TO.P,D5,1*
G04 #@! TO.N,Net-(D5-Pad1)*
X124145000Y-68260000D03*
G04 #@! TO.P,D5,4*
G04 #@! TO.N,+5V*
X124145000Y-67310000D03*
G04 #@! TO.P,D5,2*
G04 #@! TO.N,GND*
X125095000Y-68260000D03*
G04 #@! TO.P,D5,3*
G04 #@! TO.N,Net-(D4-Pad1)*
X125095000Y-67310000D03*
G04 #@! TD*
G04 #@! TO.P,D7,1*
G04 #@! TO.N,Net-(D7-Pad1)*
X159700000Y-68260000D03*
G04 #@! TO.P,D7,4*
G04 #@! TO.N,+5V*
X158750000Y-68260000D03*
G04 #@! TO.P,D7,2*
G04 #@! TO.N,GND*
X159700000Y-67310000D03*
G04 #@! TO.P,D7,3*
G04 #@! TO.N,Net-(D6-Pad1)*
X158750000Y-67310000D03*
G04 #@! TD*
G04 #@! TO.P,D9,1*
G04 #@! TO.N,Net-(D10-Pad3)*
X167955000Y-94930000D03*
G04 #@! TO.P,D9,4*
G04 #@! TO.N,+5V*
X167005000Y-94930000D03*
G04 #@! TO.P,D9,2*
G04 #@! TO.N,GND*
X167955000Y-93980000D03*
G04 #@! TO.P,D9,3*
G04 #@! TO.N,Net-(D8-Pad1)*
X167005000Y-93980000D03*
G04 #@! TD*
G04 #@! TO.P,D11,1*
G04 #@! TO.N,Net-(D11-Pad1)*
X176845000Y-125410000D03*
G04 #@! TO.P,D11,4*
G04 #@! TO.N,+5V*
X175895000Y-125410000D03*
G04 #@! TO.P,D11,2*
G04 #@! TO.N,GND*
X176845000Y-124460000D03*
G04 #@! TO.P,D11,3*
G04 #@! TO.N,Net-(D10-Pad1)*
X175895000Y-124460000D03*
G04 #@! TD*
D13*
G04 #@! TO.P,J1,1*
G04 #@! TO.N,+5V*
X138430000Y-88900000D03*
D14*
G04 #@! TO.P,J1,2*
G04 #@! TO.N,/DIn*
X138430000Y-91440000D03*
G04 #@! TO.P,J1,3*
G04 #@! TO.N,GND*
X138430000Y-93980000D03*
G04 #@! TD*
D13*
G04 #@! TO.P,J2,1*
G04 #@! TO.N,+5V*
X146050000Y-124460000D03*
D14*
G04 #@! TO.P,J2,2*
G04 #@! TO.N,/DOut*
X148590000Y-124460000D03*
G04 #@! TO.P,J2,3*
G04 #@! TO.N,GND*
X151130000Y-124460000D03*
G04 #@! TD*
D15*
G04 #@! TO.N,+5V*
X107950000Y-123190000D03*
X116840000Y-92710000D03*
X124460000Y-66040000D03*
X156972000Y-68580000D03*
X174112000Y-125730000D03*
X165222000Y-95250000D03*
G04 #@! TO.N,GND*
X109982000Y-125730000D03*
X118872000Y-95250000D03*
X126492000Y-68580000D03*
X159512000Y-65786000D03*
X167762000Y-92456000D03*
X176652000Y-122936000D03*
G04 #@! TO.N,Net-(D1-Pad1)*
X106426000Y-125984000D03*
G04 #@! TO.N,Net-(D2-Pad1)*
X122428000Y-94488000D03*
X109728000Y-123444000D03*
X122428000Y-122936000D03*
G04 #@! TO.N,Net-(D4-Pad1)*
X118618000Y-92964000D03*
X129540000Y-67818000D03*
X129540000Y-92456000D03*
G04 #@! TO.N,Net-(D5-Pad1)*
X122936000Y-68834000D03*
G04 #@! TO.N,Net-(D7-Pad1)*
X161036000Y-68580000D03*
G04 #@! TO.N,Net-(D8-Pad1)*
X154940000Y-67564000D03*
X165862000Y-92964000D03*
X154940000Y-92456000D03*
G04 #@! TO.N,Net-(D10-Pad3)*
X169286000Y-95250000D03*
G04 #@! TO.N,Net-(D10-Pad1)*
X162052000Y-94488000D03*
X174752000Y-123444000D03*
X162052000Y-122936000D03*
G04 #@! TO.N,Net-(D11-Pad1)*
X178176000Y-125730000D03*
G04 #@! TO.N,/DIn*
X136398000Y-124460000D03*
G04 #@! TO.N,Net-(D3-Pad1)*
X115316000Y-95504000D03*
G04 #@! TO.N,Net-(D6-Pad1)*
X142240000Y-66294000D03*
G04 #@! TO.N,/DOut*
X162052000Y-124460000D03*
G04 #@! TD*
D16*
G04 #@! TO.N,+5V*
X107635000Y-123505000D02*
X107950000Y-123190000D01*
X107635000Y-124460000D02*
X107635000Y-123505000D01*
X116525000Y-93980000D02*
X116525000Y-93025000D01*
X116525000Y-93025000D02*
X116840000Y-92710000D01*
X124145000Y-67310000D02*
X124145000Y-66355000D01*
X124145000Y-66355000D02*
X124460000Y-66040000D01*
X138430000Y-85852000D02*
X138430000Y-88900000D01*
X158750000Y-68260000D02*
X157292000Y-68260000D01*
X157292000Y-68260000D02*
X156972000Y-68580000D01*
X165542000Y-94930000D02*
X165222000Y-95250000D01*
X167000000Y-94930000D02*
X165542000Y-94930000D01*
X174432000Y-125410000D02*
X174112000Y-125730000D01*
X174112000Y-125730000D02*
X174432000Y-125410000D01*
X174432000Y-125410000D02*
X175895000Y-125410000D01*
X165222000Y-95250000D02*
X165222000Y-95250000D01*
G04 #@! TO.N,Net-(D1-Pad1)*
X107000000Y-125410000D02*
X106426000Y-125984000D01*
X107635000Y-125410000D02*
X107000000Y-125410000D01*
G04 #@! TO.N,Net-(D2-Pad1)*
X117475000Y-93980000D02*
X121920000Y-93980000D01*
X121920000Y-93980000D02*
X122428000Y-94488000D01*
X121920000Y-123444000D02*
X122428000Y-122936000D01*
X109728000Y-123444000D02*
X121920000Y-123444000D01*
G04 #@! TO.N,Net-(D4-Pad1)*
X125095000Y-67310000D02*
X129032000Y-67310000D01*
X129032000Y-67310000D02*
X129540000Y-67818000D01*
X129032000Y-92964000D02*
X129540000Y-92456000D01*
X118618000Y-92964000D02*
X129032000Y-92964000D01*
G04 #@! TO.N,Net-(D3-Pad1)*
X115890000Y-94930000D02*
X115316000Y-95504000D01*
X116525000Y-94930000D02*
X115890000Y-94930000D01*
G04 #@! TO.N,Net-(D5-Pad1)*
X123510000Y-68260000D02*
X122936000Y-68834000D01*
X124145000Y-68260000D02*
X123510000Y-68260000D01*
G04 #@! TO.N,Net-(D7-Pad1)*
X160716000Y-68260000D02*
X161036000Y-68580000D01*
X159700000Y-68260000D02*
X160716000Y-68260000D01*
G04 #@! TO.N,Net-(D8-Pad1)*
X154940000Y-67564000D02*
X154940000Y-76454000D01*
X167005000Y-93980000D02*
X166878000Y-93980000D01*
X166878000Y-93980000D02*
X165862000Y-92964000D01*
X154940000Y-92456000D02*
X154940000Y-91694000D01*
X154940000Y-76454000D02*
X154940000Y-91694000D01*
X154940000Y-91694000D02*
X154940000Y-92202000D01*
G04 #@! TO.N,Net-(D10-Pad3)*
X167950000Y-94930000D02*
X168966000Y-94930000D01*
X168966000Y-94930000D02*
X169286000Y-95250000D01*
G04 #@! TO.N,Net-(D10-Pad1)*
X162052000Y-94488000D02*
X162052000Y-96520000D01*
X175895000Y-124460000D02*
X175768000Y-124460000D01*
X175768000Y-124460000D02*
X174752000Y-123444000D01*
X162052000Y-96520000D02*
X162052000Y-122936000D01*
G04 #@! TO.N,Net-(D11-Pad1)*
X178176000Y-125730000D02*
X177856000Y-125410000D01*
X177856000Y-125410000D02*
X178176000Y-125730000D01*
X176845000Y-125410000D02*
X177856000Y-125410000D01*
G04 #@! TO.N,/DIn*
X108585000Y-124460000D02*
X122428000Y-124460000D01*
X122428000Y-124460000D02*
X136398000Y-124460000D01*
G04 #@! TO.N,Net-(D6-Pad1)*
X157734000Y-66294000D02*
X158750000Y-67310000D01*
X157734000Y-66294000D02*
X142240000Y-66294000D01*
G04 #@! TO.N,/DOut*
X148590000Y-124460000D02*
X150114000Y-122936000D01*
X160528000Y-122936000D02*
X162052000Y-124460000D01*
X150114000Y-122936000D02*
X160528000Y-122936000D01*
G04 #@! TD*
D17*
G04 #@! TO.N,GND*
G36*
X142245565Y-32746325D02*
X142259597Y-32753487D01*
X161378462Y-67739040D01*
X161216612Y-67672000D01*
X161093262Y-67672000D01*
X160988541Y-67602028D01*
X160784794Y-67561500D01*
X160784790Y-67561500D01*
X160716000Y-67547817D01*
X160647210Y-67561500D01*
X160255562Y-67561500D01*
X160173212Y-67506475D01*
X159975000Y-67467048D01*
X159542952Y-67467048D01*
X159542952Y-67035000D01*
X159503525Y-66836788D01*
X159391247Y-66668753D01*
X159223212Y-66556475D01*
X159025000Y-66517048D01*
X158944876Y-66517048D01*
X158276560Y-65848733D01*
X158237590Y-65790410D01*
X158006541Y-65636028D01*
X157802794Y-65595500D01*
X157802790Y-65595500D01*
X157734000Y-65581817D01*
X157665210Y-65595500D01*
X142825606Y-65595500D01*
X142754341Y-65524235D01*
X142420612Y-65386000D01*
X142059388Y-65386000D01*
X141725659Y-65524235D01*
X141470235Y-65779659D01*
X141332000Y-66113388D01*
X141332000Y-66474612D01*
X141470235Y-66808341D01*
X141725659Y-67063765D01*
X142059388Y-67202000D01*
X142420612Y-67202000D01*
X142754341Y-67063765D01*
X142825606Y-66992500D01*
X154227394Y-66992500D01*
X154170235Y-67049659D01*
X154032000Y-67383388D01*
X154032000Y-67744612D01*
X154170235Y-68078341D01*
X154241500Y-68149606D01*
X154241501Y-76385202D01*
X154241500Y-76385207D01*
X154241501Y-91625201D01*
X154241500Y-91625206D01*
X154241500Y-91870394D01*
X154170235Y-91941659D01*
X154032000Y-92275388D01*
X154032000Y-92636612D01*
X154170235Y-92970341D01*
X154425659Y-93225765D01*
X154759388Y-93364000D01*
X155120612Y-93364000D01*
X155454341Y-93225765D01*
X155709765Y-92970341D01*
X155848000Y-92636612D01*
X155848000Y-92275388D01*
X155709765Y-91941659D01*
X155638500Y-91870394D01*
X155638500Y-71887486D01*
X169151013Y-94254618D01*
X169034794Y-94231500D01*
X169034790Y-94231500D01*
X168966000Y-94217817D01*
X168897210Y-94231500D01*
X168510562Y-94231500D01*
X168428212Y-94176475D01*
X168230000Y-94137048D01*
X167797952Y-94137048D01*
X167797952Y-93705000D01*
X167758525Y-93506788D01*
X167646247Y-93338753D01*
X167478212Y-93226475D01*
X167280000Y-93187048D01*
X167072876Y-93187048D01*
X166770000Y-92884173D01*
X166770000Y-92783388D01*
X166631765Y-92449659D01*
X166376341Y-92194235D01*
X166042612Y-92056000D01*
X165681388Y-92056000D01*
X165347659Y-92194235D01*
X165092235Y-92449659D01*
X164954000Y-92783388D01*
X164954000Y-93144612D01*
X165092235Y-93478341D01*
X165347659Y-93733765D01*
X165681388Y-93872000D01*
X165782173Y-93872000D01*
X166141672Y-94231500D01*
X165610788Y-94231500D01*
X165541999Y-94217817D01*
X165473210Y-94231500D01*
X165473206Y-94231500D01*
X165269459Y-94272028D01*
X165164738Y-94342000D01*
X165041388Y-94342000D01*
X164707659Y-94480235D01*
X164452235Y-94735659D01*
X164314000Y-95069388D01*
X164314000Y-95430612D01*
X164452235Y-95764341D01*
X164624894Y-95937000D01*
X163315383Y-95937000D01*
X163295146Y-95941026D01*
X163234842Y-95944978D01*
X163161179Y-95964716D01*
X163085572Y-95974670D01*
X162804033Y-96070240D01*
X162750500Y-96101147D01*
X162750500Y-95073606D01*
X162821765Y-95002341D01*
X162960000Y-94668612D01*
X162960000Y-94307388D01*
X162821765Y-93973659D01*
X162566341Y-93718235D01*
X162232612Y-93580000D01*
X161871388Y-93580000D01*
X161537659Y-93718235D01*
X161282235Y-93973659D01*
X161144000Y-94307388D01*
X161144000Y-94668612D01*
X161282235Y-95002341D01*
X161353500Y-95073606D01*
X161353501Y-96451202D01*
X161353500Y-96451207D01*
X161353501Y-122350393D01*
X161282235Y-122421659D01*
X161200006Y-122620178D01*
X161070560Y-122490733D01*
X161031590Y-122432410D01*
X160800541Y-122278028D01*
X160596794Y-122237500D01*
X160596790Y-122237500D01*
X160528000Y-122223817D01*
X160459210Y-122237500D01*
X150182788Y-122237500D01*
X150113999Y-122223817D01*
X150045210Y-122237500D01*
X150045206Y-122237500D01*
X149841459Y-122278028D01*
X149610410Y-122432410D01*
X149571441Y-122490731D01*
X148920947Y-123141226D01*
X148723747Y-123102000D01*
X148456253Y-123102000D01*
X148060135Y-123180793D01*
X147610937Y-123480937D01*
X147417952Y-123769760D01*
X147417952Y-123610000D01*
X147378525Y-123411788D01*
X147266247Y-123243753D01*
X147098212Y-123131475D01*
X146900000Y-123092048D01*
X145200000Y-123092048D01*
X145001788Y-123131475D01*
X144833753Y-123243753D01*
X144721475Y-123411788D01*
X144682048Y-123610000D01*
X144682048Y-125310000D01*
X144721475Y-125508212D01*
X144833753Y-125676247D01*
X145001788Y-125788525D01*
X145200000Y-125827952D01*
X146900000Y-125827952D01*
X147098212Y-125788525D01*
X147266247Y-125676247D01*
X147378525Y-125508212D01*
X147417952Y-125310000D01*
X147417952Y-125150240D01*
X147610937Y-125439063D01*
X148060135Y-125739207D01*
X148456253Y-125818000D01*
X148723747Y-125818000D01*
X149119865Y-125739207D01*
X149569063Y-125439063D01*
X149869207Y-124989865D01*
X149974604Y-124460000D01*
X149908774Y-124129053D01*
X150403328Y-123634500D01*
X160238673Y-123634500D01*
X161144000Y-124539828D01*
X161144000Y-124640612D01*
X161282235Y-124974341D01*
X161537659Y-125229765D01*
X161871388Y-125368000D01*
X162232612Y-125368000D01*
X162566341Y-125229765D01*
X162821765Y-124974341D01*
X162960000Y-124640612D01*
X162960000Y-124279388D01*
X162821765Y-123945659D01*
X162574106Y-123698000D01*
X162821765Y-123450341D01*
X162960000Y-123116612D01*
X162960000Y-122755388D01*
X162821765Y-122421659D01*
X162750500Y-122350394D01*
X162750500Y-98884639D01*
X177823578Y-124704266D01*
X177787210Y-124711500D01*
X177400562Y-124711500D01*
X177318212Y-124656475D01*
X177120000Y-124617048D01*
X176687952Y-124617048D01*
X176687952Y-124185000D01*
X176648525Y-123986788D01*
X176536247Y-123818753D01*
X176368212Y-123706475D01*
X176170000Y-123667048D01*
X175962876Y-123667048D01*
X175660000Y-123364173D01*
X175660000Y-123263388D01*
X175521765Y-122929659D01*
X175266341Y-122674235D01*
X174932612Y-122536000D01*
X174571388Y-122536000D01*
X174237659Y-122674235D01*
X173982235Y-122929659D01*
X173844000Y-123263388D01*
X173844000Y-123624612D01*
X173982235Y-123958341D01*
X174237659Y-124213765D01*
X174571388Y-124352000D01*
X174672173Y-124352000D01*
X175031672Y-124711500D01*
X174500788Y-124711500D01*
X174431999Y-124697817D01*
X174363210Y-124711500D01*
X174363206Y-124711500D01*
X174159459Y-124752028D01*
X174054738Y-124822000D01*
X173931388Y-124822000D01*
X173597659Y-124960235D01*
X173342235Y-125215659D01*
X173204000Y-125549388D01*
X173204000Y-125910612D01*
X173342235Y-126244341D01*
X173514894Y-126417000D01*
X144329422Y-126417000D01*
X144207869Y-126392822D01*
X144153504Y-126356496D01*
X144117178Y-126302131D01*
X144093000Y-126180578D01*
X144093000Y-83762583D01*
X144083044Y-83712532D01*
X144007553Y-83284398D01*
X144007553Y-83284396D01*
X143959471Y-83152294D01*
X143938303Y-83094134D01*
X143938302Y-83094132D01*
X143717768Y-82712159D01*
X143639524Y-82618912D01*
X143587621Y-82557056D01*
X143249748Y-82273547D01*
X143249746Y-82273544D01*
X143074398Y-82172307D01*
X142659931Y-82021453D01*
X142460533Y-81986294D01*
X142019467Y-81986294D01*
X141820069Y-82021453D01*
X141405602Y-82172307D01*
X141230254Y-82273544D01*
X141230252Y-82273547D01*
X140892379Y-82557056D01*
X140840476Y-82618912D01*
X140762232Y-82712159D01*
X140541698Y-83094132D01*
X140541697Y-83094134D01*
X140472447Y-83284397D01*
X140396954Y-83712541D01*
X140387000Y-83762584D01*
X140387001Y-126180573D01*
X140362822Y-126302131D01*
X140326496Y-126356496D01*
X140272131Y-126392822D01*
X140150578Y-126417000D01*
X107229458Y-126417000D01*
X107321307Y-126195255D01*
X107360000Y-126202952D01*
X107910000Y-126202952D01*
X108108212Y-126163525D01*
X108276247Y-126051247D01*
X108388525Y-125883212D01*
X108427952Y-125685000D01*
X108427952Y-125252952D01*
X108860000Y-125252952D01*
X109058212Y-125213525D01*
X109140562Y-125158500D01*
X135812394Y-125158500D01*
X135883659Y-125229765D01*
X136217388Y-125368000D01*
X136578612Y-125368000D01*
X136912341Y-125229765D01*
X137167765Y-124974341D01*
X137306000Y-124640612D01*
X137306000Y-124279388D01*
X137167765Y-123945659D01*
X136912341Y-123690235D01*
X136578612Y-123552000D01*
X136217388Y-123552000D01*
X135883659Y-123690235D01*
X135812394Y-123761500D01*
X122807785Y-123761500D01*
X122942341Y-123705765D01*
X123197765Y-123450341D01*
X123336000Y-123116612D01*
X123336000Y-122755388D01*
X123197765Y-122421659D01*
X122942341Y-122166235D01*
X122608612Y-122028000D01*
X122247388Y-122028000D01*
X121913659Y-122166235D01*
X121658235Y-122421659D01*
X121524096Y-122745500D01*
X110313606Y-122745500D01*
X110242341Y-122674235D01*
X109908612Y-122536000D01*
X109547388Y-122536000D01*
X109213659Y-122674235D01*
X108958235Y-122929659D01*
X108858000Y-123171648D01*
X108858000Y-123009388D01*
X108719765Y-122675659D01*
X108464341Y-122420235D01*
X108130612Y-122282000D01*
X108070499Y-122282000D01*
X122300031Y-97907341D01*
X122306792Y-97887734D01*
X122334439Y-97831672D01*
X122354177Y-97758010D01*
X122383361Y-97687554D01*
X122441365Y-97395949D01*
X122441365Y-97168473D01*
X122383361Y-96876868D01*
X122296310Y-96666709D01*
X122296309Y-96666708D01*
X122131128Y-96419498D01*
X121970278Y-96258648D01*
X121723070Y-96093469D01*
X121723069Y-96093468D01*
X121595312Y-96040549D01*
X121512911Y-96006417D01*
X121512910Y-96006417D01*
X121334966Y-95971022D01*
X121334675Y-95970827D01*
X121164617Y-95937000D01*
X116119458Y-95937000D01*
X116211307Y-95715255D01*
X116250000Y-95722952D01*
X116800000Y-95722952D01*
X116998212Y-95683525D01*
X117166247Y-95571247D01*
X117278525Y-95403212D01*
X117317952Y-95205000D01*
X117317952Y-94772952D01*
X117750000Y-94772952D01*
X117948212Y-94733525D01*
X118030562Y-94678500D01*
X121524096Y-94678500D01*
X121658235Y-95002341D01*
X121913659Y-95257765D01*
X122247388Y-95396000D01*
X122608612Y-95396000D01*
X122942341Y-95257765D01*
X123197765Y-95002341D01*
X123336000Y-94668612D01*
X123336000Y-94307388D01*
X123197765Y-93973659D01*
X122942341Y-93718235D01*
X122807785Y-93662500D01*
X128963210Y-93662500D01*
X129032000Y-93676183D01*
X129100790Y-93662500D01*
X129100794Y-93662500D01*
X129304541Y-93621972D01*
X129535590Y-93467590D01*
X129574560Y-93409267D01*
X129619827Y-93364000D01*
X129720612Y-93364000D01*
X130054341Y-93225765D01*
X130309765Y-92970341D01*
X130448000Y-92636612D01*
X130448000Y-92275388D01*
X130309765Y-91941659D01*
X130054341Y-91686235D01*
X129720612Y-91548000D01*
X129359388Y-91548000D01*
X129025659Y-91686235D01*
X128770235Y-91941659D01*
X128636096Y-92265500D01*
X119203606Y-92265500D01*
X119132341Y-92194235D01*
X118798612Y-92056000D01*
X118437388Y-92056000D01*
X118103659Y-92194235D01*
X117848235Y-92449659D01*
X117748000Y-92691648D01*
X117748000Y-92529388D01*
X117609765Y-92195659D01*
X117354341Y-91940235D01*
X117020612Y-91802000D01*
X116810670Y-91802000D01*
X117029362Y-91440000D01*
X137045396Y-91440000D01*
X137150793Y-91969865D01*
X137450937Y-92419063D01*
X137900135Y-92719207D01*
X138296253Y-92798000D01*
X138563747Y-92798000D01*
X138959865Y-92719207D01*
X139409063Y-92419063D01*
X139709207Y-91969865D01*
X139814604Y-91440000D01*
X139709207Y-90910135D01*
X139409063Y-90460937D01*
X139120240Y-90267952D01*
X139280000Y-90267952D01*
X139478212Y-90228525D01*
X139646247Y-90116247D01*
X139758525Y-89948212D01*
X139797952Y-89750000D01*
X139797952Y-88050000D01*
X139758525Y-87851788D01*
X139646247Y-87683753D01*
X139478212Y-87571475D01*
X139280000Y-87532048D01*
X139128500Y-87532048D01*
X139128500Y-86722586D01*
X139201685Y-86673685D01*
X139365447Y-86428599D01*
X139422952Y-86139500D01*
X139422952Y-85564500D01*
X139365447Y-85275401D01*
X139201685Y-85030315D01*
X138956599Y-84866553D01*
X138667500Y-84809048D01*
X138192500Y-84809048D01*
X137903401Y-84866553D01*
X137658315Y-85030315D01*
X137494553Y-85275401D01*
X137437048Y-85564500D01*
X137437048Y-86139500D01*
X137494553Y-86428599D01*
X137658315Y-86673685D01*
X137731500Y-86722586D01*
X137731501Y-87532048D01*
X137580000Y-87532048D01*
X137381788Y-87571475D01*
X137213753Y-87683753D01*
X137101475Y-87851788D01*
X137062048Y-88050000D01*
X137062048Y-89750000D01*
X137101475Y-89948212D01*
X137213753Y-90116247D01*
X137381788Y-90228525D01*
X137580000Y-90267952D01*
X137739760Y-90267952D01*
X137450937Y-90460937D01*
X137150793Y-90910135D01*
X137045396Y-91440000D01*
X117029362Y-91440000D01*
X129382897Y-70991318D01*
X129392237Y-70965497D01*
X129421039Y-70907094D01*
X129440777Y-70833432D01*
X129469961Y-70762976D01*
X129527965Y-70471371D01*
X129527965Y-70243895D01*
X129469961Y-69952290D01*
X129382910Y-69742131D01*
X129382909Y-69742130D01*
X129217728Y-69494920D01*
X129056878Y-69334070D01*
X128809670Y-69168891D01*
X128809669Y-69168890D01*
X128681912Y-69115971D01*
X128599511Y-69081839D01*
X128599510Y-69081839D01*
X128307905Y-69023835D01*
X128305688Y-69023835D01*
X128251217Y-69013000D01*
X124618998Y-69013000D01*
X124786247Y-68901247D01*
X124898525Y-68733212D01*
X124937952Y-68535000D01*
X124937952Y-68102952D01*
X125370000Y-68102952D01*
X125568212Y-68063525D01*
X125650562Y-68008500D01*
X128636096Y-68008500D01*
X128770235Y-68332341D01*
X129025659Y-68587765D01*
X129359388Y-68726000D01*
X129720612Y-68726000D01*
X130054341Y-68587765D01*
X130309765Y-68332341D01*
X130448000Y-67998612D01*
X130448000Y-67637388D01*
X130309765Y-67303659D01*
X130054341Y-67048235D01*
X129720612Y-66910000D01*
X129619827Y-66910000D01*
X129574560Y-66864733D01*
X129535590Y-66806410D01*
X129304541Y-66652028D01*
X129100794Y-66611500D01*
X129100790Y-66611500D01*
X129032000Y-66597817D01*
X128963210Y-66611500D01*
X125650562Y-66611500D01*
X125568212Y-66556475D01*
X125370000Y-66517048D01*
X125245212Y-66517048D01*
X125368000Y-66220612D01*
X125368000Y-65859388D01*
X125229765Y-65525659D01*
X124974341Y-65270235D01*
X124640612Y-65132000D01*
X124526230Y-65132000D01*
X142217467Y-32758860D01*
X142230022Y-32748152D01*
X142237610Y-32745693D01*
X142245565Y-32746325D01*
X142245565Y-32746325D01*
G37*
X142245565Y-32746325D02*
X142259597Y-32753487D01*
X161378462Y-67739040D01*
X161216612Y-67672000D01*
X161093262Y-67672000D01*
X160988541Y-67602028D01*
X160784794Y-67561500D01*
X160784790Y-67561500D01*
X160716000Y-67547817D01*
X160647210Y-67561500D01*
X160255562Y-67561500D01*
X160173212Y-67506475D01*
X159975000Y-67467048D01*
X159542952Y-67467048D01*
X159542952Y-67035000D01*
X159503525Y-66836788D01*
X159391247Y-66668753D01*
X159223212Y-66556475D01*
X159025000Y-66517048D01*
X158944876Y-66517048D01*
X158276560Y-65848733D01*
X158237590Y-65790410D01*
X158006541Y-65636028D01*
X157802794Y-65595500D01*
X157802790Y-65595500D01*
X157734000Y-65581817D01*
X157665210Y-65595500D01*
X142825606Y-65595500D01*
X142754341Y-65524235D01*
X142420612Y-65386000D01*
X142059388Y-65386000D01*
X141725659Y-65524235D01*
X141470235Y-65779659D01*
X141332000Y-66113388D01*
X141332000Y-66474612D01*
X141470235Y-66808341D01*
X141725659Y-67063765D01*
X142059388Y-67202000D01*
X142420612Y-67202000D01*
X142754341Y-67063765D01*
X142825606Y-66992500D01*
X154227394Y-66992500D01*
X154170235Y-67049659D01*
X154032000Y-67383388D01*
X154032000Y-67744612D01*
X154170235Y-68078341D01*
X154241500Y-68149606D01*
X154241501Y-76385202D01*
X154241500Y-76385207D01*
X154241501Y-91625201D01*
X154241500Y-91625206D01*
X154241500Y-91870394D01*
X154170235Y-91941659D01*
X154032000Y-92275388D01*
X154032000Y-92636612D01*
X154170235Y-92970341D01*
X154425659Y-93225765D01*
X154759388Y-93364000D01*
X155120612Y-93364000D01*
X155454341Y-93225765D01*
X155709765Y-92970341D01*
X155848000Y-92636612D01*
X155848000Y-92275388D01*
X155709765Y-91941659D01*
X155638500Y-91870394D01*
X155638500Y-71887486D01*
X169151013Y-94254618D01*
X169034794Y-94231500D01*
X169034790Y-94231500D01*
X168966000Y-94217817D01*
X168897210Y-94231500D01*
X168510562Y-94231500D01*
X168428212Y-94176475D01*
X168230000Y-94137048D01*
X167797952Y-94137048D01*
X167797952Y-93705000D01*
X167758525Y-93506788D01*
X167646247Y-93338753D01*
X167478212Y-93226475D01*
X167280000Y-93187048D01*
X167072876Y-93187048D01*
X166770000Y-92884173D01*
X166770000Y-92783388D01*
X166631765Y-92449659D01*
X166376341Y-92194235D01*
X166042612Y-92056000D01*
X165681388Y-92056000D01*
X165347659Y-92194235D01*
X165092235Y-92449659D01*
X164954000Y-92783388D01*
X164954000Y-93144612D01*
X165092235Y-93478341D01*
X165347659Y-93733765D01*
X165681388Y-93872000D01*
X165782173Y-93872000D01*
X166141672Y-94231500D01*
X165610788Y-94231500D01*
X165541999Y-94217817D01*
X165473210Y-94231500D01*
X165473206Y-94231500D01*
X165269459Y-94272028D01*
X165164738Y-94342000D01*
X165041388Y-94342000D01*
X164707659Y-94480235D01*
X164452235Y-94735659D01*
X164314000Y-95069388D01*
X164314000Y-95430612D01*
X164452235Y-95764341D01*
X164624894Y-95937000D01*
X163315383Y-95937000D01*
X163295146Y-95941026D01*
X163234842Y-95944978D01*
X163161179Y-95964716D01*
X163085572Y-95974670D01*
X162804033Y-96070240D01*
X162750500Y-96101147D01*
X162750500Y-95073606D01*
X162821765Y-95002341D01*
X162960000Y-94668612D01*
X162960000Y-94307388D01*
X162821765Y-93973659D01*
X162566341Y-93718235D01*
X162232612Y-93580000D01*
X161871388Y-93580000D01*
X161537659Y-93718235D01*
X161282235Y-93973659D01*
X161144000Y-94307388D01*
X161144000Y-94668612D01*
X161282235Y-95002341D01*
X161353500Y-95073606D01*
X161353501Y-96451202D01*
X161353500Y-96451207D01*
X161353501Y-122350393D01*
X161282235Y-122421659D01*
X161200006Y-122620178D01*
X161070560Y-122490733D01*
X161031590Y-122432410D01*
X160800541Y-122278028D01*
X160596794Y-122237500D01*
X160596790Y-122237500D01*
X160528000Y-122223817D01*
X160459210Y-122237500D01*
X150182788Y-122237500D01*
X150113999Y-122223817D01*
X150045210Y-122237500D01*
X150045206Y-122237500D01*
X149841459Y-122278028D01*
X149610410Y-122432410D01*
X149571441Y-122490731D01*
X148920947Y-123141226D01*
X148723747Y-123102000D01*
X148456253Y-123102000D01*
X148060135Y-123180793D01*
X147610937Y-123480937D01*
X147417952Y-123769760D01*
X147417952Y-123610000D01*
X147378525Y-123411788D01*
X147266247Y-123243753D01*
X147098212Y-123131475D01*
X146900000Y-123092048D01*
X145200000Y-123092048D01*
X145001788Y-123131475D01*
X144833753Y-123243753D01*
X144721475Y-123411788D01*
X144682048Y-123610000D01*
X144682048Y-125310000D01*
X144721475Y-125508212D01*
X144833753Y-125676247D01*
X145001788Y-125788525D01*
X145200000Y-125827952D01*
X146900000Y-125827952D01*
X147098212Y-125788525D01*
X147266247Y-125676247D01*
X147378525Y-125508212D01*
X147417952Y-125310000D01*
X147417952Y-125150240D01*
X147610937Y-125439063D01*
X148060135Y-125739207D01*
X148456253Y-125818000D01*
X148723747Y-125818000D01*
X149119865Y-125739207D01*
X149569063Y-125439063D01*
X149869207Y-124989865D01*
X149974604Y-124460000D01*
X149908774Y-124129053D01*
X150403328Y-123634500D01*
X160238673Y-123634500D01*
X161144000Y-124539828D01*
X161144000Y-124640612D01*
X161282235Y-124974341D01*
X161537659Y-125229765D01*
X161871388Y-125368000D01*
X162232612Y-125368000D01*
X162566341Y-125229765D01*
X162821765Y-124974341D01*
X162960000Y-124640612D01*
X162960000Y-124279388D01*
X162821765Y-123945659D01*
X162574106Y-123698000D01*
X162821765Y-123450341D01*
X162960000Y-123116612D01*
X162960000Y-122755388D01*
X162821765Y-122421659D01*
X162750500Y-122350394D01*
X162750500Y-98884639D01*
X177823578Y-124704266D01*
X177787210Y-124711500D01*
X177400562Y-124711500D01*
X177318212Y-124656475D01*
X177120000Y-124617048D01*
X176687952Y-124617048D01*
X176687952Y-124185000D01*
X176648525Y-123986788D01*
X176536247Y-123818753D01*
X176368212Y-123706475D01*
X176170000Y-123667048D01*
X175962876Y-123667048D01*
X175660000Y-123364173D01*
X175660000Y-123263388D01*
X175521765Y-122929659D01*
X175266341Y-122674235D01*
X174932612Y-122536000D01*
X174571388Y-122536000D01*
X174237659Y-122674235D01*
X173982235Y-122929659D01*
X173844000Y-123263388D01*
X173844000Y-123624612D01*
X173982235Y-123958341D01*
X174237659Y-124213765D01*
X174571388Y-124352000D01*
X174672173Y-124352000D01*
X175031672Y-124711500D01*
X174500788Y-124711500D01*
X174431999Y-124697817D01*
X174363210Y-124711500D01*
X174363206Y-124711500D01*
X174159459Y-124752028D01*
X174054738Y-124822000D01*
X173931388Y-124822000D01*
X173597659Y-124960235D01*
X173342235Y-125215659D01*
X173204000Y-125549388D01*
X173204000Y-125910612D01*
X173342235Y-126244341D01*
X173514894Y-126417000D01*
X144329422Y-126417000D01*
X144207869Y-126392822D01*
X144153504Y-126356496D01*
X144117178Y-126302131D01*
X144093000Y-126180578D01*
X144093000Y-83762583D01*
X144083044Y-83712532D01*
X144007553Y-83284398D01*
X144007553Y-83284396D01*
X143959471Y-83152294D01*
X143938303Y-83094134D01*
X143938302Y-83094132D01*
X143717768Y-82712159D01*
X143639524Y-82618912D01*
X143587621Y-82557056D01*
X143249748Y-82273547D01*
X143249746Y-82273544D01*
X143074398Y-82172307D01*
X142659931Y-82021453D01*
X142460533Y-81986294D01*
X142019467Y-81986294D01*
X141820069Y-82021453D01*
X141405602Y-82172307D01*
X141230254Y-82273544D01*
X141230252Y-82273547D01*
X140892379Y-82557056D01*
X140840476Y-82618912D01*
X140762232Y-82712159D01*
X140541698Y-83094132D01*
X140541697Y-83094134D01*
X140472447Y-83284397D01*
X140396954Y-83712541D01*
X140387000Y-83762584D01*
X140387001Y-126180573D01*
X140362822Y-126302131D01*
X140326496Y-126356496D01*
X140272131Y-126392822D01*
X140150578Y-126417000D01*
X107229458Y-126417000D01*
X107321307Y-126195255D01*
X107360000Y-126202952D01*
X107910000Y-126202952D01*
X108108212Y-126163525D01*
X108276247Y-126051247D01*
X108388525Y-125883212D01*
X108427952Y-125685000D01*
X108427952Y-125252952D01*
X108860000Y-125252952D01*
X109058212Y-125213525D01*
X109140562Y-125158500D01*
X135812394Y-125158500D01*
X135883659Y-125229765D01*
X136217388Y-125368000D01*
X136578612Y-125368000D01*
X136912341Y-125229765D01*
X137167765Y-124974341D01*
X137306000Y-124640612D01*
X137306000Y-124279388D01*
X137167765Y-123945659D01*
X136912341Y-123690235D01*
X136578612Y-123552000D01*
X136217388Y-123552000D01*
X135883659Y-123690235D01*
X135812394Y-123761500D01*
X122807785Y-123761500D01*
X122942341Y-123705765D01*
X123197765Y-123450341D01*
X123336000Y-123116612D01*
X123336000Y-122755388D01*
X123197765Y-122421659D01*
X122942341Y-122166235D01*
X122608612Y-122028000D01*
X122247388Y-122028000D01*
X121913659Y-122166235D01*
X121658235Y-122421659D01*
X121524096Y-122745500D01*
X110313606Y-122745500D01*
X110242341Y-122674235D01*
X109908612Y-122536000D01*
X109547388Y-122536000D01*
X109213659Y-122674235D01*
X108958235Y-122929659D01*
X108858000Y-123171648D01*
X108858000Y-123009388D01*
X108719765Y-122675659D01*
X108464341Y-122420235D01*
X108130612Y-122282000D01*
X108070499Y-122282000D01*
X122300031Y-97907341D01*
X122306792Y-97887734D01*
X122334439Y-97831672D01*
X122354177Y-97758010D01*
X122383361Y-97687554D01*
X122441365Y-97395949D01*
X122441365Y-97168473D01*
X122383361Y-96876868D01*
X122296310Y-96666709D01*
X122296309Y-96666708D01*
X122131128Y-96419498D01*
X121970278Y-96258648D01*
X121723070Y-96093469D01*
X121723069Y-96093468D01*
X121595312Y-96040549D01*
X121512911Y-96006417D01*
X121512910Y-96006417D01*
X121334966Y-95971022D01*
X121334675Y-95970827D01*
X121164617Y-95937000D01*
X116119458Y-95937000D01*
X116211307Y-95715255D01*
X116250000Y-95722952D01*
X116800000Y-95722952D01*
X116998212Y-95683525D01*
X117166247Y-95571247D01*
X117278525Y-95403212D01*
X117317952Y-95205000D01*
X117317952Y-94772952D01*
X117750000Y-94772952D01*
X117948212Y-94733525D01*
X118030562Y-94678500D01*
X121524096Y-94678500D01*
X121658235Y-95002341D01*
X121913659Y-95257765D01*
X122247388Y-95396000D01*
X122608612Y-95396000D01*
X122942341Y-95257765D01*
X123197765Y-95002341D01*
X123336000Y-94668612D01*
X123336000Y-94307388D01*
X123197765Y-93973659D01*
X122942341Y-93718235D01*
X122807785Y-93662500D01*
X128963210Y-93662500D01*
X129032000Y-93676183D01*
X129100790Y-93662500D01*
X129100794Y-93662500D01*
X129304541Y-93621972D01*
X129535590Y-93467590D01*
X129574560Y-93409267D01*
X129619827Y-93364000D01*
X129720612Y-93364000D01*
X130054341Y-93225765D01*
X130309765Y-92970341D01*
X130448000Y-92636612D01*
X130448000Y-92275388D01*
X130309765Y-91941659D01*
X130054341Y-91686235D01*
X129720612Y-91548000D01*
X129359388Y-91548000D01*
X129025659Y-91686235D01*
X128770235Y-91941659D01*
X128636096Y-92265500D01*
X119203606Y-92265500D01*
X119132341Y-92194235D01*
X118798612Y-92056000D01*
X118437388Y-92056000D01*
X118103659Y-92194235D01*
X117848235Y-92449659D01*
X117748000Y-92691648D01*
X117748000Y-92529388D01*
X117609765Y-92195659D01*
X117354341Y-91940235D01*
X117020612Y-91802000D01*
X116810670Y-91802000D01*
X117029362Y-91440000D01*
X137045396Y-91440000D01*
X137150793Y-91969865D01*
X137450937Y-92419063D01*
X137900135Y-92719207D01*
X138296253Y-92798000D01*
X138563747Y-92798000D01*
X138959865Y-92719207D01*
X139409063Y-92419063D01*
X139709207Y-91969865D01*
X139814604Y-91440000D01*
X139709207Y-90910135D01*
X139409063Y-90460937D01*
X139120240Y-90267952D01*
X139280000Y-90267952D01*
X139478212Y-90228525D01*
X139646247Y-90116247D01*
X139758525Y-89948212D01*
X139797952Y-89750000D01*
X139797952Y-88050000D01*
X139758525Y-87851788D01*
X139646247Y-87683753D01*
X139478212Y-87571475D01*
X139280000Y-87532048D01*
X139128500Y-87532048D01*
X139128500Y-86722586D01*
X139201685Y-86673685D01*
X139365447Y-86428599D01*
X139422952Y-86139500D01*
X139422952Y-85564500D01*
X139365447Y-85275401D01*
X139201685Y-85030315D01*
X138956599Y-84866553D01*
X138667500Y-84809048D01*
X138192500Y-84809048D01*
X137903401Y-84866553D01*
X137658315Y-85030315D01*
X137494553Y-85275401D01*
X137437048Y-85564500D01*
X137437048Y-86139500D01*
X137494553Y-86428599D01*
X137658315Y-86673685D01*
X137731500Y-86722586D01*
X137731501Y-87532048D01*
X137580000Y-87532048D01*
X137381788Y-87571475D01*
X137213753Y-87683753D01*
X137101475Y-87851788D01*
X137062048Y-88050000D01*
X137062048Y-89750000D01*
X137101475Y-89948212D01*
X137213753Y-90116247D01*
X137381788Y-90228525D01*
X137580000Y-90267952D01*
X137739760Y-90267952D01*
X137450937Y-90460937D01*
X137150793Y-90910135D01*
X137045396Y-91440000D01*
X117029362Y-91440000D01*
X129382897Y-70991318D01*
X129392237Y-70965497D01*
X129421039Y-70907094D01*
X129440777Y-70833432D01*
X129469961Y-70762976D01*
X129527965Y-70471371D01*
X129527965Y-70243895D01*
X129469961Y-69952290D01*
X129382910Y-69742131D01*
X129382909Y-69742130D01*
X129217728Y-69494920D01*
X129056878Y-69334070D01*
X128809670Y-69168891D01*
X128809669Y-69168890D01*
X128681912Y-69115971D01*
X128599511Y-69081839D01*
X128599510Y-69081839D01*
X128307905Y-69023835D01*
X128305688Y-69023835D01*
X128251217Y-69013000D01*
X124618998Y-69013000D01*
X124786247Y-68901247D01*
X124898525Y-68733212D01*
X124937952Y-68535000D01*
X124937952Y-68102952D01*
X125370000Y-68102952D01*
X125568212Y-68063525D01*
X125650562Y-68008500D01*
X128636096Y-68008500D01*
X128770235Y-68332341D01*
X129025659Y-68587765D01*
X129359388Y-68726000D01*
X129720612Y-68726000D01*
X130054341Y-68587765D01*
X130309765Y-68332341D01*
X130448000Y-67998612D01*
X130448000Y-67637388D01*
X130309765Y-67303659D01*
X130054341Y-67048235D01*
X129720612Y-66910000D01*
X129619827Y-66910000D01*
X129574560Y-66864733D01*
X129535590Y-66806410D01*
X129304541Y-66652028D01*
X129100794Y-66611500D01*
X129100790Y-66611500D01*
X129032000Y-66597817D01*
X128963210Y-66611500D01*
X125650562Y-66611500D01*
X125568212Y-66556475D01*
X125370000Y-66517048D01*
X125245212Y-66517048D01*
X125368000Y-66220612D01*
X125368000Y-65859388D01*
X125229765Y-65525659D01*
X124974341Y-65270235D01*
X124640612Y-65132000D01*
X124526230Y-65132000D01*
X142217467Y-32758860D01*
X142230022Y-32748152D01*
X142237610Y-32745693D01*
X142245565Y-32746325D01*
G04 #@! TD*
M02*
