G04 #@! TF.GenerationSoftware,KiCad,Pcbnew,(5.0.2)-1*
G04 #@! TF.CreationDate,2020-06-10T19:39:01-05:00*
G04 #@! TF.ProjectId,Top_Hardware,546f705f-4861-4726-9477-6172652e6b69,rev?*
G04 #@! TF.SameCoordinates,Original*
G04 #@! TF.FileFunction,Copper,L2,Bot*
G04 #@! TF.FilePolarity,Positive*
%FSLAX46Y46*%
G04 Gerber Fmt 4.6, Leading zero omitted, Abs format (unit mm)*
G04 Created by KiCad (PCBNEW (5.0.2)-1) date 6/10/2020 7:39:01 PM*
%MOMM*%
%LPD*%
G01*
G04 APERTURE LIST*
G04 #@! TA.AperFunction,SMDPad,CuDef*
%ADD10R,0.550000X0.550000*%
G04 #@! TD*
G04 #@! TA.AperFunction,ComponentPad*
%ADD11R,1.700000X1.700000*%
G04 #@! TD*
G04 #@! TA.AperFunction,ComponentPad*
%ADD12O,1.700000X1.700000*%
G04 #@! TD*
G04 #@! TA.AperFunction,ViaPad*
%ADD13C,0.800000*%
G04 #@! TD*
G04 #@! TA.AperFunction,Conductor*
%ADD14C,0.381000*%
G04 #@! TD*
G04 #@! TA.AperFunction,Conductor*
%ADD15C,0.254000*%
G04 #@! TD*
G04 APERTURE END LIST*
D10*
G04 #@! TO.P,D2,3*
G04 #@! TO.N,Net-(D1-Pad1)*
X107635000Y-125410000D03*
G04 #@! TO.P,D2,2*
G04 #@! TO.N,GND*
X108585000Y-125410000D03*
G04 #@! TO.P,D2,4*
G04 #@! TO.N,+5V*
X107635000Y-124460000D03*
G04 #@! TO.P,D2,1*
G04 #@! TO.N,Net-(D2-Pad1)*
X108585000Y-124460000D03*
G04 #@! TD*
G04 #@! TO.P,D4,3*
G04 #@! TO.N,Net-(D3-Pad1)*
X116525000Y-94930000D03*
G04 #@! TO.P,D4,2*
G04 #@! TO.N,GND*
X117475000Y-94930000D03*
G04 #@! TO.P,D4,4*
G04 #@! TO.N,+5V*
X116525000Y-93980000D03*
G04 #@! TO.P,D4,1*
G04 #@! TO.N,Net-(D4-Pad1)*
X117475000Y-93980000D03*
G04 #@! TD*
G04 #@! TO.P,D6,3*
G04 #@! TO.N,Net-(D5-Pad1)*
X124145000Y-68260000D03*
G04 #@! TO.P,D6,2*
G04 #@! TO.N,GND*
X125095000Y-68260000D03*
G04 #@! TO.P,D6,4*
G04 #@! TO.N,+5V*
X124145000Y-67310000D03*
G04 #@! TO.P,D6,1*
G04 #@! TO.N,Net-(D6-Pad1)*
X125095000Y-67310000D03*
G04 #@! TD*
G04 #@! TO.P,D8,3*
G04 #@! TO.N,Net-(D7-Pad1)*
X159700000Y-68260000D03*
G04 #@! TO.P,D8,2*
G04 #@! TO.N,GND*
X159700000Y-67310000D03*
G04 #@! TO.P,D8,4*
G04 #@! TO.N,+5V*
X158750000Y-68260000D03*
G04 #@! TO.P,D8,1*
G04 #@! TO.N,Net-(D8-Pad1)*
X158750000Y-67310000D03*
G04 #@! TD*
G04 #@! TO.P,D10,3*
G04 #@! TO.N,Net-(D10-Pad3)*
X167955000Y-94930000D03*
G04 #@! TO.P,D10,2*
G04 #@! TO.N,GND*
X167955000Y-93980000D03*
G04 #@! TO.P,D10,4*
G04 #@! TO.N,+5V*
X167005000Y-94930000D03*
G04 #@! TO.P,D10,1*
G04 #@! TO.N,Net-(D10-Pad1)*
X167005000Y-93980000D03*
G04 #@! TD*
G04 #@! TO.P,D12,3*
G04 #@! TO.N,Net-(D11-Pad1)*
X176845000Y-125410000D03*
G04 #@! TO.P,D12,2*
G04 #@! TO.N,GND*
X176845000Y-124460000D03*
G04 #@! TO.P,D12,4*
G04 #@! TO.N,+5V*
X175895000Y-125410000D03*
G04 #@! TO.P,D12,1*
G04 #@! TO.N,/DOut*
X175895000Y-124460000D03*
G04 #@! TD*
D11*
G04 #@! TO.P,J1,1*
G04 #@! TO.N,+5V*
X138430000Y-88900000D03*
D12*
G04 #@! TO.P,J1,2*
G04 #@! TO.N,/DIn*
X138430000Y-91440000D03*
G04 #@! TO.P,J1,3*
G04 #@! TO.N,GND*
X138430000Y-93980000D03*
G04 #@! TD*
D11*
G04 #@! TO.P,J2,1*
G04 #@! TO.N,+5V*
X146050000Y-124460000D03*
D12*
G04 #@! TO.P,J2,2*
G04 #@! TO.N,/DOut*
X148590000Y-124460000D03*
G04 #@! TO.P,J2,3*
G04 #@! TO.N,GND*
X151130000Y-124460000D03*
G04 #@! TD*
D13*
G04 #@! TO.N,+5V*
X107950000Y-123190000D03*
X116840000Y-92710000D03*
X124460000Y-66040000D03*
X156972000Y-68580000D03*
X174112000Y-125730000D03*
X165222000Y-95250000D03*
G04 #@! TO.N,GND*
X109982000Y-125730000D03*
X118872000Y-95250000D03*
X126492000Y-68580000D03*
X159512000Y-65786000D03*
X167762000Y-92456000D03*
X176652000Y-122936000D03*
G04 #@! TO.N,Net-(D1-Pad1)*
X106426000Y-125984000D03*
G04 #@! TO.N,Net-(D2-Pad1)*
X122428000Y-94488000D03*
X109728000Y-123444000D03*
X122428000Y-122936000D03*
G04 #@! TO.N,Net-(D4-Pad1)*
X118618000Y-92964000D03*
X129540000Y-67818000D03*
X129540000Y-92456000D03*
G04 #@! TO.N,Net-(D5-Pad1)*
X122936000Y-68834000D03*
G04 #@! TO.N,Net-(D7-Pad1)*
X161036000Y-68580000D03*
G04 #@! TO.N,Net-(D8-Pad1)*
X154940000Y-67564000D03*
X165862000Y-92964000D03*
X154940000Y-92456000D03*
G04 #@! TO.N,Net-(D10-Pad3)*
X169286000Y-95250000D03*
G04 #@! TO.N,Net-(D10-Pad1)*
X162052000Y-94488000D03*
X174752000Y-123444000D03*
X162052000Y-122936000D03*
G04 #@! TO.N,Net-(D11-Pad1)*
X178176000Y-125730000D03*
G04 #@! TO.N,/DIn*
X136398000Y-124460000D03*
G04 #@! TO.N,Net-(D3-Pad1)*
X115316000Y-95504000D03*
G04 #@! TO.N,Net-(D6-Pad1)*
X142240000Y-66294000D03*
G04 #@! TO.N,/DOut*
X162052000Y-124460000D03*
G04 #@! TD*
D14*
G04 #@! TO.N,GND*
X109662000Y-125410000D02*
X109982000Y-125730000D01*
X108585000Y-125410000D02*
X109662000Y-125410000D01*
X117475000Y-94930000D02*
X118552000Y-94930000D01*
X118552000Y-94930000D02*
X118872000Y-95250000D01*
X125095000Y-68260000D02*
X126172000Y-68260000D01*
X126172000Y-68260000D02*
X126492000Y-68580000D01*
X159700000Y-67310000D02*
X159700000Y-65974000D01*
X159700000Y-65974000D02*
X159512000Y-65786000D01*
X167950000Y-93980000D02*
X167950000Y-92644000D01*
X167950000Y-92644000D02*
X167762000Y-92456000D01*
X176840000Y-124460000D02*
X176840000Y-123124000D01*
X176840000Y-123124000D02*
X176652000Y-122936000D01*
G04 #@! TO.N,Net-(D1-Pad1)*
X107000000Y-125410000D02*
X106426000Y-125984000D01*
X107635000Y-125410000D02*
X107000000Y-125410000D01*
G04 #@! TO.N,Net-(D2-Pad1)*
X122428000Y-94488000D02*
X122428000Y-95053685D01*
X108585000Y-124460000D02*
X108712000Y-124460000D01*
X108712000Y-124460000D02*
X109728000Y-123444000D01*
X122428000Y-95053685D02*
X122428000Y-122936000D01*
G04 #@! TO.N,Net-(D4-Pad1)*
X117475000Y-93980000D02*
X117602000Y-93980000D01*
X117602000Y-93980000D02*
X118618000Y-92964000D01*
X129540000Y-67818000D02*
X129540000Y-81788000D01*
X129540000Y-81788000D02*
X129540000Y-92456000D01*
G04 #@! TO.N,Net-(D6-Pad1)*
X125095000Y-67310000D02*
X125222000Y-67310000D01*
X125222000Y-67310000D02*
X126238000Y-66294000D01*
G04 #@! TO.N,Net-(D3-Pad1)*
X115890000Y-94930000D02*
X115316000Y-95504000D01*
X116525000Y-94930000D02*
X115890000Y-94930000D01*
G04 #@! TO.N,Net-(D5-Pad1)*
X123510000Y-68260000D02*
X122936000Y-68834000D01*
X122936000Y-68834000D02*
X123510000Y-68260000D01*
X123510000Y-68260000D02*
X124145000Y-68260000D01*
G04 #@! TO.N,Net-(D7-Pad1)*
X159700000Y-68260000D02*
X160716000Y-68260000D01*
X160716000Y-68260000D02*
X161036000Y-68580000D01*
G04 #@! TO.N,Net-(D8-Pad1)*
X158750000Y-67310000D02*
X158094000Y-67310000D01*
X158094000Y-67310000D02*
X155194000Y-67310000D01*
X155194000Y-67310000D02*
X154940000Y-67564000D01*
X165862000Y-92964000D02*
X155448000Y-92964000D01*
X155448000Y-92964000D02*
X154940000Y-92456000D01*
G04 #@! TO.N,Net-(D10-Pad3)*
X168966000Y-94930000D02*
X169286000Y-95250000D01*
X167950000Y-94930000D02*
X168966000Y-94930000D01*
X169286000Y-95250000D02*
X169286000Y-95250000D01*
G04 #@! TO.N,Net-(D10-Pad1)*
X167005000Y-93980000D02*
X166349000Y-93980000D01*
X166349000Y-93980000D02*
X162560000Y-93980000D01*
X162560000Y-93980000D02*
X162052000Y-94488000D01*
X162560000Y-123444000D02*
X162052000Y-122936000D01*
X174752000Y-123444000D02*
X162560000Y-123444000D01*
G04 #@! TO.N,Net-(D11-Pad1)*
X176840000Y-125410000D02*
X177856000Y-125410000D01*
X177856000Y-125410000D02*
X178176000Y-125730000D01*
G04 #@! TO.N,/DIn*
X137227919Y-91440000D02*
X136906000Y-91761919D01*
X138430000Y-91440000D02*
X137227919Y-91440000D01*
X136906000Y-91761919D02*
X136906000Y-123952000D01*
X136906000Y-123952000D02*
X136398000Y-124460000D01*
G04 #@! TO.N,Net-(D3-Pad1)*
X115316000Y-95504000D02*
X115316000Y-95504000D01*
G04 #@! TO.N,Net-(D6-Pad1)*
X126238000Y-66294000D02*
X142240000Y-66294000D01*
G04 #@! TO.N,/DOut*
X175895000Y-124460000D02*
X173990000Y-124460000D01*
X162814000Y-124460000D02*
X162052000Y-124460000D01*
X162814000Y-124460000D02*
X162560000Y-124460000D01*
X173990000Y-124460000D02*
X162814000Y-124460000D01*
G04 #@! TD*
D15*
G04 #@! TO.N,+5V*
G36*
X142245565Y-32746325D02*
X142259597Y-32753487D01*
X159850763Y-64943508D01*
X159692612Y-64878000D01*
X159331388Y-64878000D01*
X158997659Y-65016235D01*
X158742235Y-65271659D01*
X158604000Y-65605388D01*
X158604000Y-65966612D01*
X158742235Y-66300341D01*
X158958942Y-66517048D01*
X158475000Y-66517048D01*
X158276788Y-66556475D01*
X158194438Y-66611500D01*
X155262788Y-66611500D01*
X155193999Y-66597817D01*
X155125210Y-66611500D01*
X155125206Y-66611500D01*
X154921459Y-66652028D01*
X154915514Y-66656000D01*
X154759388Y-66656000D01*
X154425659Y-66794235D01*
X154170235Y-67049659D01*
X154032000Y-67383388D01*
X154032000Y-67744612D01*
X154170235Y-68078341D01*
X154425659Y-68333765D01*
X154759388Y-68472000D01*
X155120612Y-68472000D01*
X155454341Y-68333765D01*
X155709765Y-68078341D01*
X155738694Y-68008500D01*
X158194438Y-68008500D01*
X158276788Y-68063525D01*
X158475000Y-68102952D01*
X158907048Y-68102952D01*
X158907048Y-68535000D01*
X158946475Y-68733212D01*
X159058753Y-68901247D01*
X159226002Y-69013000D01*
X156228783Y-69013000D01*
X156212879Y-69016163D01*
X156148242Y-69020400D01*
X156074579Y-69040138D01*
X155998972Y-69050092D01*
X155717433Y-69145662D01*
X155520434Y-69259400D01*
X155296899Y-69455434D01*
X155158421Y-69635902D01*
X155158421Y-69635903D01*
X155026922Y-69902556D01*
X155026921Y-69902558D01*
X154968046Y-70122282D01*
X154948600Y-70418963D01*
X154978291Y-70644492D01*
X154978292Y-70644494D01*
X155038424Y-70821635D01*
X155038121Y-70828268D01*
X155097103Y-70991317D01*
X167528993Y-91569703D01*
X167247659Y-91686235D01*
X166992235Y-91941659D01*
X166854000Y-92275388D01*
X166854000Y-92636612D01*
X166992235Y-92970341D01*
X167208942Y-93187048D01*
X166752422Y-93187048D01*
X166770000Y-93144612D01*
X166770000Y-92783388D01*
X166631765Y-92449659D01*
X166376341Y-92194235D01*
X166042612Y-92056000D01*
X165681388Y-92056000D01*
X165347659Y-92194235D01*
X165276394Y-92265500D01*
X155843904Y-92265500D01*
X155709765Y-91941659D01*
X155454341Y-91686235D01*
X155120612Y-91548000D01*
X154759388Y-91548000D01*
X154425659Y-91686235D01*
X154170235Y-91941659D01*
X154032000Y-92275388D01*
X154032000Y-92636612D01*
X154170235Y-92970341D01*
X154425659Y-93225765D01*
X154759388Y-93364000D01*
X154860172Y-93364000D01*
X154905441Y-93409269D01*
X154944410Y-93467590D01*
X155175459Y-93621972D01*
X155379206Y-93662500D01*
X155379210Y-93662500D01*
X155447999Y-93676183D01*
X155516788Y-93662500D01*
X161672215Y-93662500D01*
X161537659Y-93718235D01*
X161282235Y-93973659D01*
X161144000Y-94307388D01*
X161144000Y-94668612D01*
X161282235Y-95002341D01*
X161537659Y-95257765D01*
X161871388Y-95396000D01*
X162232612Y-95396000D01*
X162566341Y-95257765D01*
X162821765Y-95002341D01*
X162955904Y-94678500D01*
X166449438Y-94678500D01*
X166531788Y-94733525D01*
X166730000Y-94772952D01*
X167162048Y-94772952D01*
X167162048Y-95205000D01*
X167201475Y-95403212D01*
X167313753Y-95571247D01*
X167481788Y-95683525D01*
X167680000Y-95722952D01*
X168230000Y-95722952D01*
X168428212Y-95683525D01*
X168470935Y-95654978D01*
X168516235Y-95764341D01*
X168688894Y-95937000D01*
X163315383Y-95937000D01*
X163295146Y-95941026D01*
X163234842Y-95944978D01*
X163161179Y-95964716D01*
X163085572Y-95974670D01*
X162804033Y-96070240D01*
X162607034Y-96183978D01*
X162383499Y-96380012D01*
X162245021Y-96560480D01*
X162245021Y-96560481D01*
X162113522Y-96827134D01*
X162113521Y-96827136D01*
X162054646Y-97046860D01*
X162035200Y-97343541D01*
X162064891Y-97569070D01*
X162064892Y-97569072D01*
X162123541Y-97741845D01*
X162123445Y-97743422D01*
X162179969Y-97907340D01*
X176302143Y-122098103D01*
X176137659Y-122166235D01*
X175882235Y-122421659D01*
X175744000Y-122755388D01*
X175744000Y-123116612D01*
X175882235Y-123450341D01*
X176098942Y-123667048D01*
X175642422Y-123667048D01*
X175660000Y-123624612D01*
X175660000Y-123263388D01*
X175521765Y-122929659D01*
X175266341Y-122674235D01*
X174932612Y-122536000D01*
X174571388Y-122536000D01*
X174237659Y-122674235D01*
X174166394Y-122745500D01*
X162955904Y-122745500D01*
X162821765Y-122421659D01*
X162566341Y-122166235D01*
X162232612Y-122028000D01*
X161871388Y-122028000D01*
X161537659Y-122166235D01*
X161282235Y-122421659D01*
X161144000Y-122755388D01*
X161144000Y-123116612D01*
X161282235Y-123450341D01*
X161529894Y-123698000D01*
X161282235Y-123945659D01*
X161144000Y-124279388D01*
X161144000Y-124640612D01*
X161282235Y-124974341D01*
X161537659Y-125229765D01*
X161871388Y-125368000D01*
X162232612Y-125368000D01*
X162566341Y-125229765D01*
X162637606Y-125158500D01*
X175339438Y-125158500D01*
X175421788Y-125213525D01*
X175620000Y-125252952D01*
X176052048Y-125252952D01*
X176052048Y-125685000D01*
X176091475Y-125883212D01*
X176203753Y-126051247D01*
X176371788Y-126163525D01*
X176570000Y-126202952D01*
X177120000Y-126202952D01*
X177318212Y-126163525D01*
X177360935Y-126134978D01*
X177406235Y-126244341D01*
X177578894Y-126417000D01*
X144329422Y-126417000D01*
X144207869Y-126392822D01*
X144153504Y-126356496D01*
X144117178Y-126302131D01*
X144093000Y-126180578D01*
X144093000Y-124460000D01*
X147205396Y-124460000D01*
X147310793Y-124989865D01*
X147610937Y-125439063D01*
X148060135Y-125739207D01*
X148456253Y-125818000D01*
X148723747Y-125818000D01*
X149119865Y-125739207D01*
X149569063Y-125439063D01*
X149860000Y-125003644D01*
X150150937Y-125439063D01*
X150600135Y-125739207D01*
X150996253Y-125818000D01*
X151263747Y-125818000D01*
X151659865Y-125739207D01*
X152109063Y-125439063D01*
X152409207Y-124989865D01*
X152514604Y-124460000D01*
X152409207Y-123930135D01*
X152109063Y-123480937D01*
X151659865Y-123180793D01*
X151263747Y-123102000D01*
X150996253Y-123102000D01*
X150600135Y-123180793D01*
X150150937Y-123480937D01*
X149860000Y-123916356D01*
X149569063Y-123480937D01*
X149119865Y-123180793D01*
X148723747Y-123102000D01*
X148456253Y-123102000D01*
X148060135Y-123180793D01*
X147610937Y-123480937D01*
X147310793Y-123930135D01*
X147205396Y-124460000D01*
X144093000Y-124460000D01*
X144093000Y-83762583D01*
X144083044Y-83712532D01*
X144007553Y-83284398D01*
X144007553Y-83284396D01*
X143959471Y-83152294D01*
X143938303Y-83094134D01*
X143938302Y-83094132D01*
X143717768Y-82712159D01*
X143639524Y-82618912D01*
X143587621Y-82557056D01*
X143249748Y-82273547D01*
X143249746Y-82273544D01*
X143074398Y-82172307D01*
X142659931Y-82021453D01*
X142460533Y-81986294D01*
X142019467Y-81986294D01*
X141820069Y-82021453D01*
X141405602Y-82172307D01*
X141230254Y-82273544D01*
X141230252Y-82273547D01*
X140892379Y-82557056D01*
X140840476Y-82618912D01*
X140762232Y-82712159D01*
X140541698Y-83094132D01*
X140541697Y-83094134D01*
X140472447Y-83284397D01*
X140396954Y-83712541D01*
X140387000Y-83762584D01*
X140387001Y-126180573D01*
X140362822Y-126302131D01*
X140326496Y-126356496D01*
X140272131Y-126392822D01*
X140150578Y-126417000D01*
X110579106Y-126417000D01*
X110751765Y-126244341D01*
X110890000Y-125910612D01*
X110890000Y-125549388D01*
X110751765Y-125215659D01*
X110496341Y-124960235D01*
X110162612Y-124822000D01*
X110039262Y-124822000D01*
X109934541Y-124752028D01*
X109730794Y-124711500D01*
X109730790Y-124711500D01*
X109662000Y-124697817D01*
X109593210Y-124711500D01*
X109448327Y-124711500D01*
X109807828Y-124352000D01*
X109908612Y-124352000D01*
X110083912Y-124279388D01*
X135490000Y-124279388D01*
X135490000Y-124640612D01*
X135628235Y-124974341D01*
X135883659Y-125229765D01*
X136217388Y-125368000D01*
X136578612Y-125368000D01*
X136912341Y-125229765D01*
X137167765Y-124974341D01*
X137306000Y-124640612D01*
X137306000Y-124539828D01*
X137351269Y-124494559D01*
X137409590Y-124455590D01*
X137563972Y-124224541D01*
X137604500Y-124020794D01*
X137604500Y-124020790D01*
X137618183Y-123952001D01*
X137604500Y-123883212D01*
X137604500Y-95061670D01*
X137900135Y-95259207D01*
X138296253Y-95338000D01*
X138563747Y-95338000D01*
X138959865Y-95259207D01*
X139409063Y-94959063D01*
X139709207Y-94509865D01*
X139814604Y-93980000D01*
X139709207Y-93450135D01*
X139409063Y-93000937D01*
X138973644Y-92710000D01*
X139409063Y-92419063D01*
X139709207Y-91969865D01*
X139814604Y-91440000D01*
X139709207Y-90910135D01*
X139409063Y-90460937D01*
X138959865Y-90160793D01*
X138563747Y-90082000D01*
X138296253Y-90082000D01*
X137900135Y-90160793D01*
X137450937Y-90460937D01*
X137267370Y-90735665D01*
X137227918Y-90727817D01*
X137159129Y-90741500D01*
X137159125Y-90741500D01*
X136955378Y-90782028D01*
X136724329Y-90936410D01*
X136685358Y-90994734D01*
X136460731Y-91219361D01*
X136402410Y-91258330D01*
X136248028Y-91489379D01*
X136207500Y-91693126D01*
X136207500Y-91693129D01*
X136193817Y-91761919D01*
X136207500Y-91830709D01*
X136207501Y-123556095D01*
X135883659Y-123690235D01*
X135628235Y-123945659D01*
X135490000Y-124279388D01*
X110083912Y-124279388D01*
X110242341Y-124213765D01*
X110497765Y-123958341D01*
X110636000Y-123624612D01*
X110636000Y-123263388D01*
X110497765Y-122929659D01*
X110242341Y-122674235D01*
X109908612Y-122536000D01*
X109547388Y-122536000D01*
X109213659Y-122674235D01*
X108958235Y-122929659D01*
X108820000Y-123263388D01*
X108820000Y-123364172D01*
X108517125Y-123667048D01*
X108310000Y-123667048D01*
X108111788Y-123706475D01*
X107943753Y-123818753D01*
X107831475Y-123986788D01*
X107792048Y-124185000D01*
X107792048Y-124617048D01*
X107360000Y-124617048D01*
X107161788Y-124656475D01*
X107079438Y-124711500D01*
X107068794Y-124711500D01*
X107000000Y-124697816D01*
X106727459Y-124752028D01*
X106565273Y-124860396D01*
X121729500Y-98884639D01*
X121729501Y-122350393D01*
X121658235Y-122421659D01*
X121520000Y-122755388D01*
X121520000Y-123116612D01*
X121658235Y-123450341D01*
X121913659Y-123705765D01*
X122247388Y-123844000D01*
X122608612Y-123844000D01*
X122942341Y-123705765D01*
X123197765Y-123450341D01*
X123336000Y-123116612D01*
X123336000Y-122755388D01*
X123197765Y-122421659D01*
X123126500Y-122350394D01*
X123126500Y-95073606D01*
X123197765Y-95002341D01*
X123336000Y-94668612D01*
X123336000Y-94307388D01*
X123197765Y-93973659D01*
X122942341Y-93718235D01*
X122608612Y-93580000D01*
X122247388Y-93580000D01*
X121913659Y-93718235D01*
X121658235Y-93973659D01*
X121520000Y-94307388D01*
X121520000Y-94668612D01*
X121658235Y-95002341D01*
X121729500Y-95073606D01*
X121729500Y-96097765D01*
X121723070Y-96093469D01*
X121723069Y-96093468D01*
X121595312Y-96040549D01*
X121512911Y-96006417D01*
X121512910Y-96006417D01*
X121334966Y-95971022D01*
X121334675Y-95970827D01*
X121164617Y-95937000D01*
X119469106Y-95937000D01*
X119641765Y-95764341D01*
X119780000Y-95430612D01*
X119780000Y-95069388D01*
X119641765Y-94735659D01*
X119386341Y-94480235D01*
X119052612Y-94342000D01*
X118929262Y-94342000D01*
X118824541Y-94272028D01*
X118620794Y-94231500D01*
X118620790Y-94231500D01*
X118552000Y-94217817D01*
X118483210Y-94231500D01*
X118338327Y-94231500D01*
X118697828Y-93872000D01*
X118798612Y-93872000D01*
X119132341Y-93733765D01*
X119387765Y-93478341D01*
X119526000Y-93144612D01*
X119526000Y-92783388D01*
X119387765Y-92449659D01*
X119132341Y-92194235D01*
X118798612Y-92056000D01*
X118437388Y-92056000D01*
X118103659Y-92194235D01*
X117848235Y-92449659D01*
X117710000Y-92783388D01*
X117710000Y-92884172D01*
X117407125Y-93187048D01*
X117200000Y-93187048D01*
X117001788Y-93226475D01*
X116833753Y-93338753D01*
X116721475Y-93506788D01*
X116682048Y-93705000D01*
X116682048Y-94137048D01*
X116250000Y-94137048D01*
X116051788Y-94176475D01*
X115969438Y-94231500D01*
X115958794Y-94231500D01*
X115890000Y-94217816D01*
X115617459Y-94272028D01*
X115444730Y-94387441D01*
X115444728Y-94387443D01*
X115386410Y-94426410D01*
X115347443Y-94484728D01*
X115236172Y-94596000D01*
X115135388Y-94596000D01*
X115118530Y-94602983D01*
X128841500Y-71887487D01*
X128841501Y-81719202D01*
X128841500Y-81719207D01*
X128841501Y-91870393D01*
X128770235Y-91941659D01*
X128632000Y-92275388D01*
X128632000Y-92636612D01*
X128770235Y-92970341D01*
X129025659Y-93225765D01*
X129359388Y-93364000D01*
X129720612Y-93364000D01*
X130054341Y-93225765D01*
X130309765Y-92970341D01*
X130448000Y-92636612D01*
X130448000Y-92275388D01*
X130309765Y-91941659D01*
X130238500Y-91870394D01*
X130238500Y-68403606D01*
X130309765Y-68332341D01*
X130448000Y-67998612D01*
X130448000Y-67637388D01*
X130309765Y-67303659D01*
X130054341Y-67048235D01*
X129919785Y-66992500D01*
X141654394Y-66992500D01*
X141725659Y-67063765D01*
X142059388Y-67202000D01*
X142420612Y-67202000D01*
X142754341Y-67063765D01*
X143009765Y-66808341D01*
X143148000Y-66474612D01*
X143148000Y-66113388D01*
X143009765Y-65779659D01*
X142754341Y-65524235D01*
X142420612Y-65386000D01*
X142059388Y-65386000D01*
X141725659Y-65524235D01*
X141654394Y-65595500D01*
X126306790Y-65595500D01*
X126238000Y-65581817D01*
X126169210Y-65595500D01*
X126169206Y-65595500D01*
X125965459Y-65636028D01*
X125734410Y-65790410D01*
X125695441Y-65848731D01*
X125027125Y-66517048D01*
X124820000Y-66517048D01*
X124621788Y-66556475D01*
X124453753Y-66668753D01*
X124341475Y-66836788D01*
X124302048Y-67035000D01*
X124302048Y-67467048D01*
X123870000Y-67467048D01*
X123671788Y-67506475D01*
X123589438Y-67561500D01*
X123578794Y-67561500D01*
X123510000Y-67547816D01*
X123237459Y-67602028D01*
X123141300Y-67666279D01*
X142217467Y-32758860D01*
X142230022Y-32748152D01*
X142237610Y-32745693D01*
X142245565Y-32746325D01*
X142245565Y-32746325D01*
G37*
X142245565Y-32746325D02*
X142259597Y-32753487D01*
X159850763Y-64943508D01*
X159692612Y-64878000D01*
X159331388Y-64878000D01*
X158997659Y-65016235D01*
X158742235Y-65271659D01*
X158604000Y-65605388D01*
X158604000Y-65966612D01*
X158742235Y-66300341D01*
X158958942Y-66517048D01*
X158475000Y-66517048D01*
X158276788Y-66556475D01*
X158194438Y-66611500D01*
X155262788Y-66611500D01*
X155193999Y-66597817D01*
X155125210Y-66611500D01*
X155125206Y-66611500D01*
X154921459Y-66652028D01*
X154915514Y-66656000D01*
X154759388Y-66656000D01*
X154425659Y-66794235D01*
X154170235Y-67049659D01*
X154032000Y-67383388D01*
X154032000Y-67744612D01*
X154170235Y-68078341D01*
X154425659Y-68333765D01*
X154759388Y-68472000D01*
X155120612Y-68472000D01*
X155454341Y-68333765D01*
X155709765Y-68078341D01*
X155738694Y-68008500D01*
X158194438Y-68008500D01*
X158276788Y-68063525D01*
X158475000Y-68102952D01*
X158907048Y-68102952D01*
X158907048Y-68535000D01*
X158946475Y-68733212D01*
X159058753Y-68901247D01*
X159226002Y-69013000D01*
X156228783Y-69013000D01*
X156212879Y-69016163D01*
X156148242Y-69020400D01*
X156074579Y-69040138D01*
X155998972Y-69050092D01*
X155717433Y-69145662D01*
X155520434Y-69259400D01*
X155296899Y-69455434D01*
X155158421Y-69635902D01*
X155158421Y-69635903D01*
X155026922Y-69902556D01*
X155026921Y-69902558D01*
X154968046Y-70122282D01*
X154948600Y-70418963D01*
X154978291Y-70644492D01*
X154978292Y-70644494D01*
X155038424Y-70821635D01*
X155038121Y-70828268D01*
X155097103Y-70991317D01*
X167528993Y-91569703D01*
X167247659Y-91686235D01*
X166992235Y-91941659D01*
X166854000Y-92275388D01*
X166854000Y-92636612D01*
X166992235Y-92970341D01*
X167208942Y-93187048D01*
X166752422Y-93187048D01*
X166770000Y-93144612D01*
X166770000Y-92783388D01*
X166631765Y-92449659D01*
X166376341Y-92194235D01*
X166042612Y-92056000D01*
X165681388Y-92056000D01*
X165347659Y-92194235D01*
X165276394Y-92265500D01*
X155843904Y-92265500D01*
X155709765Y-91941659D01*
X155454341Y-91686235D01*
X155120612Y-91548000D01*
X154759388Y-91548000D01*
X154425659Y-91686235D01*
X154170235Y-91941659D01*
X154032000Y-92275388D01*
X154032000Y-92636612D01*
X154170235Y-92970341D01*
X154425659Y-93225765D01*
X154759388Y-93364000D01*
X154860172Y-93364000D01*
X154905441Y-93409269D01*
X154944410Y-93467590D01*
X155175459Y-93621972D01*
X155379206Y-93662500D01*
X155379210Y-93662500D01*
X155447999Y-93676183D01*
X155516788Y-93662500D01*
X161672215Y-93662500D01*
X161537659Y-93718235D01*
X161282235Y-93973659D01*
X161144000Y-94307388D01*
X161144000Y-94668612D01*
X161282235Y-95002341D01*
X161537659Y-95257765D01*
X161871388Y-95396000D01*
X162232612Y-95396000D01*
X162566341Y-95257765D01*
X162821765Y-95002341D01*
X162955904Y-94678500D01*
X166449438Y-94678500D01*
X166531788Y-94733525D01*
X166730000Y-94772952D01*
X167162048Y-94772952D01*
X167162048Y-95205000D01*
X167201475Y-95403212D01*
X167313753Y-95571247D01*
X167481788Y-95683525D01*
X167680000Y-95722952D01*
X168230000Y-95722952D01*
X168428212Y-95683525D01*
X168470935Y-95654978D01*
X168516235Y-95764341D01*
X168688894Y-95937000D01*
X163315383Y-95937000D01*
X163295146Y-95941026D01*
X163234842Y-95944978D01*
X163161179Y-95964716D01*
X163085572Y-95974670D01*
X162804033Y-96070240D01*
X162607034Y-96183978D01*
X162383499Y-96380012D01*
X162245021Y-96560480D01*
X162245021Y-96560481D01*
X162113522Y-96827134D01*
X162113521Y-96827136D01*
X162054646Y-97046860D01*
X162035200Y-97343541D01*
X162064891Y-97569070D01*
X162064892Y-97569072D01*
X162123541Y-97741845D01*
X162123445Y-97743422D01*
X162179969Y-97907340D01*
X176302143Y-122098103D01*
X176137659Y-122166235D01*
X175882235Y-122421659D01*
X175744000Y-122755388D01*
X175744000Y-123116612D01*
X175882235Y-123450341D01*
X176098942Y-123667048D01*
X175642422Y-123667048D01*
X175660000Y-123624612D01*
X175660000Y-123263388D01*
X175521765Y-122929659D01*
X175266341Y-122674235D01*
X174932612Y-122536000D01*
X174571388Y-122536000D01*
X174237659Y-122674235D01*
X174166394Y-122745500D01*
X162955904Y-122745500D01*
X162821765Y-122421659D01*
X162566341Y-122166235D01*
X162232612Y-122028000D01*
X161871388Y-122028000D01*
X161537659Y-122166235D01*
X161282235Y-122421659D01*
X161144000Y-122755388D01*
X161144000Y-123116612D01*
X161282235Y-123450341D01*
X161529894Y-123698000D01*
X161282235Y-123945659D01*
X161144000Y-124279388D01*
X161144000Y-124640612D01*
X161282235Y-124974341D01*
X161537659Y-125229765D01*
X161871388Y-125368000D01*
X162232612Y-125368000D01*
X162566341Y-125229765D01*
X162637606Y-125158500D01*
X175339438Y-125158500D01*
X175421788Y-125213525D01*
X175620000Y-125252952D01*
X176052048Y-125252952D01*
X176052048Y-125685000D01*
X176091475Y-125883212D01*
X176203753Y-126051247D01*
X176371788Y-126163525D01*
X176570000Y-126202952D01*
X177120000Y-126202952D01*
X177318212Y-126163525D01*
X177360935Y-126134978D01*
X177406235Y-126244341D01*
X177578894Y-126417000D01*
X144329422Y-126417000D01*
X144207869Y-126392822D01*
X144153504Y-126356496D01*
X144117178Y-126302131D01*
X144093000Y-126180578D01*
X144093000Y-124460000D01*
X147205396Y-124460000D01*
X147310793Y-124989865D01*
X147610937Y-125439063D01*
X148060135Y-125739207D01*
X148456253Y-125818000D01*
X148723747Y-125818000D01*
X149119865Y-125739207D01*
X149569063Y-125439063D01*
X149860000Y-125003644D01*
X150150937Y-125439063D01*
X150600135Y-125739207D01*
X150996253Y-125818000D01*
X151263747Y-125818000D01*
X151659865Y-125739207D01*
X152109063Y-125439063D01*
X152409207Y-124989865D01*
X152514604Y-124460000D01*
X152409207Y-123930135D01*
X152109063Y-123480937D01*
X151659865Y-123180793D01*
X151263747Y-123102000D01*
X150996253Y-123102000D01*
X150600135Y-123180793D01*
X150150937Y-123480937D01*
X149860000Y-123916356D01*
X149569063Y-123480937D01*
X149119865Y-123180793D01*
X148723747Y-123102000D01*
X148456253Y-123102000D01*
X148060135Y-123180793D01*
X147610937Y-123480937D01*
X147310793Y-123930135D01*
X147205396Y-124460000D01*
X144093000Y-124460000D01*
X144093000Y-83762583D01*
X144083044Y-83712532D01*
X144007553Y-83284398D01*
X144007553Y-83284396D01*
X143959471Y-83152294D01*
X143938303Y-83094134D01*
X143938302Y-83094132D01*
X143717768Y-82712159D01*
X143639524Y-82618912D01*
X143587621Y-82557056D01*
X143249748Y-82273547D01*
X143249746Y-82273544D01*
X143074398Y-82172307D01*
X142659931Y-82021453D01*
X142460533Y-81986294D01*
X142019467Y-81986294D01*
X141820069Y-82021453D01*
X141405602Y-82172307D01*
X141230254Y-82273544D01*
X141230252Y-82273547D01*
X140892379Y-82557056D01*
X140840476Y-82618912D01*
X140762232Y-82712159D01*
X140541698Y-83094132D01*
X140541697Y-83094134D01*
X140472447Y-83284397D01*
X140396954Y-83712541D01*
X140387000Y-83762584D01*
X140387001Y-126180573D01*
X140362822Y-126302131D01*
X140326496Y-126356496D01*
X140272131Y-126392822D01*
X140150578Y-126417000D01*
X110579106Y-126417000D01*
X110751765Y-126244341D01*
X110890000Y-125910612D01*
X110890000Y-125549388D01*
X110751765Y-125215659D01*
X110496341Y-124960235D01*
X110162612Y-124822000D01*
X110039262Y-124822000D01*
X109934541Y-124752028D01*
X109730794Y-124711500D01*
X109730790Y-124711500D01*
X109662000Y-124697817D01*
X109593210Y-124711500D01*
X109448327Y-124711500D01*
X109807828Y-124352000D01*
X109908612Y-124352000D01*
X110083912Y-124279388D01*
X135490000Y-124279388D01*
X135490000Y-124640612D01*
X135628235Y-124974341D01*
X135883659Y-125229765D01*
X136217388Y-125368000D01*
X136578612Y-125368000D01*
X136912341Y-125229765D01*
X137167765Y-124974341D01*
X137306000Y-124640612D01*
X137306000Y-124539828D01*
X137351269Y-124494559D01*
X137409590Y-124455590D01*
X137563972Y-124224541D01*
X137604500Y-124020794D01*
X137604500Y-124020790D01*
X137618183Y-123952001D01*
X137604500Y-123883212D01*
X137604500Y-95061670D01*
X137900135Y-95259207D01*
X138296253Y-95338000D01*
X138563747Y-95338000D01*
X138959865Y-95259207D01*
X139409063Y-94959063D01*
X139709207Y-94509865D01*
X139814604Y-93980000D01*
X139709207Y-93450135D01*
X139409063Y-93000937D01*
X138973644Y-92710000D01*
X139409063Y-92419063D01*
X139709207Y-91969865D01*
X139814604Y-91440000D01*
X139709207Y-90910135D01*
X139409063Y-90460937D01*
X138959865Y-90160793D01*
X138563747Y-90082000D01*
X138296253Y-90082000D01*
X137900135Y-90160793D01*
X137450937Y-90460937D01*
X137267370Y-90735665D01*
X137227918Y-90727817D01*
X137159129Y-90741500D01*
X137159125Y-90741500D01*
X136955378Y-90782028D01*
X136724329Y-90936410D01*
X136685358Y-90994734D01*
X136460731Y-91219361D01*
X136402410Y-91258330D01*
X136248028Y-91489379D01*
X136207500Y-91693126D01*
X136207500Y-91693129D01*
X136193817Y-91761919D01*
X136207500Y-91830709D01*
X136207501Y-123556095D01*
X135883659Y-123690235D01*
X135628235Y-123945659D01*
X135490000Y-124279388D01*
X110083912Y-124279388D01*
X110242341Y-124213765D01*
X110497765Y-123958341D01*
X110636000Y-123624612D01*
X110636000Y-123263388D01*
X110497765Y-122929659D01*
X110242341Y-122674235D01*
X109908612Y-122536000D01*
X109547388Y-122536000D01*
X109213659Y-122674235D01*
X108958235Y-122929659D01*
X108820000Y-123263388D01*
X108820000Y-123364172D01*
X108517125Y-123667048D01*
X108310000Y-123667048D01*
X108111788Y-123706475D01*
X107943753Y-123818753D01*
X107831475Y-123986788D01*
X107792048Y-124185000D01*
X107792048Y-124617048D01*
X107360000Y-124617048D01*
X107161788Y-124656475D01*
X107079438Y-124711500D01*
X107068794Y-124711500D01*
X107000000Y-124697816D01*
X106727459Y-124752028D01*
X106565273Y-124860396D01*
X121729500Y-98884639D01*
X121729501Y-122350393D01*
X121658235Y-122421659D01*
X121520000Y-122755388D01*
X121520000Y-123116612D01*
X121658235Y-123450341D01*
X121913659Y-123705765D01*
X122247388Y-123844000D01*
X122608612Y-123844000D01*
X122942341Y-123705765D01*
X123197765Y-123450341D01*
X123336000Y-123116612D01*
X123336000Y-122755388D01*
X123197765Y-122421659D01*
X123126500Y-122350394D01*
X123126500Y-95073606D01*
X123197765Y-95002341D01*
X123336000Y-94668612D01*
X123336000Y-94307388D01*
X123197765Y-93973659D01*
X122942341Y-93718235D01*
X122608612Y-93580000D01*
X122247388Y-93580000D01*
X121913659Y-93718235D01*
X121658235Y-93973659D01*
X121520000Y-94307388D01*
X121520000Y-94668612D01*
X121658235Y-95002341D01*
X121729500Y-95073606D01*
X121729500Y-96097765D01*
X121723070Y-96093469D01*
X121723069Y-96093468D01*
X121595312Y-96040549D01*
X121512911Y-96006417D01*
X121512910Y-96006417D01*
X121334966Y-95971022D01*
X121334675Y-95970827D01*
X121164617Y-95937000D01*
X119469106Y-95937000D01*
X119641765Y-95764341D01*
X119780000Y-95430612D01*
X119780000Y-95069388D01*
X119641765Y-94735659D01*
X119386341Y-94480235D01*
X119052612Y-94342000D01*
X118929262Y-94342000D01*
X118824541Y-94272028D01*
X118620794Y-94231500D01*
X118620790Y-94231500D01*
X118552000Y-94217817D01*
X118483210Y-94231500D01*
X118338327Y-94231500D01*
X118697828Y-93872000D01*
X118798612Y-93872000D01*
X119132341Y-93733765D01*
X119387765Y-93478341D01*
X119526000Y-93144612D01*
X119526000Y-92783388D01*
X119387765Y-92449659D01*
X119132341Y-92194235D01*
X118798612Y-92056000D01*
X118437388Y-92056000D01*
X118103659Y-92194235D01*
X117848235Y-92449659D01*
X117710000Y-92783388D01*
X117710000Y-92884172D01*
X117407125Y-93187048D01*
X117200000Y-93187048D01*
X117001788Y-93226475D01*
X116833753Y-93338753D01*
X116721475Y-93506788D01*
X116682048Y-93705000D01*
X116682048Y-94137048D01*
X116250000Y-94137048D01*
X116051788Y-94176475D01*
X115969438Y-94231500D01*
X115958794Y-94231500D01*
X115890000Y-94217816D01*
X115617459Y-94272028D01*
X115444730Y-94387441D01*
X115444728Y-94387443D01*
X115386410Y-94426410D01*
X115347443Y-94484728D01*
X115236172Y-94596000D01*
X115135388Y-94596000D01*
X115118530Y-94602983D01*
X128841500Y-71887487D01*
X128841501Y-81719202D01*
X128841500Y-81719207D01*
X128841501Y-91870393D01*
X128770235Y-91941659D01*
X128632000Y-92275388D01*
X128632000Y-92636612D01*
X128770235Y-92970341D01*
X129025659Y-93225765D01*
X129359388Y-93364000D01*
X129720612Y-93364000D01*
X130054341Y-93225765D01*
X130309765Y-92970341D01*
X130448000Y-92636612D01*
X130448000Y-92275388D01*
X130309765Y-91941659D01*
X130238500Y-91870394D01*
X130238500Y-68403606D01*
X130309765Y-68332341D01*
X130448000Y-67998612D01*
X130448000Y-67637388D01*
X130309765Y-67303659D01*
X130054341Y-67048235D01*
X129919785Y-66992500D01*
X141654394Y-66992500D01*
X141725659Y-67063765D01*
X142059388Y-67202000D01*
X142420612Y-67202000D01*
X142754341Y-67063765D01*
X143009765Y-66808341D01*
X143148000Y-66474612D01*
X143148000Y-66113388D01*
X143009765Y-65779659D01*
X142754341Y-65524235D01*
X142420612Y-65386000D01*
X142059388Y-65386000D01*
X141725659Y-65524235D01*
X141654394Y-65595500D01*
X126306790Y-65595500D01*
X126238000Y-65581817D01*
X126169210Y-65595500D01*
X126169206Y-65595500D01*
X125965459Y-65636028D01*
X125734410Y-65790410D01*
X125695441Y-65848731D01*
X125027125Y-66517048D01*
X124820000Y-66517048D01*
X124621788Y-66556475D01*
X124453753Y-66668753D01*
X124341475Y-66836788D01*
X124302048Y-67035000D01*
X124302048Y-67467048D01*
X123870000Y-67467048D01*
X123671788Y-67506475D01*
X123589438Y-67561500D01*
X123578794Y-67561500D01*
X123510000Y-67547816D01*
X123237459Y-67602028D01*
X123141300Y-67666279D01*
X142217467Y-32758860D01*
X142230022Y-32748152D01*
X142237610Y-32745693D01*
X142245565Y-32746325D01*
G04 #@! TD*
M02*
