G04 #@! TF.GenerationSoftware,KiCad,Pcbnew,(5.0.2)-1*
G04 #@! TF.CreationDate,2020-06-10T19:39:01-05:00*
G04 #@! TF.ProjectId,Top_Hardware,546f705f-4861-4726-9477-6172652e6b69,rev?*
G04 #@! TF.SameCoordinates,Original*
G04 #@! TF.FileFunction,Soldermask,Top*
G04 #@! TF.FilePolarity,Negative*
%FSLAX46Y46*%
G04 Gerber Fmt 4.6, Leading zero omitted, Abs format (unit mm)*
G04 Created by KiCad (PCBNEW (5.0.2)-1) date 6/10/2020 7:39:01 PM*
%MOMM*%
%LPD*%
G01*
G04 APERTURE LIST*
%ADD10C,0.100000*%
G04 APERTURE END LIST*
D10*
G36*
X108911000Y-125736000D02*
X108259000Y-125736000D01*
X108259000Y-125084000D01*
X108911000Y-125084000D01*
X108911000Y-125736000D01*
X108911000Y-125736000D01*
G37*
G36*
X107961000Y-125736000D02*
X107309000Y-125736000D01*
X107309000Y-125084000D01*
X107961000Y-125084000D01*
X107961000Y-125736000D01*
X107961000Y-125736000D01*
G37*
G36*
X177171000Y-125736000D02*
X176519000Y-125736000D01*
X176519000Y-125084000D01*
X177171000Y-125084000D01*
X177171000Y-125736000D01*
X177171000Y-125736000D01*
G37*
G36*
X176221000Y-125736000D02*
X175569000Y-125736000D01*
X175569000Y-125084000D01*
X176221000Y-125084000D01*
X176221000Y-125736000D01*
X176221000Y-125736000D01*
G37*
G36*
X151240442Y-123565518D02*
X151306627Y-123572037D01*
X151419853Y-123606384D01*
X151476467Y-123623557D01*
X151615087Y-123697652D01*
X151632991Y-123707222D01*
X151668729Y-123736552D01*
X151770186Y-123819814D01*
X151853448Y-123921271D01*
X151882778Y-123957009D01*
X151882779Y-123957011D01*
X151966443Y-124113533D01*
X151966443Y-124113534D01*
X152017963Y-124283373D01*
X152035359Y-124460000D01*
X152017963Y-124636627D01*
X151983616Y-124749853D01*
X151966443Y-124806467D01*
X151892348Y-124945087D01*
X151882778Y-124962991D01*
X151853448Y-124998729D01*
X151770186Y-125100186D01*
X151668729Y-125183448D01*
X151632991Y-125212778D01*
X151632989Y-125212779D01*
X151476467Y-125296443D01*
X151419853Y-125313616D01*
X151306627Y-125347963D01*
X151240442Y-125354482D01*
X151174260Y-125361000D01*
X151085740Y-125361000D01*
X151019558Y-125354482D01*
X150953373Y-125347963D01*
X150840147Y-125313616D01*
X150783533Y-125296443D01*
X150627011Y-125212779D01*
X150627009Y-125212778D01*
X150591271Y-125183448D01*
X150489814Y-125100186D01*
X150406552Y-124998729D01*
X150377222Y-124962991D01*
X150367652Y-124945087D01*
X150293557Y-124806467D01*
X150276384Y-124749853D01*
X150242037Y-124636627D01*
X150224641Y-124460000D01*
X150242037Y-124283373D01*
X150293557Y-124113534D01*
X150293557Y-124113533D01*
X150377221Y-123957011D01*
X150377222Y-123957009D01*
X150406552Y-123921271D01*
X150489814Y-123819814D01*
X150591271Y-123736552D01*
X150627009Y-123707222D01*
X150644913Y-123697652D01*
X150783533Y-123623557D01*
X150840147Y-123606384D01*
X150953373Y-123572037D01*
X151019558Y-123565518D01*
X151085740Y-123559000D01*
X151174260Y-123559000D01*
X151240442Y-123565518D01*
X151240442Y-123565518D01*
G37*
G36*
X148700442Y-123565518D02*
X148766627Y-123572037D01*
X148879853Y-123606384D01*
X148936467Y-123623557D01*
X149075087Y-123697652D01*
X149092991Y-123707222D01*
X149128729Y-123736552D01*
X149230186Y-123819814D01*
X149313448Y-123921271D01*
X149342778Y-123957009D01*
X149342779Y-123957011D01*
X149426443Y-124113533D01*
X149426443Y-124113534D01*
X149477963Y-124283373D01*
X149495359Y-124460000D01*
X149477963Y-124636627D01*
X149443616Y-124749853D01*
X149426443Y-124806467D01*
X149352348Y-124945087D01*
X149342778Y-124962991D01*
X149313448Y-124998729D01*
X149230186Y-125100186D01*
X149128729Y-125183448D01*
X149092991Y-125212778D01*
X149092989Y-125212779D01*
X148936467Y-125296443D01*
X148879853Y-125313616D01*
X148766627Y-125347963D01*
X148700442Y-125354482D01*
X148634260Y-125361000D01*
X148545740Y-125361000D01*
X148479558Y-125354482D01*
X148413373Y-125347963D01*
X148300147Y-125313616D01*
X148243533Y-125296443D01*
X148087011Y-125212779D01*
X148087009Y-125212778D01*
X148051271Y-125183448D01*
X147949814Y-125100186D01*
X147866552Y-124998729D01*
X147837222Y-124962991D01*
X147827652Y-124945087D01*
X147753557Y-124806467D01*
X147736384Y-124749853D01*
X147702037Y-124636627D01*
X147684641Y-124460000D01*
X147702037Y-124283373D01*
X147753557Y-124113534D01*
X147753557Y-124113533D01*
X147837221Y-123957011D01*
X147837222Y-123957009D01*
X147866552Y-123921271D01*
X147949814Y-123819814D01*
X148051271Y-123736552D01*
X148087009Y-123707222D01*
X148104913Y-123697652D01*
X148243533Y-123623557D01*
X148300147Y-123606384D01*
X148413373Y-123572037D01*
X148479558Y-123565518D01*
X148545740Y-123559000D01*
X148634260Y-123559000D01*
X148700442Y-123565518D01*
X148700442Y-123565518D01*
G37*
G36*
X146951000Y-125361000D02*
X145149000Y-125361000D01*
X145149000Y-123559000D01*
X146951000Y-123559000D01*
X146951000Y-125361000D01*
X146951000Y-125361000D01*
G37*
G36*
X177171000Y-124786000D02*
X176519000Y-124786000D01*
X176519000Y-124134000D01*
X177171000Y-124134000D01*
X177171000Y-124786000D01*
X177171000Y-124786000D01*
G37*
G36*
X107961000Y-124786000D02*
X107309000Y-124786000D01*
X107309000Y-124134000D01*
X107961000Y-124134000D01*
X107961000Y-124786000D01*
X107961000Y-124786000D01*
G37*
G36*
X176221000Y-124786000D02*
X175569000Y-124786000D01*
X175569000Y-124134000D01*
X176221000Y-124134000D01*
X176221000Y-124786000D01*
X176221000Y-124786000D01*
G37*
G36*
X108911000Y-124786000D02*
X108259000Y-124786000D01*
X108259000Y-124134000D01*
X108911000Y-124134000D01*
X108911000Y-124786000D01*
X108911000Y-124786000D01*
G37*
G36*
X168281000Y-95256000D02*
X167629000Y-95256000D01*
X167629000Y-94604000D01*
X168281000Y-94604000D01*
X168281000Y-95256000D01*
X168281000Y-95256000D01*
G37*
G36*
X167331000Y-95256000D02*
X166679000Y-95256000D01*
X166679000Y-94604000D01*
X167331000Y-94604000D01*
X167331000Y-95256000D01*
X167331000Y-95256000D01*
G37*
G36*
X117801000Y-95256000D02*
X117149000Y-95256000D01*
X117149000Y-94604000D01*
X117801000Y-94604000D01*
X117801000Y-95256000D01*
X117801000Y-95256000D01*
G37*
G36*
X116851000Y-95256000D02*
X116199000Y-95256000D01*
X116199000Y-94604000D01*
X116851000Y-94604000D01*
X116851000Y-95256000D01*
X116851000Y-95256000D01*
G37*
G36*
X138540443Y-93085519D02*
X138606627Y-93092037D01*
X138719853Y-93126384D01*
X138776467Y-93143557D01*
X138915087Y-93217652D01*
X138932991Y-93227222D01*
X138968729Y-93256552D01*
X139070186Y-93339814D01*
X139153448Y-93441271D01*
X139182778Y-93477009D01*
X139182779Y-93477011D01*
X139266443Y-93633533D01*
X139266443Y-93633534D01*
X139317963Y-93803373D01*
X139335359Y-93980000D01*
X139317963Y-94156627D01*
X139283616Y-94269853D01*
X139266443Y-94326467D01*
X139192348Y-94465087D01*
X139182778Y-94482991D01*
X139153448Y-94518729D01*
X139070186Y-94620186D01*
X138968729Y-94703448D01*
X138932991Y-94732778D01*
X138932989Y-94732779D01*
X138776467Y-94816443D01*
X138719853Y-94833616D01*
X138606627Y-94867963D01*
X138540443Y-94874481D01*
X138474260Y-94881000D01*
X138385740Y-94881000D01*
X138319557Y-94874481D01*
X138253373Y-94867963D01*
X138140147Y-94833616D01*
X138083533Y-94816443D01*
X137927011Y-94732779D01*
X137927009Y-94732778D01*
X137891271Y-94703448D01*
X137789814Y-94620186D01*
X137706552Y-94518729D01*
X137677222Y-94482991D01*
X137667652Y-94465087D01*
X137593557Y-94326467D01*
X137576384Y-94269853D01*
X137542037Y-94156627D01*
X137524641Y-93980000D01*
X137542037Y-93803373D01*
X137593557Y-93633534D01*
X137593557Y-93633533D01*
X137677221Y-93477011D01*
X137677222Y-93477009D01*
X137706552Y-93441271D01*
X137789814Y-93339814D01*
X137891271Y-93256552D01*
X137927009Y-93227222D01*
X137944913Y-93217652D01*
X138083533Y-93143557D01*
X138140147Y-93126384D01*
X138253373Y-93092037D01*
X138319557Y-93085519D01*
X138385740Y-93079000D01*
X138474260Y-93079000D01*
X138540443Y-93085519D01*
X138540443Y-93085519D01*
G37*
G36*
X117801000Y-94306000D02*
X117149000Y-94306000D01*
X117149000Y-93654000D01*
X117801000Y-93654000D01*
X117801000Y-94306000D01*
X117801000Y-94306000D01*
G37*
G36*
X168281000Y-94306000D02*
X167629000Y-94306000D01*
X167629000Y-93654000D01*
X168281000Y-93654000D01*
X168281000Y-94306000D01*
X168281000Y-94306000D01*
G37*
G36*
X167331000Y-94306000D02*
X166679000Y-94306000D01*
X166679000Y-93654000D01*
X167331000Y-93654000D01*
X167331000Y-94306000D01*
X167331000Y-94306000D01*
G37*
G36*
X116851000Y-94306000D02*
X116199000Y-94306000D01*
X116199000Y-93654000D01*
X116851000Y-93654000D01*
X116851000Y-94306000D01*
X116851000Y-94306000D01*
G37*
G36*
X138540443Y-90545519D02*
X138606627Y-90552037D01*
X138719853Y-90586384D01*
X138776467Y-90603557D01*
X138915087Y-90677652D01*
X138932991Y-90687222D01*
X138968729Y-90716552D01*
X139070186Y-90799814D01*
X139153448Y-90901271D01*
X139182778Y-90937009D01*
X139182779Y-90937011D01*
X139266443Y-91093533D01*
X139266443Y-91093534D01*
X139317963Y-91263373D01*
X139335359Y-91440000D01*
X139317963Y-91616627D01*
X139283616Y-91729853D01*
X139266443Y-91786467D01*
X139192348Y-91925087D01*
X139182778Y-91942991D01*
X139153448Y-91978729D01*
X139070186Y-92080186D01*
X138968729Y-92163448D01*
X138932991Y-92192778D01*
X138932989Y-92192779D01*
X138776467Y-92276443D01*
X138719853Y-92293616D01*
X138606627Y-92327963D01*
X138540443Y-92334481D01*
X138474260Y-92341000D01*
X138385740Y-92341000D01*
X138319557Y-92334481D01*
X138253373Y-92327963D01*
X138140147Y-92293616D01*
X138083533Y-92276443D01*
X137927011Y-92192779D01*
X137927009Y-92192778D01*
X137891271Y-92163448D01*
X137789814Y-92080186D01*
X137706552Y-91978729D01*
X137677222Y-91942991D01*
X137667652Y-91925087D01*
X137593557Y-91786467D01*
X137576384Y-91729853D01*
X137542037Y-91616627D01*
X137524641Y-91440000D01*
X137542037Y-91263373D01*
X137593557Y-91093534D01*
X137593557Y-91093533D01*
X137677221Y-90937011D01*
X137677222Y-90937009D01*
X137706552Y-90901271D01*
X137789814Y-90799814D01*
X137891271Y-90716552D01*
X137927009Y-90687222D01*
X137944913Y-90677652D01*
X138083533Y-90603557D01*
X138140147Y-90586384D01*
X138253373Y-90552037D01*
X138319557Y-90545519D01*
X138385740Y-90539000D01*
X138474260Y-90539000D01*
X138540443Y-90545519D01*
X138540443Y-90545519D01*
G37*
G36*
X139331000Y-89801000D02*
X137529000Y-89801000D01*
X137529000Y-87999000D01*
X139331000Y-87999000D01*
X139331000Y-89801000D01*
X139331000Y-89801000D01*
G37*
G36*
X138794499Y-85280445D02*
X138831993Y-85291819D01*
X138866557Y-85310294D01*
X138896847Y-85335153D01*
X138921706Y-85365443D01*
X138940181Y-85400007D01*
X138951555Y-85437501D01*
X138956000Y-85482638D01*
X138956000Y-86221362D01*
X138951555Y-86266499D01*
X138940181Y-86303993D01*
X138921706Y-86338557D01*
X138896847Y-86368847D01*
X138866557Y-86393706D01*
X138831993Y-86412181D01*
X138794499Y-86423555D01*
X138749362Y-86428000D01*
X138110638Y-86428000D01*
X138065501Y-86423555D01*
X138028007Y-86412181D01*
X137993443Y-86393706D01*
X137963153Y-86368847D01*
X137938294Y-86338557D01*
X137919819Y-86303993D01*
X137908445Y-86266499D01*
X137904000Y-86221362D01*
X137904000Y-85482638D01*
X137908445Y-85437501D01*
X137919819Y-85400007D01*
X137938294Y-85365443D01*
X137963153Y-85335153D01*
X137993443Y-85310294D01*
X138028007Y-85291819D01*
X138065501Y-85280445D01*
X138110638Y-85276000D01*
X138749362Y-85276000D01*
X138794499Y-85280445D01*
X138794499Y-85280445D01*
G37*
G36*
X138794499Y-83530445D02*
X138831993Y-83541819D01*
X138866557Y-83560294D01*
X138896847Y-83585153D01*
X138921706Y-83615443D01*
X138940181Y-83650007D01*
X138951555Y-83687501D01*
X138956000Y-83732638D01*
X138956000Y-84471362D01*
X138951555Y-84516499D01*
X138940181Y-84553993D01*
X138921706Y-84588557D01*
X138896847Y-84618847D01*
X138866557Y-84643706D01*
X138831993Y-84662181D01*
X138794499Y-84673555D01*
X138749362Y-84678000D01*
X138110638Y-84678000D01*
X138065501Y-84673555D01*
X138028007Y-84662181D01*
X137993443Y-84643706D01*
X137963153Y-84618847D01*
X137938294Y-84588557D01*
X137919819Y-84553993D01*
X137908445Y-84516499D01*
X137904000Y-84471362D01*
X137904000Y-83732638D01*
X137908445Y-83687501D01*
X137919819Y-83650007D01*
X137938294Y-83615443D01*
X137963153Y-83585153D01*
X137993443Y-83560294D01*
X138028007Y-83541819D01*
X138065501Y-83530445D01*
X138110638Y-83526000D01*
X138749362Y-83526000D01*
X138794499Y-83530445D01*
X138794499Y-83530445D01*
G37*
G36*
X160026000Y-68586000D02*
X159374000Y-68586000D01*
X159374000Y-67934000D01*
X160026000Y-67934000D01*
X160026000Y-68586000D01*
X160026000Y-68586000D01*
G37*
G36*
X159076000Y-68586000D02*
X158424000Y-68586000D01*
X158424000Y-67934000D01*
X159076000Y-67934000D01*
X159076000Y-68586000D01*
X159076000Y-68586000D01*
G37*
G36*
X125421000Y-68586000D02*
X124769000Y-68586000D01*
X124769000Y-67934000D01*
X125421000Y-67934000D01*
X125421000Y-68586000D01*
X125421000Y-68586000D01*
G37*
G36*
X124471000Y-68586000D02*
X123819000Y-68586000D01*
X123819000Y-67934000D01*
X124471000Y-67934000D01*
X124471000Y-68586000D01*
X124471000Y-68586000D01*
G37*
G36*
X124471000Y-67636000D02*
X123819000Y-67636000D01*
X123819000Y-66984000D01*
X124471000Y-66984000D01*
X124471000Y-67636000D01*
X124471000Y-67636000D01*
G37*
G36*
X125421000Y-67636000D02*
X124769000Y-67636000D01*
X124769000Y-66984000D01*
X125421000Y-66984000D01*
X125421000Y-67636000D01*
X125421000Y-67636000D01*
G37*
G36*
X159076000Y-67636000D02*
X158424000Y-67636000D01*
X158424000Y-66984000D01*
X159076000Y-66984000D01*
X159076000Y-67636000D01*
X159076000Y-67636000D01*
G37*
G36*
X160026000Y-67636000D02*
X159374000Y-67636000D01*
X159374000Y-66984000D01*
X160026000Y-66984000D01*
X160026000Y-67636000D01*
X160026000Y-67636000D01*
G37*
M02*
