G04 #@! TF.GenerationSoftware,KiCad,Pcbnew,(5.0.2)-1*
G04 #@! TF.CreationDate,2020-06-10T19:39:01-05:00*
G04 #@! TF.ProjectId,Top_Hardware,546f705f-4861-4726-9477-6172652e6b69,rev?*
G04 #@! TF.SameCoordinates,Original*
G04 #@! TF.FileFunction,Legend,Top*
G04 #@! TF.FilePolarity,Positive*
%FSLAX46Y46*%
G04 Gerber Fmt 4.6, Leading zero omitted, Abs format (unit mm)*
G04 Created by KiCad (PCBNEW (5.0.2)-1) date 6/10/2020 7:39:01 PM*
%MOMM*%
%LPD*%
G01*
G04 APERTURE LIST*
%ADD10C,0.300000*%
%ADD11C,0.120000*%
%ADD12C,0.150000*%
G04 APERTURE END LIST*
D10*
X141990000Y-81958571D02*
X141490000Y-81244285D01*
X141132857Y-81958571D02*
X141132857Y-80458571D01*
X141704285Y-80458571D01*
X141847142Y-80530000D01*
X141918571Y-80601428D01*
X141990000Y-80744285D01*
X141990000Y-80958571D01*
X141918571Y-81101428D01*
X141847142Y-81172857D01*
X141704285Y-81244285D01*
X141132857Y-81244285D01*
X143418571Y-81958571D02*
X142561428Y-81958571D01*
X142990000Y-81958571D02*
X142990000Y-80458571D01*
X142847142Y-80672857D01*
X142704285Y-80815714D01*
X142561428Y-80887142D01*
D11*
G04 #@! TO.C,C1*
X137920000Y-85148267D02*
X137920000Y-84805733D01*
X138940000Y-85148267D02*
X138940000Y-84805733D01*
D12*
G04 #@! TO.C,D1*
X107254000Y-125664000D02*
X107254000Y-125791000D01*
X107254000Y-125791000D02*
X107381000Y-125791000D01*
X107508000Y-125003600D02*
X107635000Y-124876600D01*
X107635000Y-124876600D02*
X107762000Y-125003600D01*
G04 #@! TO.C,D3*
X116144000Y-95184000D02*
X116144000Y-95311000D01*
X116144000Y-95311000D02*
X116271000Y-95311000D01*
X116398000Y-94523600D02*
X116525000Y-94396600D01*
X116525000Y-94396600D02*
X116652000Y-94523600D01*
G04 #@! TO.C,D5*
X123764000Y-68514000D02*
X123764000Y-68641000D01*
X123764000Y-68641000D02*
X123891000Y-68641000D01*
X124018000Y-67853600D02*
X124145000Y-67726600D01*
X124145000Y-67726600D02*
X124272000Y-67853600D01*
G04 #@! TO.C,D7*
X159954000Y-68641000D02*
X160081000Y-68641000D01*
X160081000Y-68641000D02*
X160081000Y-68514000D01*
X159293600Y-68387000D02*
X159166600Y-68260000D01*
X159166600Y-68260000D02*
X159293600Y-68133000D01*
G04 #@! TO.C,D9*
X168209000Y-95311000D02*
X168336000Y-95311000D01*
X168336000Y-95311000D02*
X168336000Y-95184000D01*
X167548600Y-95057000D02*
X167421600Y-94930000D01*
X167421600Y-94930000D02*
X167548600Y-94803000D01*
G04 #@! TO.C,D11*
X177099000Y-125791000D02*
X177226000Y-125791000D01*
X177226000Y-125791000D02*
X177226000Y-125664000D01*
X176438600Y-125537000D02*
X176311600Y-125410000D01*
X176311600Y-125410000D02*
X176438600Y-125283000D01*
G04 #@! TO.C,C1*
X137357142Y-85143666D02*
X137404761Y-85191285D01*
X137452380Y-85334142D01*
X137452380Y-85429380D01*
X137404761Y-85572238D01*
X137309523Y-85667476D01*
X137214285Y-85715095D01*
X137023809Y-85762714D01*
X136880952Y-85762714D01*
X136690476Y-85715095D01*
X136595238Y-85667476D01*
X136500000Y-85572238D01*
X136452380Y-85429380D01*
X136452380Y-85334142D01*
X136500000Y-85191285D01*
X136547619Y-85143666D01*
X137452380Y-84191285D02*
X137452380Y-84762714D01*
X137452380Y-84477000D02*
X136452380Y-84477000D01*
X136595238Y-84572238D01*
X136690476Y-84667476D01*
X136738095Y-84762714D01*
G04 #@! TO.C,D1*
X108989904Y-122372380D02*
X108989904Y-121372380D01*
X109228000Y-121372380D01*
X109370857Y-121420000D01*
X109466095Y-121515238D01*
X109513714Y-121610476D01*
X109561333Y-121800952D01*
X109561333Y-121943809D01*
X109513714Y-122134285D01*
X109466095Y-122229523D01*
X109370857Y-122324761D01*
X109228000Y-122372380D01*
X108989904Y-122372380D01*
X110513714Y-122372380D02*
X109942285Y-122372380D01*
X110228000Y-122372380D02*
X110228000Y-121372380D01*
X110132761Y-121515238D01*
X110037523Y-121610476D01*
X109942285Y-121658095D01*
G04 #@! TO.C,D3*
X117879904Y-91892380D02*
X117879904Y-90892380D01*
X118118000Y-90892380D01*
X118260857Y-90940000D01*
X118356095Y-91035238D01*
X118403714Y-91130476D01*
X118451333Y-91320952D01*
X118451333Y-91463809D01*
X118403714Y-91654285D01*
X118356095Y-91749523D01*
X118260857Y-91844761D01*
X118118000Y-91892380D01*
X117879904Y-91892380D01*
X118784666Y-90892380D02*
X119403714Y-90892380D01*
X119070380Y-91273333D01*
X119213238Y-91273333D01*
X119308476Y-91320952D01*
X119356095Y-91368571D01*
X119403714Y-91463809D01*
X119403714Y-91701904D01*
X119356095Y-91797142D01*
X119308476Y-91844761D01*
X119213238Y-91892380D01*
X118927523Y-91892380D01*
X118832285Y-91844761D01*
X118784666Y-91797142D01*
G04 #@! TO.C,D5*
X125499904Y-66492380D02*
X125499904Y-65492380D01*
X125738000Y-65492380D01*
X125880857Y-65540000D01*
X125976095Y-65635238D01*
X126023714Y-65730476D01*
X126071333Y-65920952D01*
X126071333Y-66063809D01*
X126023714Y-66254285D01*
X125976095Y-66349523D01*
X125880857Y-66444761D01*
X125738000Y-66492380D01*
X125499904Y-66492380D01*
X126976095Y-65492380D02*
X126499904Y-65492380D01*
X126452285Y-65968571D01*
X126499904Y-65920952D01*
X126595142Y-65873333D01*
X126833238Y-65873333D01*
X126928476Y-65920952D01*
X126976095Y-65968571D01*
X127023714Y-66063809D01*
X127023714Y-66301904D01*
X126976095Y-66397142D01*
X126928476Y-66444761D01*
X126833238Y-66492380D01*
X126595142Y-66492380D01*
X126499904Y-66444761D01*
X126452285Y-66397142D01*
G04 #@! TO.C,D7*
X157249904Y-66238380D02*
X157249904Y-65238380D01*
X157488000Y-65238380D01*
X157630857Y-65286000D01*
X157726095Y-65381238D01*
X157773714Y-65476476D01*
X157821333Y-65666952D01*
X157821333Y-65809809D01*
X157773714Y-66000285D01*
X157726095Y-66095523D01*
X157630857Y-66190761D01*
X157488000Y-66238380D01*
X157249904Y-66238380D01*
X158154666Y-65238380D02*
X158821333Y-65238380D01*
X158392761Y-66238380D01*
G04 #@! TO.C,D9*
X165377904Y-92146380D02*
X165377904Y-91146380D01*
X165616000Y-91146380D01*
X165758857Y-91194000D01*
X165854095Y-91289238D01*
X165901714Y-91384476D01*
X165949333Y-91574952D01*
X165949333Y-91717809D01*
X165901714Y-91908285D01*
X165854095Y-92003523D01*
X165758857Y-92098761D01*
X165616000Y-92146380D01*
X165377904Y-92146380D01*
X166425523Y-92146380D02*
X166616000Y-92146380D01*
X166711238Y-92098761D01*
X166758857Y-92051142D01*
X166854095Y-91908285D01*
X166901714Y-91717809D01*
X166901714Y-91336857D01*
X166854095Y-91241619D01*
X166806476Y-91194000D01*
X166711238Y-91146380D01*
X166520761Y-91146380D01*
X166425523Y-91194000D01*
X166377904Y-91241619D01*
X166330285Y-91336857D01*
X166330285Y-91574952D01*
X166377904Y-91670190D01*
X166425523Y-91717809D01*
X166520761Y-91765428D01*
X166711238Y-91765428D01*
X166806476Y-91717809D01*
X166854095Y-91670190D01*
X166901714Y-91574952D01*
G04 #@! TO.C,D11*
X173029714Y-122372380D02*
X173029714Y-121372380D01*
X173267809Y-121372380D01*
X173410666Y-121420000D01*
X173505904Y-121515238D01*
X173553523Y-121610476D01*
X173601142Y-121800952D01*
X173601142Y-121943809D01*
X173553523Y-122134285D01*
X173505904Y-122229523D01*
X173410666Y-122324761D01*
X173267809Y-122372380D01*
X173029714Y-122372380D01*
X174553523Y-122372380D02*
X173982095Y-122372380D01*
X174267809Y-122372380D02*
X174267809Y-121372380D01*
X174172571Y-121515238D01*
X174077333Y-121610476D01*
X173982095Y-121658095D01*
X175505904Y-122372380D02*
X174934476Y-122372380D01*
X175220190Y-122372380D02*
X175220190Y-121372380D01*
X175124952Y-121515238D01*
X175029714Y-121610476D01*
X174934476Y-121658095D01*
G04 #@! TD*
M02*
