G04 #@! TF.GenerationSoftware,KiCad,Pcbnew,(5.0.2)-1*
G04 #@! TF.CreationDate,2020-06-10T19:39:16-05:00*
G04 #@! TF.ProjectId,Base_Hardware,42617365-5f48-4617-9264-776172652e6b,rev?*
G04 #@! TF.SameCoordinates,Original*
G04 #@! TF.FileFunction,Legend,Bot*
G04 #@! TF.FilePolarity,Positive*
%FSLAX46Y46*%
G04 Gerber Fmt 4.6, Leading zero omitted, Abs format (unit mm)*
G04 Created by KiCad (PCBNEW (5.0.2)-1) date 6/10/2020 7:39:16 PM*
%MOMM*%
%LPD*%
G01*
G04 APERTURE LIST*
%ADD10C,0.150000*%
G04 APERTURE END LIST*
D10*
G04 #@! TO.C,D2*
X175199000Y-124206000D02*
X175199000Y-124079000D01*
X175199000Y-124079000D02*
X175326000Y-124079000D01*
X175453000Y-124866400D02*
X175580000Y-124993400D01*
X175580000Y-124993400D02*
X175707000Y-124866400D01*
G04 #@! TO.C,D5*
X166309000Y-93715800D02*
X166309000Y-93588800D01*
X166309000Y-93588800D02*
X166436000Y-93588800D01*
X166563000Y-94376200D02*
X166690000Y-94503200D01*
X166690000Y-94503200D02*
X166817000Y-94376200D01*
G04 #@! TO.C,D8*
X159070000Y-67843400D02*
X159197000Y-67716400D01*
X158943000Y-67716400D02*
X159070000Y-67843400D01*
X158689000Y-66929000D02*
X158816000Y-66929000D01*
X158689000Y-67056000D02*
X158689000Y-66929000D01*
G04 #@! TO.C,D10*
X125653800Y-66939200D02*
X125780800Y-66939200D01*
X125780800Y-66939200D02*
X125780800Y-67066200D01*
X124993400Y-67193200D02*
X124866400Y-67320200D01*
X124866400Y-67320200D02*
X124993400Y-67447200D01*
G04 #@! TO.C,D12*
X117322600Y-93980000D02*
X117449600Y-94107000D01*
X117449600Y-93853000D02*
X117322600Y-93980000D01*
X118237000Y-93599000D02*
X118237000Y-93726000D01*
X118110000Y-93599000D02*
X118237000Y-93599000D01*
G04 #@! TO.C,D13*
X107508000Y-125791000D02*
X107381000Y-125791000D01*
X107381000Y-125791000D02*
X107381000Y-125664000D01*
X108168400Y-125537000D02*
X108295400Y-125410000D01*
X108295400Y-125410000D02*
X108168400Y-125283000D01*
G04 #@! TO.C,D2*
X175744095Y-122880380D02*
X175744095Y-121880380D01*
X175506000Y-121880380D01*
X175363142Y-121928000D01*
X175267904Y-122023238D01*
X175220285Y-122118476D01*
X175172666Y-122308952D01*
X175172666Y-122451809D01*
X175220285Y-122642285D01*
X175267904Y-122737523D01*
X175363142Y-122832761D01*
X175506000Y-122880380D01*
X175744095Y-122880380D01*
X174791714Y-121975619D02*
X174744095Y-121928000D01*
X174648857Y-121880380D01*
X174410761Y-121880380D01*
X174315523Y-121928000D01*
X174267904Y-121975619D01*
X174220285Y-122070857D01*
X174220285Y-122166095D01*
X174267904Y-122308952D01*
X174839333Y-122880380D01*
X174220285Y-122880380D01*
G04 #@! TO.C,D5*
X166854095Y-92400380D02*
X166854095Y-91400380D01*
X166616000Y-91400380D01*
X166473142Y-91448000D01*
X166377904Y-91543238D01*
X166330285Y-91638476D01*
X166282666Y-91828952D01*
X166282666Y-91971809D01*
X166330285Y-92162285D01*
X166377904Y-92257523D01*
X166473142Y-92352761D01*
X166616000Y-92400380D01*
X166854095Y-92400380D01*
X165377904Y-91400380D02*
X165854095Y-91400380D01*
X165901714Y-91876571D01*
X165854095Y-91828952D01*
X165758857Y-91781333D01*
X165520761Y-91781333D01*
X165425523Y-91828952D01*
X165377904Y-91876571D01*
X165330285Y-91971809D01*
X165330285Y-92209904D01*
X165377904Y-92305142D01*
X165425523Y-92352761D01*
X165520761Y-92400380D01*
X165758857Y-92400380D01*
X165854095Y-92352761D01*
X165901714Y-92305142D01*
G04 #@! TO.C,D8*
X158726095Y-66238380D02*
X158726095Y-65238380D01*
X158488000Y-65238380D01*
X158345142Y-65286000D01*
X158249904Y-65381238D01*
X158202285Y-65476476D01*
X158154666Y-65666952D01*
X158154666Y-65809809D01*
X158202285Y-66000285D01*
X158249904Y-66095523D01*
X158345142Y-66190761D01*
X158488000Y-66238380D01*
X158726095Y-66238380D01*
X157583238Y-65666952D02*
X157678476Y-65619333D01*
X157726095Y-65571714D01*
X157773714Y-65476476D01*
X157773714Y-65428857D01*
X157726095Y-65333619D01*
X157678476Y-65286000D01*
X157583238Y-65238380D01*
X157392761Y-65238380D01*
X157297523Y-65286000D01*
X157249904Y-65333619D01*
X157202285Y-65428857D01*
X157202285Y-65476476D01*
X157249904Y-65571714D01*
X157297523Y-65619333D01*
X157392761Y-65666952D01*
X157583238Y-65666952D01*
X157678476Y-65714571D01*
X157726095Y-65762190D01*
X157773714Y-65857428D01*
X157773714Y-66047904D01*
X157726095Y-66143142D01*
X157678476Y-66190761D01*
X157583238Y-66238380D01*
X157392761Y-66238380D01*
X157297523Y-66190761D01*
X157249904Y-66143142D01*
X157202285Y-66047904D01*
X157202285Y-65857428D01*
X157249904Y-65762190D01*
X157297523Y-65714571D01*
X157392761Y-65666952D01*
G04 #@! TO.C,D10*
X127452285Y-65730380D02*
X127452285Y-64730380D01*
X127214190Y-64730380D01*
X127071333Y-64778000D01*
X126976095Y-64873238D01*
X126928476Y-64968476D01*
X126880857Y-65158952D01*
X126880857Y-65301809D01*
X126928476Y-65492285D01*
X126976095Y-65587523D01*
X127071333Y-65682761D01*
X127214190Y-65730380D01*
X127452285Y-65730380D01*
X125928476Y-65730380D02*
X126499904Y-65730380D01*
X126214190Y-65730380D02*
X126214190Y-64730380D01*
X126309428Y-64873238D01*
X126404666Y-64968476D01*
X126499904Y-65016095D01*
X125309428Y-64730380D02*
X125214190Y-64730380D01*
X125118952Y-64778000D01*
X125071333Y-64825619D01*
X125023714Y-64920857D01*
X124976095Y-65111333D01*
X124976095Y-65349428D01*
X125023714Y-65539904D01*
X125071333Y-65635142D01*
X125118952Y-65682761D01*
X125214190Y-65730380D01*
X125309428Y-65730380D01*
X125404666Y-65682761D01*
X125452285Y-65635142D01*
X125499904Y-65539904D01*
X125547523Y-65349428D01*
X125547523Y-65111333D01*
X125499904Y-64920857D01*
X125452285Y-64825619D01*
X125404666Y-64778000D01*
X125309428Y-64730380D01*
G04 #@! TO.C,D12*
X120086285Y-92146380D02*
X120086285Y-91146380D01*
X119848190Y-91146380D01*
X119705333Y-91194000D01*
X119610095Y-91289238D01*
X119562476Y-91384476D01*
X119514857Y-91574952D01*
X119514857Y-91717809D01*
X119562476Y-91908285D01*
X119610095Y-92003523D01*
X119705333Y-92098761D01*
X119848190Y-92146380D01*
X120086285Y-92146380D01*
X118562476Y-92146380D02*
X119133904Y-92146380D01*
X118848190Y-92146380D02*
X118848190Y-91146380D01*
X118943428Y-91289238D01*
X119038666Y-91384476D01*
X119133904Y-91432095D01*
X118181523Y-91241619D02*
X118133904Y-91194000D01*
X118038666Y-91146380D01*
X117800571Y-91146380D01*
X117705333Y-91194000D01*
X117657714Y-91241619D01*
X117610095Y-91336857D01*
X117610095Y-91432095D01*
X117657714Y-91574952D01*
X118229142Y-92146380D01*
X117610095Y-92146380D01*
G04 #@! TO.C,D13*
X110180285Y-123642380D02*
X110180285Y-122642380D01*
X109942190Y-122642380D01*
X109799333Y-122690000D01*
X109704095Y-122785238D01*
X109656476Y-122880476D01*
X109608857Y-123070952D01*
X109608857Y-123213809D01*
X109656476Y-123404285D01*
X109704095Y-123499523D01*
X109799333Y-123594761D01*
X109942190Y-123642380D01*
X110180285Y-123642380D01*
X108656476Y-123642380D02*
X109227904Y-123642380D01*
X108942190Y-123642380D02*
X108942190Y-122642380D01*
X109037428Y-122785238D01*
X109132666Y-122880476D01*
X109227904Y-122928095D01*
X108323142Y-122642380D02*
X107704095Y-122642380D01*
X108037428Y-123023333D01*
X107894571Y-123023333D01*
X107799333Y-123070952D01*
X107751714Y-123118571D01*
X107704095Y-123213809D01*
X107704095Y-123451904D01*
X107751714Y-123547142D01*
X107799333Y-123594761D01*
X107894571Y-123642380D01*
X108180285Y-123642380D01*
X108275523Y-123594761D01*
X108323142Y-123547142D01*
G04 #@! TD*
M02*
