M48
;DRILL file {KiCad (5.0.2)-1} date 6/10/2020 7:39:18 PM
;FORMAT={-:-/ absolute / inch / decimal}
FMAT,2
INCH,TZ
T1C0.0157
T2C0.0394
T3C0.0400
%
G90
G05
T1
X4.33Y-4.94
X4.5195Y-4.68
X4.5195Y-4.85
X4.5528Y-3.7502
X4.6128Y-3.6502
X4.63Y-4.5878
X4.68Y-3.66
X4.6928Y-3.7502
X4.74Y-4.87
X4.82Y-3.72
X4.82Y-4.49
X4.85Y-2.7
X4.86Y-4.49
X4.88Y-3.7
X4.91Y-2.6
X4.98Y-2.61
X4.99Y-2.7
X5.08Y-3.66
X5.09Y-4.9
X5.1Y-2.67
X5.49Y-2.61
X5.71Y-2.61
X5.78Y-4.33
X6.05Y-4.7772
X6.1Y-2.67
X6.1Y-3.64
X6.2Y-2.7
X6.2Y-4.03
X6.22Y-4.51
X6.29Y-2.59
X6.29Y-4.1915
X6.29Y-4.88
X6.35Y-2.71
X6.38Y-3.72
X6.38Y-4.84
X6.5Y-3.66
X6.5Y-3.75
X6.59Y-3.64
X6.65Y-3.76
X6.85Y-4.86
X6.85Y-4.95
X6.94Y-4.84
X7.Y-4.96
T2
X5.45Y-3.5
X5.45Y-3.6
X5.45Y-3.7
T3
X5.2Y-4.1
X5.2Y-4.2
X5.2Y-4.3
X5.3Y-4.1
X5.3Y-4.2
X5.3Y-4.3
T0
M30
