G04 #@! TF.GenerationSoftware,KiCad,Pcbnew,(5.0.2)-1*
G04 #@! TF.CreationDate,2020-06-10T19:39:16-05:00*
G04 #@! TF.ProjectId,Base_Hardware,42617365-5f48-4617-9264-776172652e6b,rev?*
G04 #@! TF.SameCoordinates,Original*
G04 #@! TF.FileFunction,Copper,L1,Top*
G04 #@! TF.FilePolarity,Positive*
%FSLAX46Y46*%
G04 Gerber Fmt 4.6, Leading zero omitted, Abs format (unit mm)*
G04 Created by KiCad (PCBNEW (5.0.2)-1) date 6/10/2020 7:39:16 PM*
%MOMM*%
%LPD*%
G01*
G04 APERTURE LIST*
G04 #@! TA.AperFunction,Conductor*
%ADD10C,0.100000*%
G04 #@! TD*
G04 #@! TA.AperFunction,SMDPad,CuDef*
%ADD11C,0.950000*%
G04 #@! TD*
G04 #@! TA.AperFunction,SMDPad,CuDef*
%ADD12R,2.300000X0.500000*%
G04 #@! TD*
G04 #@! TA.AperFunction,SMDPad,CuDef*
%ADD13R,2.500000X2.000000*%
G04 #@! TD*
G04 #@! TA.AperFunction,ComponentPad*
%ADD14R,1.727200X1.727200*%
G04 #@! TD*
G04 #@! TA.AperFunction,ComponentPad*
%ADD15O,1.727200X1.727200*%
G04 #@! TD*
G04 #@! TA.AperFunction,SMDPad,CuDef*
%ADD16R,1.550000X1.300000*%
G04 #@! TD*
G04 #@! TA.AperFunction,SMDPad,CuDef*
%ADD17R,1.700000X0.650000*%
G04 #@! TD*
G04 #@! TA.AperFunction,SMDPad,CuDef*
%ADD18R,0.550000X0.550000*%
G04 #@! TD*
G04 #@! TA.AperFunction,ComponentPad*
%ADD19R,1.700000X1.700000*%
G04 #@! TD*
G04 #@! TA.AperFunction,ComponentPad*
%ADD20O,1.700000X1.700000*%
G04 #@! TD*
G04 #@! TA.AperFunction,ViaPad*
%ADD21C,0.800000*%
G04 #@! TD*
G04 #@! TA.AperFunction,Conductor*
%ADD22C,0.381000*%
G04 #@! TD*
G04 #@! TA.AperFunction,Conductor*
%ADD23C,0.762000*%
G04 #@! TD*
G04 #@! TA.AperFunction,Conductor*
%ADD24C,0.254000*%
G04 #@! TD*
G04 APERTURE END LIST*
D10*
G04 #@! TO.N,+5V*
G04 #@! TO.C,C1*
G36*
X150490779Y-109508144D02*
X150513834Y-109511563D01*
X150536443Y-109517227D01*
X150558387Y-109525079D01*
X150579457Y-109535044D01*
X150599448Y-109547026D01*
X150618168Y-109560910D01*
X150635438Y-109576562D01*
X150651090Y-109593832D01*
X150664974Y-109612552D01*
X150676956Y-109632543D01*
X150686921Y-109653613D01*
X150694773Y-109675557D01*
X150700437Y-109698166D01*
X150703856Y-109721221D01*
X150705000Y-109744500D01*
X150705000Y-110219500D01*
X150703856Y-110242779D01*
X150700437Y-110265834D01*
X150694773Y-110288443D01*
X150686921Y-110310387D01*
X150676956Y-110331457D01*
X150664974Y-110351448D01*
X150651090Y-110370168D01*
X150635438Y-110387438D01*
X150618168Y-110403090D01*
X150599448Y-110416974D01*
X150579457Y-110428956D01*
X150558387Y-110438921D01*
X150536443Y-110446773D01*
X150513834Y-110452437D01*
X150490779Y-110455856D01*
X150467500Y-110457000D01*
X149892500Y-110457000D01*
X149869221Y-110455856D01*
X149846166Y-110452437D01*
X149823557Y-110446773D01*
X149801613Y-110438921D01*
X149780543Y-110428956D01*
X149760552Y-110416974D01*
X149741832Y-110403090D01*
X149724562Y-110387438D01*
X149708910Y-110370168D01*
X149695026Y-110351448D01*
X149683044Y-110331457D01*
X149673079Y-110310387D01*
X149665227Y-110288443D01*
X149659563Y-110265834D01*
X149656144Y-110242779D01*
X149655000Y-110219500D01*
X149655000Y-109744500D01*
X149656144Y-109721221D01*
X149659563Y-109698166D01*
X149665227Y-109675557D01*
X149673079Y-109653613D01*
X149683044Y-109632543D01*
X149695026Y-109612552D01*
X149708910Y-109593832D01*
X149724562Y-109576562D01*
X149741832Y-109560910D01*
X149760552Y-109547026D01*
X149780543Y-109535044D01*
X149801613Y-109525079D01*
X149823557Y-109517227D01*
X149846166Y-109511563D01*
X149869221Y-109508144D01*
X149892500Y-109507000D01*
X150467500Y-109507000D01*
X150490779Y-109508144D01*
X150490779Y-109508144D01*
G37*
D11*
G04 #@! TD*
G04 #@! TO.P,C1,1*
G04 #@! TO.N,+5V*
X150180000Y-109982000D03*
D10*
G04 #@! TO.N,GND*
G04 #@! TO.C,C1*
G36*
X148740779Y-109508144D02*
X148763834Y-109511563D01*
X148786443Y-109517227D01*
X148808387Y-109525079D01*
X148829457Y-109535044D01*
X148849448Y-109547026D01*
X148868168Y-109560910D01*
X148885438Y-109576562D01*
X148901090Y-109593832D01*
X148914974Y-109612552D01*
X148926956Y-109632543D01*
X148936921Y-109653613D01*
X148944773Y-109675557D01*
X148950437Y-109698166D01*
X148953856Y-109721221D01*
X148955000Y-109744500D01*
X148955000Y-110219500D01*
X148953856Y-110242779D01*
X148950437Y-110265834D01*
X148944773Y-110288443D01*
X148936921Y-110310387D01*
X148926956Y-110331457D01*
X148914974Y-110351448D01*
X148901090Y-110370168D01*
X148885438Y-110387438D01*
X148868168Y-110403090D01*
X148849448Y-110416974D01*
X148829457Y-110428956D01*
X148808387Y-110438921D01*
X148786443Y-110446773D01*
X148763834Y-110452437D01*
X148740779Y-110455856D01*
X148717500Y-110457000D01*
X148142500Y-110457000D01*
X148119221Y-110455856D01*
X148096166Y-110452437D01*
X148073557Y-110446773D01*
X148051613Y-110438921D01*
X148030543Y-110428956D01*
X148010552Y-110416974D01*
X147991832Y-110403090D01*
X147974562Y-110387438D01*
X147958910Y-110370168D01*
X147945026Y-110351448D01*
X147933044Y-110331457D01*
X147923079Y-110310387D01*
X147915227Y-110288443D01*
X147909563Y-110265834D01*
X147906144Y-110242779D01*
X147905000Y-110219500D01*
X147905000Y-109744500D01*
X147906144Y-109721221D01*
X147909563Y-109698166D01*
X147915227Y-109675557D01*
X147923079Y-109653613D01*
X147933044Y-109632543D01*
X147945026Y-109612552D01*
X147958910Y-109593832D01*
X147974562Y-109576562D01*
X147991832Y-109560910D01*
X148010552Y-109547026D01*
X148030543Y-109535044D01*
X148051613Y-109525079D01*
X148073557Y-109517227D01*
X148096166Y-109511563D01*
X148119221Y-109508144D01*
X148142500Y-109507000D01*
X148717500Y-109507000D01*
X148740779Y-109508144D01*
X148740779Y-109508144D01*
G37*
D11*
G04 #@! TD*
G04 #@! TO.P,C1,2*
G04 #@! TO.N,GND*
X148430000Y-109982000D03*
D10*
G04 #@! TO.N,GND*
G04 #@! TO.C,D3*
G36*
X131656779Y-123986144D02*
X131679834Y-123989563D01*
X131702443Y-123995227D01*
X131724387Y-124003079D01*
X131745457Y-124013044D01*
X131765448Y-124025026D01*
X131784168Y-124038910D01*
X131801438Y-124054562D01*
X131817090Y-124071832D01*
X131830974Y-124090552D01*
X131842956Y-124110543D01*
X131852921Y-124131613D01*
X131860773Y-124153557D01*
X131866437Y-124176166D01*
X131869856Y-124199221D01*
X131871000Y-124222500D01*
X131871000Y-124697500D01*
X131869856Y-124720779D01*
X131866437Y-124743834D01*
X131860773Y-124766443D01*
X131852921Y-124788387D01*
X131842956Y-124809457D01*
X131830974Y-124829448D01*
X131817090Y-124848168D01*
X131801438Y-124865438D01*
X131784168Y-124881090D01*
X131765448Y-124894974D01*
X131745457Y-124906956D01*
X131724387Y-124916921D01*
X131702443Y-124924773D01*
X131679834Y-124930437D01*
X131656779Y-124933856D01*
X131633500Y-124935000D01*
X131058500Y-124935000D01*
X131035221Y-124933856D01*
X131012166Y-124930437D01*
X130989557Y-124924773D01*
X130967613Y-124916921D01*
X130946543Y-124906956D01*
X130926552Y-124894974D01*
X130907832Y-124881090D01*
X130890562Y-124865438D01*
X130874910Y-124848168D01*
X130861026Y-124829448D01*
X130849044Y-124809457D01*
X130839079Y-124788387D01*
X130831227Y-124766443D01*
X130825563Y-124743834D01*
X130822144Y-124720779D01*
X130821000Y-124697500D01*
X130821000Y-124222500D01*
X130822144Y-124199221D01*
X130825563Y-124176166D01*
X130831227Y-124153557D01*
X130839079Y-124131613D01*
X130849044Y-124110543D01*
X130861026Y-124090552D01*
X130874910Y-124071832D01*
X130890562Y-124054562D01*
X130907832Y-124038910D01*
X130926552Y-124025026D01*
X130946543Y-124013044D01*
X130967613Y-124003079D01*
X130989557Y-123995227D01*
X131012166Y-123989563D01*
X131035221Y-123986144D01*
X131058500Y-123985000D01*
X131633500Y-123985000D01*
X131656779Y-123986144D01*
X131656779Y-123986144D01*
G37*
D11*
G04 #@! TD*
G04 #@! TO.P,D3,1*
G04 #@! TO.N,GND*
X131346000Y-124460000D03*
D10*
G04 #@! TO.N,Net-(D3-Pad2)*
G04 #@! TO.C,D3*
G36*
X133406779Y-123986144D02*
X133429834Y-123989563D01*
X133452443Y-123995227D01*
X133474387Y-124003079D01*
X133495457Y-124013044D01*
X133515448Y-124025026D01*
X133534168Y-124038910D01*
X133551438Y-124054562D01*
X133567090Y-124071832D01*
X133580974Y-124090552D01*
X133592956Y-124110543D01*
X133602921Y-124131613D01*
X133610773Y-124153557D01*
X133616437Y-124176166D01*
X133619856Y-124199221D01*
X133621000Y-124222500D01*
X133621000Y-124697500D01*
X133619856Y-124720779D01*
X133616437Y-124743834D01*
X133610773Y-124766443D01*
X133602921Y-124788387D01*
X133592956Y-124809457D01*
X133580974Y-124829448D01*
X133567090Y-124848168D01*
X133551438Y-124865438D01*
X133534168Y-124881090D01*
X133515448Y-124894974D01*
X133495457Y-124906956D01*
X133474387Y-124916921D01*
X133452443Y-124924773D01*
X133429834Y-124930437D01*
X133406779Y-124933856D01*
X133383500Y-124935000D01*
X132808500Y-124935000D01*
X132785221Y-124933856D01*
X132762166Y-124930437D01*
X132739557Y-124924773D01*
X132717613Y-124916921D01*
X132696543Y-124906956D01*
X132676552Y-124894974D01*
X132657832Y-124881090D01*
X132640562Y-124865438D01*
X132624910Y-124848168D01*
X132611026Y-124829448D01*
X132599044Y-124809457D01*
X132589079Y-124788387D01*
X132581227Y-124766443D01*
X132575563Y-124743834D01*
X132572144Y-124720779D01*
X132571000Y-124697500D01*
X132571000Y-124222500D01*
X132572144Y-124199221D01*
X132575563Y-124176166D01*
X132581227Y-124153557D01*
X132589079Y-124131613D01*
X132599044Y-124110543D01*
X132611026Y-124090552D01*
X132624910Y-124071832D01*
X132640562Y-124054562D01*
X132657832Y-124038910D01*
X132676552Y-124025026D01*
X132696543Y-124013044D01*
X132717613Y-124003079D01*
X132739557Y-123995227D01*
X132762166Y-123989563D01*
X132785221Y-123986144D01*
X132808500Y-123985000D01*
X133383500Y-123985000D01*
X133406779Y-123986144D01*
X133406779Y-123986144D01*
G37*
D11*
G04 #@! TD*
G04 #@! TO.P,D3,2*
G04 #@! TO.N,Net-(D3-Pad2)*
X133096000Y-124460000D03*
D10*
G04 #@! TO.N,Net-(D6-Pad2)*
G04 #@! TO.C,D6*
G36*
X154996779Y-114080144D02*
X155019834Y-114083563D01*
X155042443Y-114089227D01*
X155064387Y-114097079D01*
X155085457Y-114107044D01*
X155105448Y-114119026D01*
X155124168Y-114132910D01*
X155141438Y-114148562D01*
X155157090Y-114165832D01*
X155170974Y-114184552D01*
X155182956Y-114204543D01*
X155192921Y-114225613D01*
X155200773Y-114247557D01*
X155206437Y-114270166D01*
X155209856Y-114293221D01*
X155211000Y-114316500D01*
X155211000Y-114791500D01*
X155209856Y-114814779D01*
X155206437Y-114837834D01*
X155200773Y-114860443D01*
X155192921Y-114882387D01*
X155182956Y-114903457D01*
X155170974Y-114923448D01*
X155157090Y-114942168D01*
X155141438Y-114959438D01*
X155124168Y-114975090D01*
X155105448Y-114988974D01*
X155085457Y-115000956D01*
X155064387Y-115010921D01*
X155042443Y-115018773D01*
X155019834Y-115024437D01*
X154996779Y-115027856D01*
X154973500Y-115029000D01*
X154398500Y-115029000D01*
X154375221Y-115027856D01*
X154352166Y-115024437D01*
X154329557Y-115018773D01*
X154307613Y-115010921D01*
X154286543Y-115000956D01*
X154266552Y-114988974D01*
X154247832Y-114975090D01*
X154230562Y-114959438D01*
X154214910Y-114942168D01*
X154201026Y-114923448D01*
X154189044Y-114903457D01*
X154179079Y-114882387D01*
X154171227Y-114860443D01*
X154165563Y-114837834D01*
X154162144Y-114814779D01*
X154161000Y-114791500D01*
X154161000Y-114316500D01*
X154162144Y-114293221D01*
X154165563Y-114270166D01*
X154171227Y-114247557D01*
X154179079Y-114225613D01*
X154189044Y-114204543D01*
X154201026Y-114184552D01*
X154214910Y-114165832D01*
X154230562Y-114148562D01*
X154247832Y-114132910D01*
X154266552Y-114119026D01*
X154286543Y-114107044D01*
X154307613Y-114097079D01*
X154329557Y-114089227D01*
X154352166Y-114083563D01*
X154375221Y-114080144D01*
X154398500Y-114079000D01*
X154973500Y-114079000D01*
X154996779Y-114080144D01*
X154996779Y-114080144D01*
G37*
D11*
G04 #@! TD*
G04 #@! TO.P,D6,2*
G04 #@! TO.N,Net-(D6-Pad2)*
X154686000Y-114554000D03*
D10*
G04 #@! TO.N,GND*
G04 #@! TO.C,D6*
G36*
X156746779Y-114080144D02*
X156769834Y-114083563D01*
X156792443Y-114089227D01*
X156814387Y-114097079D01*
X156835457Y-114107044D01*
X156855448Y-114119026D01*
X156874168Y-114132910D01*
X156891438Y-114148562D01*
X156907090Y-114165832D01*
X156920974Y-114184552D01*
X156932956Y-114204543D01*
X156942921Y-114225613D01*
X156950773Y-114247557D01*
X156956437Y-114270166D01*
X156959856Y-114293221D01*
X156961000Y-114316500D01*
X156961000Y-114791500D01*
X156959856Y-114814779D01*
X156956437Y-114837834D01*
X156950773Y-114860443D01*
X156942921Y-114882387D01*
X156932956Y-114903457D01*
X156920974Y-114923448D01*
X156907090Y-114942168D01*
X156891438Y-114959438D01*
X156874168Y-114975090D01*
X156855448Y-114988974D01*
X156835457Y-115000956D01*
X156814387Y-115010921D01*
X156792443Y-115018773D01*
X156769834Y-115024437D01*
X156746779Y-115027856D01*
X156723500Y-115029000D01*
X156148500Y-115029000D01*
X156125221Y-115027856D01*
X156102166Y-115024437D01*
X156079557Y-115018773D01*
X156057613Y-115010921D01*
X156036543Y-115000956D01*
X156016552Y-114988974D01*
X155997832Y-114975090D01*
X155980562Y-114959438D01*
X155964910Y-114942168D01*
X155951026Y-114923448D01*
X155939044Y-114903457D01*
X155929079Y-114882387D01*
X155921227Y-114860443D01*
X155915563Y-114837834D01*
X155912144Y-114814779D01*
X155911000Y-114791500D01*
X155911000Y-114316500D01*
X155912144Y-114293221D01*
X155915563Y-114270166D01*
X155921227Y-114247557D01*
X155929079Y-114225613D01*
X155939044Y-114204543D01*
X155951026Y-114184552D01*
X155964910Y-114165832D01*
X155980562Y-114148562D01*
X155997832Y-114132910D01*
X156016552Y-114119026D01*
X156036543Y-114107044D01*
X156057613Y-114097079D01*
X156079557Y-114089227D01*
X156102166Y-114083563D01*
X156125221Y-114080144D01*
X156148500Y-114079000D01*
X156723500Y-114079000D01*
X156746779Y-114080144D01*
X156746779Y-114080144D01*
G37*
D11*
G04 #@! TD*
G04 #@! TO.P,D6,1*
G04 #@! TO.N,GND*
X156436000Y-114554000D03*
D12*
G04 #@! TO.P,J1,1*
G04 #@! TO.N,+5V*
X120396000Y-119380000D03*
D13*
G04 #@! TO.P,J1,6*
G04 #@! TO.N,GND*
X120296000Y-116530000D03*
D12*
G04 #@! TO.P,J1,2*
G04 #@! TO.N,Net-(J1-Pad2)*
X120396000Y-120180000D03*
G04 #@! TO.P,J1,3*
G04 #@! TO.N,Net-(J1-Pad3)*
X120396000Y-120980000D03*
G04 #@! TO.P,J1,4*
G04 #@! TO.N,Net-(J1-Pad4)*
X120396000Y-121780000D03*
G04 #@! TO.P,J1,5*
G04 #@! TO.N,GND*
X120396000Y-122580000D03*
D13*
G04 #@! TO.P,J1,6*
X114796000Y-116530000D03*
X120296000Y-125430000D03*
X114796000Y-125430000D03*
G04 #@! TD*
D14*
G04 #@! TO.P,J2,1*
G04 #@! TO.N,MISO*
X132080000Y-104140000D03*
D15*
G04 #@! TO.P,J2,2*
G04 #@! TO.N,+5V*
X134620000Y-104140000D03*
G04 #@! TO.P,J2,3*
G04 #@! TO.N,SCK*
X132080000Y-106680000D03*
G04 #@! TO.P,J2,4*
G04 #@! TO.N,MOSI*
X134620000Y-106680000D03*
G04 #@! TO.P,J2,5*
G04 #@! TO.N,RST*
X132080000Y-109220000D03*
G04 #@! TO.P,J2,6*
G04 #@! TO.N,GND*
X134620000Y-109220000D03*
G04 #@! TD*
D10*
G04 #@! TO.N,Net-(D1-Pad3)*
G04 #@! TO.C,R1*
G36*
X171760779Y-123986144D02*
X171783834Y-123989563D01*
X171806443Y-123995227D01*
X171828387Y-124003079D01*
X171849457Y-124013044D01*
X171869448Y-124025026D01*
X171888168Y-124038910D01*
X171905438Y-124054562D01*
X171921090Y-124071832D01*
X171934974Y-124090552D01*
X171946956Y-124110543D01*
X171956921Y-124131613D01*
X171964773Y-124153557D01*
X171970437Y-124176166D01*
X171973856Y-124199221D01*
X171975000Y-124222500D01*
X171975000Y-124697500D01*
X171973856Y-124720779D01*
X171970437Y-124743834D01*
X171964773Y-124766443D01*
X171956921Y-124788387D01*
X171946956Y-124809457D01*
X171934974Y-124829448D01*
X171921090Y-124848168D01*
X171905438Y-124865438D01*
X171888168Y-124881090D01*
X171869448Y-124894974D01*
X171849457Y-124906956D01*
X171828387Y-124916921D01*
X171806443Y-124924773D01*
X171783834Y-124930437D01*
X171760779Y-124933856D01*
X171737500Y-124935000D01*
X171162500Y-124935000D01*
X171139221Y-124933856D01*
X171116166Y-124930437D01*
X171093557Y-124924773D01*
X171071613Y-124916921D01*
X171050543Y-124906956D01*
X171030552Y-124894974D01*
X171011832Y-124881090D01*
X170994562Y-124865438D01*
X170978910Y-124848168D01*
X170965026Y-124829448D01*
X170953044Y-124809457D01*
X170943079Y-124788387D01*
X170935227Y-124766443D01*
X170929563Y-124743834D01*
X170926144Y-124720779D01*
X170925000Y-124697500D01*
X170925000Y-124222500D01*
X170926144Y-124199221D01*
X170929563Y-124176166D01*
X170935227Y-124153557D01*
X170943079Y-124131613D01*
X170953044Y-124110543D01*
X170965026Y-124090552D01*
X170978910Y-124071832D01*
X170994562Y-124054562D01*
X171011832Y-124038910D01*
X171030552Y-124025026D01*
X171050543Y-124013044D01*
X171071613Y-124003079D01*
X171093557Y-123995227D01*
X171116166Y-123989563D01*
X171139221Y-123986144D01*
X171162500Y-123985000D01*
X171737500Y-123985000D01*
X171760779Y-123986144D01*
X171760779Y-123986144D01*
G37*
D11*
G04 #@! TD*
G04 #@! TO.P,R1,1*
G04 #@! TO.N,Net-(D1-Pad3)*
X171450000Y-124460000D03*
D10*
G04 #@! TO.N,DOut*
G04 #@! TO.C,R1*
G36*
X170010779Y-123986144D02*
X170033834Y-123989563D01*
X170056443Y-123995227D01*
X170078387Y-124003079D01*
X170099457Y-124013044D01*
X170119448Y-124025026D01*
X170138168Y-124038910D01*
X170155438Y-124054562D01*
X170171090Y-124071832D01*
X170184974Y-124090552D01*
X170196956Y-124110543D01*
X170206921Y-124131613D01*
X170214773Y-124153557D01*
X170220437Y-124176166D01*
X170223856Y-124199221D01*
X170225000Y-124222500D01*
X170225000Y-124697500D01*
X170223856Y-124720779D01*
X170220437Y-124743834D01*
X170214773Y-124766443D01*
X170206921Y-124788387D01*
X170196956Y-124809457D01*
X170184974Y-124829448D01*
X170171090Y-124848168D01*
X170155438Y-124865438D01*
X170138168Y-124881090D01*
X170119448Y-124894974D01*
X170099457Y-124906956D01*
X170078387Y-124916921D01*
X170056443Y-124924773D01*
X170033834Y-124930437D01*
X170010779Y-124933856D01*
X169987500Y-124935000D01*
X169412500Y-124935000D01*
X169389221Y-124933856D01*
X169366166Y-124930437D01*
X169343557Y-124924773D01*
X169321613Y-124916921D01*
X169300543Y-124906956D01*
X169280552Y-124894974D01*
X169261832Y-124881090D01*
X169244562Y-124865438D01*
X169228910Y-124848168D01*
X169215026Y-124829448D01*
X169203044Y-124809457D01*
X169193079Y-124788387D01*
X169185227Y-124766443D01*
X169179563Y-124743834D01*
X169176144Y-124720779D01*
X169175000Y-124697500D01*
X169175000Y-124222500D01*
X169176144Y-124199221D01*
X169179563Y-124176166D01*
X169185227Y-124153557D01*
X169193079Y-124131613D01*
X169203044Y-124110543D01*
X169215026Y-124090552D01*
X169228910Y-124071832D01*
X169244562Y-124054562D01*
X169261832Y-124038910D01*
X169280552Y-124025026D01*
X169300543Y-124013044D01*
X169321613Y-124003079D01*
X169343557Y-123995227D01*
X169366166Y-123989563D01*
X169389221Y-123986144D01*
X169412500Y-123985000D01*
X169987500Y-123985000D01*
X170010779Y-123986144D01*
X170010779Y-123986144D01*
G37*
D11*
G04 #@! TD*
G04 #@! TO.P,R1,2*
G04 #@! TO.N,DOut*
X169700000Y-124460000D03*
D10*
G04 #@! TO.N,Net-(D3-Pad2)*
G04 #@! TO.C,R2*
G36*
X135438779Y-123986144D02*
X135461834Y-123989563D01*
X135484443Y-123995227D01*
X135506387Y-124003079D01*
X135527457Y-124013044D01*
X135547448Y-124025026D01*
X135566168Y-124038910D01*
X135583438Y-124054562D01*
X135599090Y-124071832D01*
X135612974Y-124090552D01*
X135624956Y-124110543D01*
X135634921Y-124131613D01*
X135642773Y-124153557D01*
X135648437Y-124176166D01*
X135651856Y-124199221D01*
X135653000Y-124222500D01*
X135653000Y-124697500D01*
X135651856Y-124720779D01*
X135648437Y-124743834D01*
X135642773Y-124766443D01*
X135634921Y-124788387D01*
X135624956Y-124809457D01*
X135612974Y-124829448D01*
X135599090Y-124848168D01*
X135583438Y-124865438D01*
X135566168Y-124881090D01*
X135547448Y-124894974D01*
X135527457Y-124906956D01*
X135506387Y-124916921D01*
X135484443Y-124924773D01*
X135461834Y-124930437D01*
X135438779Y-124933856D01*
X135415500Y-124935000D01*
X134840500Y-124935000D01*
X134817221Y-124933856D01*
X134794166Y-124930437D01*
X134771557Y-124924773D01*
X134749613Y-124916921D01*
X134728543Y-124906956D01*
X134708552Y-124894974D01*
X134689832Y-124881090D01*
X134672562Y-124865438D01*
X134656910Y-124848168D01*
X134643026Y-124829448D01*
X134631044Y-124809457D01*
X134621079Y-124788387D01*
X134613227Y-124766443D01*
X134607563Y-124743834D01*
X134604144Y-124720779D01*
X134603000Y-124697500D01*
X134603000Y-124222500D01*
X134604144Y-124199221D01*
X134607563Y-124176166D01*
X134613227Y-124153557D01*
X134621079Y-124131613D01*
X134631044Y-124110543D01*
X134643026Y-124090552D01*
X134656910Y-124071832D01*
X134672562Y-124054562D01*
X134689832Y-124038910D01*
X134708552Y-124025026D01*
X134728543Y-124013044D01*
X134749613Y-124003079D01*
X134771557Y-123995227D01*
X134794166Y-123989563D01*
X134817221Y-123986144D01*
X134840500Y-123985000D01*
X135415500Y-123985000D01*
X135438779Y-123986144D01*
X135438779Y-123986144D01*
G37*
D11*
G04 #@! TD*
G04 #@! TO.P,R2,2*
G04 #@! TO.N,Net-(D3-Pad2)*
X135128000Y-124460000D03*
D10*
G04 #@! TO.N,+5V*
G04 #@! TO.C,R2*
G36*
X137188779Y-123986144D02*
X137211834Y-123989563D01*
X137234443Y-123995227D01*
X137256387Y-124003079D01*
X137277457Y-124013044D01*
X137297448Y-124025026D01*
X137316168Y-124038910D01*
X137333438Y-124054562D01*
X137349090Y-124071832D01*
X137362974Y-124090552D01*
X137374956Y-124110543D01*
X137384921Y-124131613D01*
X137392773Y-124153557D01*
X137398437Y-124176166D01*
X137401856Y-124199221D01*
X137403000Y-124222500D01*
X137403000Y-124697500D01*
X137401856Y-124720779D01*
X137398437Y-124743834D01*
X137392773Y-124766443D01*
X137384921Y-124788387D01*
X137374956Y-124809457D01*
X137362974Y-124829448D01*
X137349090Y-124848168D01*
X137333438Y-124865438D01*
X137316168Y-124881090D01*
X137297448Y-124894974D01*
X137277457Y-124906956D01*
X137256387Y-124916921D01*
X137234443Y-124924773D01*
X137211834Y-124930437D01*
X137188779Y-124933856D01*
X137165500Y-124935000D01*
X136590500Y-124935000D01*
X136567221Y-124933856D01*
X136544166Y-124930437D01*
X136521557Y-124924773D01*
X136499613Y-124916921D01*
X136478543Y-124906956D01*
X136458552Y-124894974D01*
X136439832Y-124881090D01*
X136422562Y-124865438D01*
X136406910Y-124848168D01*
X136393026Y-124829448D01*
X136381044Y-124809457D01*
X136371079Y-124788387D01*
X136363227Y-124766443D01*
X136357563Y-124743834D01*
X136354144Y-124720779D01*
X136353000Y-124697500D01*
X136353000Y-124222500D01*
X136354144Y-124199221D01*
X136357563Y-124176166D01*
X136363227Y-124153557D01*
X136371079Y-124131613D01*
X136381044Y-124110543D01*
X136393026Y-124090552D01*
X136406910Y-124071832D01*
X136422562Y-124054562D01*
X136439832Y-124038910D01*
X136458552Y-124025026D01*
X136478543Y-124013044D01*
X136499613Y-124003079D01*
X136521557Y-123995227D01*
X136544166Y-123989563D01*
X136567221Y-123986144D01*
X136590500Y-123985000D01*
X137165500Y-123985000D01*
X137188779Y-123986144D01*
X137188779Y-123986144D01*
G37*
D11*
G04 #@! TD*
G04 #@! TO.P,R2,1*
G04 #@! TO.N,+5V*
X136878000Y-124460000D03*
D10*
G04 #@! TO.N,Push*
G04 #@! TO.C,R3*
G36*
X151214779Y-114080144D02*
X151237834Y-114083563D01*
X151260443Y-114089227D01*
X151282387Y-114097079D01*
X151303457Y-114107044D01*
X151323448Y-114119026D01*
X151342168Y-114132910D01*
X151359438Y-114148562D01*
X151375090Y-114165832D01*
X151388974Y-114184552D01*
X151400956Y-114204543D01*
X151410921Y-114225613D01*
X151418773Y-114247557D01*
X151424437Y-114270166D01*
X151427856Y-114293221D01*
X151429000Y-114316500D01*
X151429000Y-114791500D01*
X151427856Y-114814779D01*
X151424437Y-114837834D01*
X151418773Y-114860443D01*
X151410921Y-114882387D01*
X151400956Y-114903457D01*
X151388974Y-114923448D01*
X151375090Y-114942168D01*
X151359438Y-114959438D01*
X151342168Y-114975090D01*
X151323448Y-114988974D01*
X151303457Y-115000956D01*
X151282387Y-115010921D01*
X151260443Y-115018773D01*
X151237834Y-115024437D01*
X151214779Y-115027856D01*
X151191500Y-115029000D01*
X150616500Y-115029000D01*
X150593221Y-115027856D01*
X150570166Y-115024437D01*
X150547557Y-115018773D01*
X150525613Y-115010921D01*
X150504543Y-115000956D01*
X150484552Y-114988974D01*
X150465832Y-114975090D01*
X150448562Y-114959438D01*
X150432910Y-114942168D01*
X150419026Y-114923448D01*
X150407044Y-114903457D01*
X150397079Y-114882387D01*
X150389227Y-114860443D01*
X150383563Y-114837834D01*
X150380144Y-114814779D01*
X150379000Y-114791500D01*
X150379000Y-114316500D01*
X150380144Y-114293221D01*
X150383563Y-114270166D01*
X150389227Y-114247557D01*
X150397079Y-114225613D01*
X150407044Y-114204543D01*
X150419026Y-114184552D01*
X150432910Y-114165832D01*
X150448562Y-114148562D01*
X150465832Y-114132910D01*
X150484552Y-114119026D01*
X150504543Y-114107044D01*
X150525613Y-114097079D01*
X150547557Y-114089227D01*
X150570166Y-114083563D01*
X150593221Y-114080144D01*
X150616500Y-114079000D01*
X151191500Y-114079000D01*
X151214779Y-114080144D01*
X151214779Y-114080144D01*
G37*
D11*
G04 #@! TD*
G04 #@! TO.P,R3,1*
G04 #@! TO.N,Push*
X150904000Y-114554000D03*
D10*
G04 #@! TO.N,Net-(D6-Pad2)*
G04 #@! TO.C,R3*
G36*
X152964779Y-114080144D02*
X152987834Y-114083563D01*
X153010443Y-114089227D01*
X153032387Y-114097079D01*
X153053457Y-114107044D01*
X153073448Y-114119026D01*
X153092168Y-114132910D01*
X153109438Y-114148562D01*
X153125090Y-114165832D01*
X153138974Y-114184552D01*
X153150956Y-114204543D01*
X153160921Y-114225613D01*
X153168773Y-114247557D01*
X153174437Y-114270166D01*
X153177856Y-114293221D01*
X153179000Y-114316500D01*
X153179000Y-114791500D01*
X153177856Y-114814779D01*
X153174437Y-114837834D01*
X153168773Y-114860443D01*
X153160921Y-114882387D01*
X153150956Y-114903457D01*
X153138974Y-114923448D01*
X153125090Y-114942168D01*
X153109438Y-114959438D01*
X153092168Y-114975090D01*
X153073448Y-114988974D01*
X153053457Y-115000956D01*
X153032387Y-115010921D01*
X153010443Y-115018773D01*
X152987834Y-115024437D01*
X152964779Y-115027856D01*
X152941500Y-115029000D01*
X152366500Y-115029000D01*
X152343221Y-115027856D01*
X152320166Y-115024437D01*
X152297557Y-115018773D01*
X152275613Y-115010921D01*
X152254543Y-115000956D01*
X152234552Y-114988974D01*
X152215832Y-114975090D01*
X152198562Y-114959438D01*
X152182910Y-114942168D01*
X152169026Y-114923448D01*
X152157044Y-114903457D01*
X152147079Y-114882387D01*
X152139227Y-114860443D01*
X152133563Y-114837834D01*
X152130144Y-114814779D01*
X152129000Y-114791500D01*
X152129000Y-114316500D01*
X152130144Y-114293221D01*
X152133563Y-114270166D01*
X152139227Y-114247557D01*
X152147079Y-114225613D01*
X152157044Y-114204543D01*
X152169026Y-114184552D01*
X152182910Y-114165832D01*
X152198562Y-114148562D01*
X152215832Y-114132910D01*
X152234552Y-114119026D01*
X152254543Y-114107044D01*
X152275613Y-114097079D01*
X152297557Y-114089227D01*
X152320166Y-114083563D01*
X152343221Y-114080144D01*
X152366500Y-114079000D01*
X152941500Y-114079000D01*
X152964779Y-114080144D01*
X152964779Y-114080144D01*
G37*
D11*
G04 #@! TD*
G04 #@! TO.P,R3,2*
G04 #@! TO.N,Net-(D6-Pad2)*
X152654000Y-114554000D03*
D16*
G04 #@! TO.P,SW1,2*
G04 #@! TO.N,+5V*
X149520000Y-121340000D03*
G04 #@! TO.P,SW1,1*
G04 #@! TO.N,Push*
X149520000Y-116840000D03*
X157480000Y-116840000D03*
G04 #@! TO.P,SW1,2*
G04 #@! TO.N,+5V*
X157480000Y-121340000D03*
G04 #@! TD*
D17*
G04 #@! TO.P,U1,1*
G04 #@! TO.N,RST*
X157480000Y-107950000D03*
G04 #@! TO.P,U1,2*
G04 #@! TO.N,Push*
X157480000Y-106680000D03*
G04 #@! TO.P,U1,3*
G04 #@! TO.N,DOut*
X157480000Y-105410000D03*
G04 #@! TO.P,U1,4*
G04 #@! TO.N,GND*
X157480000Y-104140000D03*
G04 #@! TO.P,U1,5*
G04 #@! TO.N,MOSI*
X150180000Y-104140000D03*
G04 #@! TO.P,U1,6*
G04 #@! TO.N,MISO*
X150180000Y-105410000D03*
G04 #@! TO.P,U1,7*
G04 #@! TO.N,SCK*
X150180000Y-106680000D03*
G04 #@! TO.P,U1,8*
G04 #@! TO.N,+5V*
X150180000Y-107950000D03*
G04 #@! TD*
D18*
G04 #@! TO.P,D1,3*
G04 #@! TO.N,Net-(D1-Pad3)*
X175580000Y-124460000D03*
G04 #@! TO.P,D1,2*
G04 #@! TO.N,GND*
X176530000Y-124460000D03*
G04 #@! TO.P,D1,4*
G04 #@! TO.N,+5V*
X175580000Y-125410000D03*
G04 #@! TO.P,D1,1*
G04 #@! TO.N,Net-(D1-Pad1)*
X176530000Y-125410000D03*
G04 #@! TD*
G04 #@! TO.P,D4,3*
G04 #@! TO.N,Net-(D2-Pad1)*
X166690000Y-93969800D03*
G04 #@! TO.P,D4,2*
G04 #@! TO.N,GND*
X167640000Y-93969800D03*
G04 #@! TO.P,D4,4*
G04 #@! TO.N,+5V*
X166690000Y-94919800D03*
G04 #@! TO.P,D4,1*
G04 #@! TO.N,Net-(D4-Pad1)*
X167640000Y-94919800D03*
G04 #@! TD*
G04 #@! TO.P,D7,3*
G04 #@! TO.N,Net-(D5-Pad1)*
X159070000Y-67310000D03*
G04 #@! TO.P,D7,2*
G04 #@! TO.N,GND*
X160020000Y-67310000D03*
G04 #@! TO.P,D7,4*
G04 #@! TO.N,+5V*
X159070000Y-68260000D03*
G04 #@! TO.P,D7,1*
G04 #@! TO.N,Net-(D7-Pad1)*
X160020000Y-68260000D03*
G04 #@! TD*
G04 #@! TO.P,D9,1*
G04 #@! TO.N,Net-(D10-Pad3)*
X124449800Y-68270200D03*
G04 #@! TO.P,D9,4*
G04 #@! TO.N,+5V*
X124449800Y-67320200D03*
G04 #@! TO.P,D9,2*
G04 #@! TO.N,GND*
X125399800Y-68270200D03*
G04 #@! TO.P,D9,3*
G04 #@! TO.N,Net-(D8-Pad1)*
X125399800Y-67320200D03*
G04 #@! TD*
G04 #@! TO.P,D11,1*
G04 #@! TO.N,Net-(D11-Pad1)*
X116906000Y-94930000D03*
G04 #@! TO.P,D11,4*
G04 #@! TO.N,+5V*
X116906000Y-93980000D03*
G04 #@! TO.P,D11,2*
G04 #@! TO.N,GND*
X117856000Y-94930000D03*
G04 #@! TO.P,D11,3*
G04 #@! TO.N,Net-(D10-Pad1)*
X117856000Y-93980000D03*
G04 #@! TD*
D19*
G04 #@! TO.P,J3,1*
G04 #@! TO.N,+5V*
X138430000Y-88900000D03*
D20*
G04 #@! TO.P,J3,2*
G04 #@! TO.N,DOut'*
X138430000Y-91440000D03*
G04 #@! TO.P,J3,3*
G04 #@! TO.N,GND*
X138430000Y-93980000D03*
G04 #@! TD*
D21*
G04 #@! TO.N,+5V*
X153670000Y-121340000D03*
X173990000Y-125730000D03*
X165100000Y-95250000D03*
X157480000Y-68580000D03*
X124714000Y-66040000D03*
X117165000Y-92715200D03*
X109982000Y-125476000D03*
G04 #@! TO.N,GND*
X146812000Y-109982000D03*
X157480000Y-102362000D03*
X117602000Y-116530000D03*
X114796000Y-118872000D03*
X114796000Y-123190000D03*
X120396000Y-123698000D03*
X157988000Y-114554000D03*
X176276000Y-122936000D03*
X167386000Y-92456000D03*
X159766000Y-65786000D03*
X126746000Y-68580000D03*
X119197000Y-95255200D03*
X129286000Y-124460000D03*
G04 #@! TO.N,Net-(D1-Pad1)*
X177800000Y-125984000D03*
G04 #@! TO.N,Net-(D2-Pad1)*
X162052000Y-94488000D03*
G04 #@! TO.N,Net-(D4-Pad1)*
X168910000Y-95504000D03*
G04 #@! TO.N,Net-(D5-Pad1)*
X154940000Y-67818000D03*
X165100000Y-92964000D03*
X154940000Y-92456000D03*
G04 #@! TO.N,Net-(D2-Pad1)*
X173990000Y-123444000D03*
X162052000Y-122936000D03*
G04 #@! TO.N,Net-(D7-Pad1)*
X161290000Y-68834000D03*
G04 #@! TO.N,Net-(D8-Pad1)*
X139446000Y-66294000D03*
X126492000Y-66294000D03*
X145034000Y-66294000D03*
G04 #@! TO.N,Net-(D10-Pad1)*
X118872000Y-92964000D03*
G04 #@! TO.N,Net-(D10-Pad3)*
X123190000Y-68580000D03*
G04 #@! TO.N,Net-(D10-Pad1)*
X129540000Y-67818000D03*
X129032000Y-92964000D03*
G04 #@! TO.N,Net-(D11-Pad1)*
X115641000Y-95255200D03*
G04 #@! TO.N,Net-(D12-Pad1)*
X122428000Y-94488000D03*
X122428000Y-114046000D03*
G04 #@! TO.N,DOut'*
X123444000Y-114046000D03*
X123952000Y-93980000D03*
G04 #@! TO.N,DOut*
X159766000Y-123952000D03*
X159766000Y-106465000D03*
G04 #@! TD*
D22*
G04 #@! TO.N,+5V*
X149520000Y-121340000D02*
X153670000Y-121340000D01*
X150180000Y-109916000D02*
X150114000Y-109982000D01*
X153670000Y-121340000D02*
X157480000Y-121340000D01*
X150180000Y-107950000D02*
X150180000Y-109982000D01*
G04 #@! TO.N,GND*
X148430000Y-109982000D02*
X146812000Y-109982000D01*
X157480000Y-104140000D02*
X157480000Y-102362000D01*
D23*
X114796000Y-116530000D02*
X117602000Y-116530000D01*
X120296000Y-125430000D02*
X117602000Y-125430000D01*
X114796000Y-123668000D02*
X114796000Y-123190000D01*
X114796000Y-125430000D02*
X114796000Y-123668000D01*
X117602000Y-116530000D02*
X120296000Y-116530000D01*
X117602000Y-125430000D02*
X114796000Y-125430000D01*
X114796000Y-118872000D02*
X114796000Y-116530000D01*
X114796000Y-123190000D02*
X114796000Y-118872000D01*
D22*
X120396000Y-125330000D02*
X120296000Y-125430000D01*
X120396000Y-122580000D02*
X120396000Y-123698000D01*
X120396000Y-123698000D02*
X120396000Y-125330000D01*
X156436000Y-114554000D02*
X157988000Y-114554000D01*
X176530000Y-124460000D02*
X176530000Y-123190000D01*
X176530000Y-123190000D02*
X176276000Y-122936000D01*
X167640000Y-93980000D02*
X167640000Y-92710000D01*
X167640000Y-92710000D02*
X167386000Y-92456000D01*
X160020000Y-66040000D02*
X159766000Y-65786000D01*
X160020000Y-67310000D02*
X160020000Y-66040000D01*
X126436200Y-68270200D02*
X126746000Y-68580000D01*
X125399800Y-68270200D02*
X126436200Y-68270200D01*
X117850800Y-94945400D02*
X118887200Y-94945400D01*
X118887200Y-94945400D02*
X119197000Y-95255200D01*
X131346000Y-124460000D02*
X129286000Y-124460000D01*
G04 #@! TO.N,Net-(D1-Pad1)*
X177226000Y-125410000D02*
X176530000Y-125410000D01*
X177800000Y-125984000D02*
X177226000Y-125410000D01*
G04 #@! TO.N,Net-(D2-Pad1)*
X166690000Y-93969800D02*
X162570200Y-93969800D01*
X162570200Y-93969800D02*
X162052000Y-94488000D01*
G04 #@! TO.N,Net-(D4-Pad1)*
X168910000Y-95504000D02*
X168336000Y-94930000D01*
X168336000Y-94930000D02*
X167640000Y-94930000D01*
G04 #@! TO.N,Net-(D5-Pad1)*
X159070000Y-67310000D02*
X155448000Y-67310000D01*
X155448000Y-67310000D02*
X154940000Y-67818000D01*
X155448000Y-92964000D02*
X154940000Y-92456000D01*
X165100000Y-92964000D02*
X155448000Y-92964000D01*
G04 #@! TO.N,Net-(D2-Pad1)*
X162052000Y-122936000D02*
X162560000Y-123444000D01*
X162560000Y-123444000D02*
X173990000Y-123444000D01*
G04 #@! TO.N,Net-(D7-Pad1)*
X161290000Y-68834000D02*
X160716000Y-68260000D01*
X160716000Y-68260000D02*
X160020000Y-68260000D01*
G04 #@! TO.N,Net-(D8-Pad1)*
X125410000Y-67310000D02*
X125399800Y-67320200D01*
X144272000Y-66802000D02*
X144272000Y-85344000D01*
X144272000Y-85344000D02*
X143764000Y-85852000D01*
X143764000Y-85852000D02*
X140716000Y-85852000D01*
X140716000Y-85852000D02*
X140208000Y-85344000D01*
X125399800Y-67320200D02*
X125465800Y-67320200D01*
X125465800Y-67320200D02*
X126492000Y-66294000D01*
X140208000Y-66802000D02*
X139700000Y-66294000D01*
X140208000Y-68072000D02*
X140208000Y-66802000D01*
X140208000Y-68072000D02*
X140208000Y-67818000D01*
X140208000Y-85344000D02*
X140208000Y-68072000D01*
X144272000Y-66802000D02*
X144780000Y-66294000D01*
X144780000Y-66294000D02*
X145034000Y-66294000D01*
G04 #@! TO.N,Net-(D10-Pad1)*
X117845800Y-93990200D02*
X118872000Y-92964000D01*
G04 #@! TO.N,Net-(D10-Pad3)*
X123499800Y-68270200D02*
X123190000Y-68580000D01*
X124449800Y-68270200D02*
X123499800Y-68270200D01*
G04 #@! TO.N,Net-(D10-Pad1)*
X129540000Y-67818000D02*
X129540000Y-68383685D01*
X129540000Y-68383685D02*
X129540000Y-72644000D01*
X129540000Y-72644000D02*
X129540000Y-92456000D01*
X129540000Y-92456000D02*
X129032000Y-92964000D01*
G04 #@! TO.N,Net-(D11-Pad1)*
X116900800Y-94945400D02*
X115950800Y-94945400D01*
X115950800Y-94945400D02*
X115641000Y-95255200D01*
G04 #@! TO.N,Net-(D1-Pad3)*
X175580000Y-124460000D02*
X171450000Y-124460000D01*
G04 #@! TO.N,Net-(D3-Pad2)*
X133096000Y-124460000D02*
X135128000Y-124460000D01*
G04 #@! TO.N,Net-(D6-Pad2)*
X152654000Y-114554000D02*
X154686000Y-114554000D01*
G04 #@! TO.N,Net-(D12-Pad1)*
X122428000Y-94488000D02*
X122428000Y-95053685D01*
X122428000Y-95053685D02*
X122428000Y-110744000D01*
X122428000Y-110744000D02*
X122428000Y-110998000D01*
X122428000Y-114046000D02*
X122428000Y-110744000D01*
G04 #@! TO.N,DOut'*
X123444000Y-94488000D02*
X123952000Y-93980000D01*
X123444000Y-95250000D02*
X123444000Y-94488000D01*
X123444000Y-114046000D02*
X123444000Y-95250000D01*
G04 #@! TO.N,MISO*
X133334101Y-105394101D02*
X132080000Y-104140000D01*
X136144000Y-105156000D02*
X135905899Y-105394101D01*
X151411000Y-105410000D02*
X151638000Y-105183000D01*
X135905899Y-105394101D02*
X133334101Y-105394101D01*
X150180000Y-105410000D02*
X151411000Y-105410000D01*
X146812000Y-105156000D02*
X136144000Y-105156000D01*
X151638000Y-105183000D02*
X151638000Y-103720098D01*
X151638000Y-103720098D02*
X151041902Y-103124000D01*
X151041902Y-103124000D02*
X148844000Y-103124000D01*
X148844000Y-103124000D02*
X146812000Y-105156000D01*
G04 #@! TO.N,SCK*
X132080000Y-106680000D02*
X133350000Y-107950000D01*
X136906000Y-106680000D02*
X135636000Y-107950000D01*
X150180000Y-106680000D02*
X136906000Y-106680000D01*
X133350000Y-107950000D02*
X135636000Y-107950000D01*
G04 #@! TO.N,MOSI*
X135841314Y-106680000D02*
X134620000Y-106680000D01*
X136603314Y-105918000D02*
X135841314Y-106680000D01*
X147171000Y-105918000D02*
X136603314Y-105918000D01*
X148949000Y-104140000D02*
X147171000Y-105918000D01*
X150180000Y-104140000D02*
X148949000Y-104140000D01*
G04 #@! TO.N,RST*
X132080000Y-110441314D02*
X132636686Y-110998000D01*
X132080000Y-109220000D02*
X132080000Y-110441314D01*
X156249000Y-107950000D02*
X157480000Y-107950000D01*
X153201000Y-110998000D02*
X156249000Y-107950000D01*
X132636686Y-110998000D02*
X153201000Y-110998000D01*
G04 #@! TO.N,DOut*
X158711000Y-105410000D02*
X159766000Y-106465000D01*
X157480000Y-105410000D02*
X158711000Y-105410000D01*
X159766000Y-123952000D02*
X159766000Y-123952000D01*
X160274000Y-124460000D02*
X169700000Y-124460000D01*
X159766000Y-123952000D02*
X160274000Y-124460000D01*
X159766000Y-106465000D02*
X159766000Y-106465000D01*
G04 #@! TO.N,Push*
X149520000Y-116840000D02*
X157480000Y-116840000D01*
X150904000Y-115456000D02*
X149520000Y-116840000D01*
X150904000Y-114554000D02*
X150904000Y-115456000D01*
X158496000Y-106680000D02*
X157480000Y-106680000D01*
X150904000Y-114554000D02*
X150904000Y-112240000D01*
X150904000Y-112240000D02*
X151384000Y-111760000D01*
X156718000Y-111760000D02*
X159004000Y-109474000D01*
X159004000Y-109474000D02*
X159004000Y-107188000D01*
X151384000Y-111760000D02*
X156718000Y-111760000D01*
X159004000Y-107188000D02*
X158496000Y-106680000D01*
G04 #@! TD*
D24*
G04 #@! TO.N,+5V*
G36*
X159815082Y-64878000D02*
X159585388Y-64878000D01*
X159251659Y-65016235D01*
X158996235Y-65271659D01*
X158858000Y-65605388D01*
X158858000Y-65966612D01*
X158996235Y-66300341D01*
X159212942Y-66517048D01*
X158795000Y-66517048D01*
X158596788Y-66556475D01*
X158514438Y-66611500D01*
X155516788Y-66611500D01*
X155447999Y-66597817D01*
X155379210Y-66611500D01*
X155379206Y-66611500D01*
X155175459Y-66652028D01*
X154944410Y-66806410D01*
X154905441Y-66864731D01*
X154860172Y-66910000D01*
X154759388Y-66910000D01*
X154425659Y-67048235D01*
X154170235Y-67303659D01*
X154032000Y-67637388D01*
X154032000Y-67998612D01*
X154170235Y-68332341D01*
X154425659Y-68587765D01*
X154759388Y-68726000D01*
X155120612Y-68726000D01*
X155454341Y-68587765D01*
X155709765Y-68332341D01*
X155843904Y-68008500D01*
X158514438Y-68008500D01*
X158596788Y-68063525D01*
X158795000Y-68102952D01*
X159227048Y-68102952D01*
X159227048Y-68535000D01*
X159266475Y-68733212D01*
X159378753Y-68901247D01*
X159546002Y-69013000D01*
X156228783Y-69013000D01*
X156212879Y-69016163D01*
X156148242Y-69020400D01*
X156074579Y-69040138D01*
X155998972Y-69050092D01*
X155717433Y-69145662D01*
X155520434Y-69259400D01*
X155296899Y-69455434D01*
X155158421Y-69635902D01*
X155158421Y-69635903D01*
X155026922Y-69902556D01*
X155026921Y-69902558D01*
X154968046Y-70122282D01*
X154948600Y-70418963D01*
X154978291Y-70644492D01*
X154978292Y-70644494D01*
X155038424Y-70821635D01*
X155038121Y-70828268D01*
X155097103Y-70991317D01*
X167515882Y-91548000D01*
X167205388Y-91548000D01*
X166871659Y-91686235D01*
X166616235Y-91941659D01*
X166478000Y-92275388D01*
X166478000Y-92636612D01*
X166616235Y-92970341D01*
X166822742Y-93176848D01*
X166415000Y-93176848D01*
X166216788Y-93216275D01*
X166134438Y-93271300D01*
X165955524Y-93271300D01*
X166008000Y-93144612D01*
X166008000Y-92783388D01*
X165869765Y-92449659D01*
X165614341Y-92194235D01*
X165280612Y-92056000D01*
X164919388Y-92056000D01*
X164585659Y-92194235D01*
X164514394Y-92265500D01*
X155843904Y-92265500D01*
X155709765Y-91941659D01*
X155454341Y-91686235D01*
X155120612Y-91548000D01*
X154759388Y-91548000D01*
X154425659Y-91686235D01*
X154170235Y-91941659D01*
X154032000Y-92275388D01*
X154032000Y-92636612D01*
X154170235Y-92970341D01*
X154425659Y-93225765D01*
X154759388Y-93364000D01*
X154860172Y-93364000D01*
X154905441Y-93409269D01*
X154944410Y-93467590D01*
X155175459Y-93621972D01*
X155379206Y-93662500D01*
X155379210Y-93662500D01*
X155447999Y-93676183D01*
X155516788Y-93662500D01*
X161672215Y-93662500D01*
X161537659Y-93718235D01*
X161282235Y-93973659D01*
X161144000Y-94307388D01*
X161144000Y-94668612D01*
X161282235Y-95002341D01*
X161537659Y-95257765D01*
X161871388Y-95396000D01*
X162232612Y-95396000D01*
X162566341Y-95257765D01*
X162821765Y-95002341D01*
X162960000Y-94668612D01*
X162960000Y-94668300D01*
X166134438Y-94668300D01*
X166216788Y-94723325D01*
X166415000Y-94762752D01*
X166847048Y-94762752D01*
X166847048Y-95194800D01*
X166886475Y-95393012D01*
X166998753Y-95561047D01*
X167166788Y-95673325D01*
X167365000Y-95712752D01*
X167915000Y-95712752D01*
X168006146Y-95694622D01*
X168106542Y-95937000D01*
X163315383Y-95937000D01*
X163295146Y-95941026D01*
X163234842Y-95944978D01*
X163161179Y-95964716D01*
X163085572Y-95974670D01*
X162804033Y-96070240D01*
X162607034Y-96183978D01*
X162383499Y-96380012D01*
X162245021Y-96560480D01*
X162245021Y-96560481D01*
X162113522Y-96827134D01*
X162113521Y-96827136D01*
X162054646Y-97046860D01*
X162035200Y-97343541D01*
X162064891Y-97569070D01*
X162064892Y-97569072D01*
X162123541Y-97741845D01*
X162123445Y-97743422D01*
X162179969Y-97907340D01*
X176261218Y-122028000D01*
X176095388Y-122028000D01*
X175761659Y-122166235D01*
X175506235Y-122421659D01*
X175368000Y-122755388D01*
X175368000Y-123116612D01*
X175506235Y-123450341D01*
X175722942Y-123667048D01*
X175305000Y-123667048D01*
X175106788Y-123706475D01*
X175024438Y-123761500D01*
X174841299Y-123761500D01*
X174898000Y-123624612D01*
X174898000Y-123263388D01*
X174759765Y-122929659D01*
X174504341Y-122674235D01*
X174170612Y-122536000D01*
X173809388Y-122536000D01*
X173475659Y-122674235D01*
X173404394Y-122745500D01*
X162955904Y-122745500D01*
X162821765Y-122421659D01*
X162566341Y-122166235D01*
X162232612Y-122028000D01*
X161871388Y-122028000D01*
X161537659Y-122166235D01*
X161282235Y-122421659D01*
X161144000Y-122755388D01*
X161144000Y-123116612D01*
X161282235Y-123450341D01*
X161537659Y-123705765D01*
X161672215Y-123761500D01*
X160669904Y-123761500D01*
X160535765Y-123437659D01*
X160280341Y-123182235D01*
X159946612Y-123044000D01*
X159585388Y-123044000D01*
X159251659Y-123182235D01*
X158996235Y-123437659D01*
X158858000Y-123771388D01*
X158858000Y-124132612D01*
X158996235Y-124466341D01*
X159251659Y-124721765D01*
X159585388Y-124860000D01*
X159686172Y-124860000D01*
X159731441Y-124905269D01*
X159770410Y-124963590D01*
X160001459Y-125117972D01*
X160205206Y-125158500D01*
X160205210Y-125158500D01*
X160273999Y-125172183D01*
X160342788Y-125158500D01*
X168829414Y-125158500D01*
X168878315Y-125231685D01*
X169123401Y-125395447D01*
X169412500Y-125452952D01*
X169987500Y-125452952D01*
X170276599Y-125395447D01*
X170521685Y-125231685D01*
X170575000Y-125151894D01*
X170628315Y-125231685D01*
X170873401Y-125395447D01*
X171162500Y-125452952D01*
X171737500Y-125452952D01*
X172026599Y-125395447D01*
X172271685Y-125231685D01*
X172320586Y-125158500D01*
X175024438Y-125158500D01*
X175106788Y-125213525D01*
X175305000Y-125252952D01*
X175737048Y-125252952D01*
X175737048Y-125685000D01*
X175776475Y-125883212D01*
X175888753Y-126051247D01*
X176056788Y-126163525D01*
X176255000Y-126202952D01*
X176805000Y-126202952D01*
X176900050Y-126184045D01*
X176996542Y-126417000D01*
X122063952Y-126417000D01*
X122063952Y-124430000D01*
X122033994Y-124279388D01*
X128378000Y-124279388D01*
X128378000Y-124640612D01*
X128516235Y-124974341D01*
X128771659Y-125229765D01*
X129105388Y-125368000D01*
X129466612Y-125368000D01*
X129800341Y-125229765D01*
X129871606Y-125158500D01*
X130475414Y-125158500D01*
X130524315Y-125231685D01*
X130769401Y-125395447D01*
X131058500Y-125452952D01*
X131633500Y-125452952D01*
X131922599Y-125395447D01*
X132167685Y-125231685D01*
X132221000Y-125151894D01*
X132274315Y-125231685D01*
X132519401Y-125395447D01*
X132808500Y-125452952D01*
X133383500Y-125452952D01*
X133672599Y-125395447D01*
X133917685Y-125231685D01*
X133966586Y-125158500D01*
X134257414Y-125158500D01*
X134306315Y-125231685D01*
X134551401Y-125395447D01*
X134840500Y-125452952D01*
X135415500Y-125452952D01*
X135704599Y-125395447D01*
X135949685Y-125231685D01*
X136113447Y-124986599D01*
X136170952Y-124697500D01*
X136170952Y-124222500D01*
X136113447Y-123933401D01*
X135949685Y-123688315D01*
X135704599Y-123524553D01*
X135415500Y-123467048D01*
X134840500Y-123467048D01*
X134551401Y-123524553D01*
X134306315Y-123688315D01*
X134257414Y-123761500D01*
X133966586Y-123761500D01*
X133917685Y-123688315D01*
X133672599Y-123524553D01*
X133383500Y-123467048D01*
X132808500Y-123467048D01*
X132519401Y-123524553D01*
X132274315Y-123688315D01*
X132221000Y-123768106D01*
X132167685Y-123688315D01*
X131922599Y-123524553D01*
X131633500Y-123467048D01*
X131058500Y-123467048D01*
X130769401Y-123524553D01*
X130524315Y-123688315D01*
X130475414Y-123761500D01*
X129871606Y-123761500D01*
X129800341Y-123690235D01*
X129466612Y-123552000D01*
X129105388Y-123552000D01*
X128771659Y-123690235D01*
X128516235Y-123945659D01*
X128378000Y-124279388D01*
X122033994Y-124279388D01*
X122024525Y-124231788D01*
X121912247Y-124063753D01*
X121744212Y-123951475D01*
X121546000Y-123912048D01*
X121290150Y-123912048D01*
X121304000Y-123878612D01*
X121304000Y-123517388D01*
X121233817Y-123347952D01*
X121546000Y-123347952D01*
X121744212Y-123308525D01*
X121912247Y-123196247D01*
X122024525Y-123028212D01*
X122063952Y-122830000D01*
X122063952Y-122330000D01*
X122034115Y-122180000D01*
X122063952Y-122030000D01*
X122063952Y-121530000D01*
X122034115Y-121380000D01*
X122063952Y-121230000D01*
X122063952Y-120730000D01*
X122034115Y-120580000D01*
X122063952Y-120430000D01*
X122063952Y-119930000D01*
X122024525Y-119731788D01*
X121912247Y-119563753D01*
X121744212Y-119451475D01*
X121546000Y-119412048D01*
X119246000Y-119412048D01*
X119047788Y-119451475D01*
X118879753Y-119563753D01*
X118767475Y-119731788D01*
X118728048Y-119930000D01*
X118728048Y-120430000D01*
X118757885Y-120580000D01*
X118728048Y-120730000D01*
X118728048Y-121230000D01*
X118757885Y-121380000D01*
X118728048Y-121530000D01*
X118728048Y-122030000D01*
X118757885Y-122180000D01*
X118728048Y-122330000D01*
X118728048Y-122830000D01*
X118767475Y-123028212D01*
X118879753Y-123196247D01*
X119047788Y-123308525D01*
X119246000Y-123347952D01*
X119558183Y-123347952D01*
X119488000Y-123517388D01*
X119488000Y-123878612D01*
X119501850Y-123912048D01*
X119046000Y-123912048D01*
X118847788Y-123951475D01*
X118679753Y-124063753D01*
X118567475Y-124231788D01*
X118528048Y-124430000D01*
X118528048Y-124541000D01*
X116563952Y-124541000D01*
X116563952Y-124430000D01*
X116524525Y-124231788D01*
X116412247Y-124063753D01*
X116244212Y-123951475D01*
X116046000Y-123912048D01*
X115685000Y-123912048D01*
X115685000Y-123416482D01*
X115704000Y-123370612D01*
X115704000Y-123009388D01*
X115695739Y-122989442D01*
X116588000Y-122989442D01*
X116588000Y-123370558D01*
X116733847Y-123722663D01*
X117003337Y-123992153D01*
X117355442Y-124138000D01*
X117736558Y-124138000D01*
X118088663Y-123992153D01*
X118358153Y-123722663D01*
X118504000Y-123370558D01*
X118504000Y-122989442D01*
X118358153Y-122637337D01*
X118088663Y-122367847D01*
X117736558Y-122222000D01*
X117355442Y-122222000D01*
X117003337Y-122367847D01*
X116733847Y-122637337D01*
X116588000Y-122989442D01*
X115695739Y-122989442D01*
X115685000Y-122963518D01*
X115685000Y-119098482D01*
X115704000Y-119052612D01*
X115704000Y-118691388D01*
X115685000Y-118645518D01*
X115685000Y-118589442D01*
X116588000Y-118589442D01*
X116588000Y-118970558D01*
X116733847Y-119322663D01*
X117003337Y-119592153D01*
X117355442Y-119738000D01*
X117736558Y-119738000D01*
X118088663Y-119592153D01*
X118358153Y-119322663D01*
X118504000Y-118970558D01*
X118504000Y-118589442D01*
X118358153Y-118237337D01*
X118088663Y-117967847D01*
X117736558Y-117822000D01*
X117355442Y-117822000D01*
X117003337Y-117967847D01*
X116733847Y-118237337D01*
X116588000Y-118589442D01*
X115685000Y-118589442D01*
X115685000Y-118047952D01*
X116046000Y-118047952D01*
X116244212Y-118008525D01*
X116412247Y-117896247D01*
X116524525Y-117728212D01*
X116563952Y-117530000D01*
X116563952Y-117419000D01*
X117375518Y-117419000D01*
X117421388Y-117438000D01*
X117782612Y-117438000D01*
X117828482Y-117419000D01*
X118528048Y-117419000D01*
X118528048Y-117530000D01*
X118567475Y-117728212D01*
X118679753Y-117896247D01*
X118847788Y-118008525D01*
X119046000Y-118047952D01*
X121546000Y-118047952D01*
X121744212Y-118008525D01*
X121912247Y-117896247D01*
X122024525Y-117728212D01*
X122063952Y-117530000D01*
X122063952Y-115530000D01*
X122024525Y-115331788D01*
X121912247Y-115163753D01*
X121744212Y-115051475D01*
X121546000Y-115012048D01*
X119046000Y-115012048D01*
X118847788Y-115051475D01*
X118679753Y-115163753D01*
X118567475Y-115331788D01*
X118528048Y-115530000D01*
X118528048Y-115641000D01*
X117828482Y-115641000D01*
X117782612Y-115622000D01*
X117421388Y-115622000D01*
X117375518Y-115641000D01*
X116563952Y-115641000D01*
X116563952Y-115530000D01*
X116524525Y-115331788D01*
X116412247Y-115163753D01*
X116244212Y-115051475D01*
X116046000Y-115012048D01*
X113546000Y-115012048D01*
X113347788Y-115051475D01*
X113179753Y-115163753D01*
X113067475Y-115331788D01*
X113028048Y-115530000D01*
X113028048Y-117530000D01*
X113067475Y-117728212D01*
X113179753Y-117896247D01*
X113347788Y-118008525D01*
X113546000Y-118047952D01*
X113907000Y-118047952D01*
X113907000Y-118645518D01*
X113888000Y-118691388D01*
X113888000Y-119052612D01*
X113907001Y-119098484D01*
X113907000Y-122963518D01*
X113888000Y-123009388D01*
X113888000Y-123370612D01*
X113907000Y-123416482D01*
X113907000Y-123755555D01*
X113907001Y-123755560D01*
X113907001Y-123912048D01*
X113546000Y-123912048D01*
X113347788Y-123951475D01*
X113179753Y-124063753D01*
X113067475Y-124231788D01*
X113028048Y-124430000D01*
X113028048Y-126417000D01*
X106026222Y-126417000D01*
X105904669Y-126392822D01*
X105850304Y-126356496D01*
X105813978Y-126302131D01*
X105801222Y-126238000D01*
X105821628Y-126135411D01*
X105825372Y-126127820D01*
X121729500Y-98884639D01*
X121729501Y-110675202D01*
X121729500Y-110675207D01*
X121729500Y-111066794D01*
X121729501Y-111066798D01*
X121729500Y-113460394D01*
X121658235Y-113531659D01*
X121520000Y-113865388D01*
X121520000Y-114226612D01*
X121658235Y-114560341D01*
X121913659Y-114815765D01*
X122247388Y-114954000D01*
X122608612Y-114954000D01*
X122936000Y-114818392D01*
X123263388Y-114954000D01*
X123624612Y-114954000D01*
X123958341Y-114815765D01*
X124213765Y-114560341D01*
X124352000Y-114226612D01*
X124352000Y-113865388D01*
X124213765Y-113531659D01*
X124142500Y-113460394D01*
X124142500Y-106680000D01*
X130681529Y-106680000D01*
X130787981Y-107215172D01*
X131091132Y-107668868D01*
X131511874Y-107950000D01*
X131091132Y-108231132D01*
X130787981Y-108684828D01*
X130681529Y-109220000D01*
X130787981Y-109755172D01*
X131091132Y-110208868D01*
X131376169Y-110399324D01*
X131367817Y-110441314D01*
X131422028Y-110713854D01*
X131488138Y-110812794D01*
X131576411Y-110944904D01*
X131634731Y-110983872D01*
X132094127Y-111443269D01*
X132133096Y-111501590D01*
X132364145Y-111655972D01*
X132567892Y-111696500D01*
X132567896Y-111696500D01*
X132636686Y-111710183D01*
X132705476Y-111696500D01*
X150459673Y-111696500D01*
X150458731Y-111697442D01*
X150400411Y-111736410D01*
X150361442Y-111794731D01*
X150246028Y-111967460D01*
X150191817Y-112240000D01*
X150205501Y-112308795D01*
X150205500Y-113700005D01*
X150082315Y-113782315D01*
X149918553Y-114027401D01*
X149861048Y-114316500D01*
X149861048Y-114791500D01*
X149918553Y-115080599D01*
X150067964Y-115304207D01*
X149700124Y-115672048D01*
X148745000Y-115672048D01*
X148546788Y-115711475D01*
X148378753Y-115823753D01*
X148266475Y-115991788D01*
X148227048Y-116190000D01*
X148227048Y-117490000D01*
X148266475Y-117688212D01*
X148378753Y-117856247D01*
X148546788Y-117968525D01*
X148745000Y-118007952D01*
X150295000Y-118007952D01*
X150493212Y-117968525D01*
X150661247Y-117856247D01*
X150773525Y-117688212D01*
X150803305Y-117538500D01*
X156196695Y-117538500D01*
X156226475Y-117688212D01*
X156338753Y-117856247D01*
X156506788Y-117968525D01*
X156705000Y-118007952D01*
X158255000Y-118007952D01*
X158453212Y-117968525D01*
X158621247Y-117856247D01*
X158733525Y-117688212D01*
X158772952Y-117490000D01*
X158772952Y-116190000D01*
X158733525Y-115991788D01*
X158621247Y-115823753D01*
X158453212Y-115711475D01*
X158255000Y-115672048D01*
X156705000Y-115672048D01*
X156506788Y-115711475D01*
X156338753Y-115823753D01*
X156226475Y-115991788D01*
X156196695Y-116141500D01*
X151206329Y-116141500D01*
X151349272Y-115998557D01*
X151407590Y-115959590D01*
X151446557Y-115901272D01*
X151446559Y-115901270D01*
X151561972Y-115728541D01*
X151616184Y-115456000D01*
X151606150Y-115405556D01*
X151725685Y-115325685D01*
X151779000Y-115245894D01*
X151832315Y-115325685D01*
X152077401Y-115489447D01*
X152366500Y-115546952D01*
X152941500Y-115546952D01*
X153230599Y-115489447D01*
X153475685Y-115325685D01*
X153524586Y-115252500D01*
X153815414Y-115252500D01*
X153864315Y-115325685D01*
X154109401Y-115489447D01*
X154398500Y-115546952D01*
X154973500Y-115546952D01*
X155262599Y-115489447D01*
X155507685Y-115325685D01*
X155561000Y-115245894D01*
X155614315Y-115325685D01*
X155859401Y-115489447D01*
X156148500Y-115546952D01*
X156723500Y-115546952D01*
X157012599Y-115489447D01*
X157257685Y-115325685D01*
X157306586Y-115252500D01*
X157402394Y-115252500D01*
X157473659Y-115323765D01*
X157807388Y-115462000D01*
X158168612Y-115462000D01*
X158502341Y-115323765D01*
X158757765Y-115068341D01*
X158896000Y-114734612D01*
X158896000Y-114373388D01*
X158757765Y-114039659D01*
X158502341Y-113784235D01*
X158168612Y-113646000D01*
X157807388Y-113646000D01*
X157473659Y-113784235D01*
X157402394Y-113855500D01*
X157306586Y-113855500D01*
X157257685Y-113782315D01*
X157012599Y-113618553D01*
X156723500Y-113561048D01*
X156148500Y-113561048D01*
X155859401Y-113618553D01*
X155614315Y-113782315D01*
X155561000Y-113862106D01*
X155507685Y-113782315D01*
X155262599Y-113618553D01*
X154973500Y-113561048D01*
X154398500Y-113561048D01*
X154109401Y-113618553D01*
X153864315Y-113782315D01*
X153815414Y-113855500D01*
X153524586Y-113855500D01*
X153475685Y-113782315D01*
X153230599Y-113618553D01*
X152941500Y-113561048D01*
X152366500Y-113561048D01*
X152077401Y-113618553D01*
X151832315Y-113782315D01*
X151779000Y-113862106D01*
X151725685Y-113782315D01*
X151602500Y-113700005D01*
X151602500Y-112529328D01*
X151673328Y-112458500D01*
X156649210Y-112458500D01*
X156718000Y-112472183D01*
X156786790Y-112458500D01*
X156786794Y-112458500D01*
X156990541Y-112417972D01*
X157221590Y-112263590D01*
X157260560Y-112205267D01*
X159449271Y-110016557D01*
X159507589Y-109977590D01*
X159546556Y-109919272D01*
X159546558Y-109919270D01*
X159661971Y-109746542D01*
X159661972Y-109746541D01*
X159702500Y-109542794D01*
X159702500Y-109542790D01*
X159716183Y-109474001D01*
X159702500Y-109405212D01*
X159702500Y-107373000D01*
X159946612Y-107373000D01*
X160280341Y-107234765D01*
X160535765Y-106979341D01*
X160674000Y-106645612D01*
X160674000Y-106284388D01*
X160535765Y-105950659D01*
X160280341Y-105695235D01*
X159946612Y-105557000D01*
X159845828Y-105557000D01*
X159253560Y-104964733D01*
X159214590Y-104906410D01*
X158983541Y-104752028D01*
X158779794Y-104711500D01*
X158779790Y-104711500D01*
X158776674Y-104710880D01*
X158808525Y-104663212D01*
X158847952Y-104465000D01*
X158847952Y-103815000D01*
X158808525Y-103616788D01*
X158696247Y-103448753D01*
X158528212Y-103336475D01*
X158330000Y-103297048D01*
X158178500Y-103297048D01*
X158178500Y-102947606D01*
X158249765Y-102876341D01*
X158388000Y-102542612D01*
X158388000Y-102181388D01*
X158249765Y-101847659D01*
X157994341Y-101592235D01*
X157660612Y-101454000D01*
X157299388Y-101454000D01*
X156965659Y-101592235D01*
X156710235Y-101847659D01*
X156572000Y-102181388D01*
X156572000Y-102542612D01*
X156710235Y-102876341D01*
X156781501Y-102947607D01*
X156781500Y-103297048D01*
X156630000Y-103297048D01*
X156431788Y-103336475D01*
X156263753Y-103448753D01*
X156151475Y-103616788D01*
X156112048Y-103815000D01*
X156112048Y-104465000D01*
X156151475Y-104663212D01*
X156226170Y-104775000D01*
X156151475Y-104886788D01*
X156112048Y-105085000D01*
X156112048Y-105735000D01*
X156151475Y-105933212D01*
X156226170Y-106045000D01*
X156151475Y-106156788D01*
X156112048Y-106355000D01*
X156112048Y-107005000D01*
X156151475Y-107203212D01*
X156183326Y-107250880D01*
X156180210Y-107251500D01*
X156180206Y-107251500D01*
X155976459Y-107292028D01*
X155745410Y-107446410D01*
X155706442Y-107504730D01*
X152911673Y-110299500D01*
X149457039Y-110299500D01*
X149472952Y-110219500D01*
X149472952Y-109744500D01*
X149415447Y-109455401D01*
X149251685Y-109210315D01*
X149006599Y-109046553D01*
X148717500Y-108989048D01*
X148142500Y-108989048D01*
X147853401Y-109046553D01*
X147608315Y-109210315D01*
X147559414Y-109283500D01*
X147397606Y-109283500D01*
X147326341Y-109212235D01*
X146992612Y-109074000D01*
X146631388Y-109074000D01*
X146297659Y-109212235D01*
X146042235Y-109467659D01*
X145904000Y-109801388D01*
X145904000Y-110162612D01*
X145960701Y-110299500D01*
X135473228Y-110299500D01*
X135608868Y-110208868D01*
X135912019Y-109755172D01*
X136018471Y-109220000D01*
X135912019Y-108684828D01*
X135866282Y-108616378D01*
X135908541Y-108607972D01*
X136139590Y-108453590D01*
X136178560Y-108395267D01*
X137195328Y-107378500D01*
X148974608Y-107378500D01*
X149131788Y-107483525D01*
X149330000Y-107522952D01*
X151030000Y-107522952D01*
X151228212Y-107483525D01*
X151396247Y-107371247D01*
X151508525Y-107203212D01*
X151547952Y-107005000D01*
X151547952Y-106355000D01*
X151508525Y-106156788D01*
X151476674Y-106109120D01*
X151479790Y-106108500D01*
X151479794Y-106108500D01*
X151683541Y-106067972D01*
X151914590Y-105913590D01*
X151953561Y-105855266D01*
X152083268Y-105725559D01*
X152141589Y-105686590D01*
X152295972Y-105455541D01*
X152336500Y-105251794D01*
X152336500Y-105251790D01*
X152350183Y-105183001D01*
X152336500Y-105114212D01*
X152336500Y-103788888D01*
X152350183Y-103720098D01*
X152336500Y-103651308D01*
X152336500Y-103651304D01*
X152295972Y-103447557D01*
X152141590Y-103216508D01*
X152083269Y-103177539D01*
X151584462Y-102678733D01*
X151545492Y-102620410D01*
X151314443Y-102466028D01*
X151110696Y-102425500D01*
X151110692Y-102425500D01*
X151041902Y-102411817D01*
X150973112Y-102425500D01*
X148912790Y-102425500D01*
X148844000Y-102411817D01*
X148775210Y-102425500D01*
X148775206Y-102425500D01*
X148571459Y-102466028D01*
X148340410Y-102620410D01*
X148301441Y-102678731D01*
X146522673Y-104457500D01*
X136212794Y-104457500D01*
X136144000Y-104443816D01*
X136075206Y-104457500D01*
X135871459Y-104498028D01*
X135740894Y-104585269D01*
X135709157Y-104606475D01*
X135640410Y-104652410D01*
X135611551Y-104695601D01*
X133623430Y-104695601D01*
X133461552Y-104533724D01*
X133461552Y-103276400D01*
X133422125Y-103078188D01*
X133309847Y-102910153D01*
X133141812Y-102797875D01*
X132943600Y-102758448D01*
X131216400Y-102758448D01*
X131018188Y-102797875D01*
X130850153Y-102910153D01*
X130737875Y-103078188D01*
X130698448Y-103276400D01*
X130698448Y-105003600D01*
X130737875Y-105201812D01*
X130850153Y-105369847D01*
X131018188Y-105482125D01*
X131216400Y-105521552D01*
X131344926Y-105521552D01*
X131091132Y-105691132D01*
X130787981Y-106144828D01*
X130681529Y-106680000D01*
X124142500Y-106680000D01*
X124142500Y-94883904D01*
X124466341Y-94749765D01*
X124721765Y-94494341D01*
X124860000Y-94160612D01*
X124860000Y-93799388D01*
X124721765Y-93465659D01*
X124466341Y-93210235D01*
X124132612Y-93072000D01*
X123771388Y-93072000D01*
X123437659Y-93210235D01*
X123182235Y-93465659D01*
X123044000Y-93799388D01*
X123044000Y-93819894D01*
X122942341Y-93718235D01*
X122608612Y-93580000D01*
X122247388Y-93580000D01*
X121913659Y-93718235D01*
X121658235Y-93973659D01*
X121520000Y-94307388D01*
X121520000Y-94668612D01*
X121658235Y-95002341D01*
X121729500Y-95073606D01*
X121729500Y-96097765D01*
X121723070Y-96093469D01*
X121723069Y-96093468D01*
X121595312Y-96040549D01*
X121512911Y-96006417D01*
X121512910Y-96006417D01*
X121334966Y-95971022D01*
X121334675Y-95970827D01*
X121164617Y-95937000D01*
X119799306Y-95937000D01*
X119966765Y-95769541D01*
X120105000Y-95435812D01*
X120105000Y-95074588D01*
X119966765Y-94740859D01*
X119711341Y-94485435D01*
X119377612Y-94347200D01*
X119249196Y-94347200D01*
X119159741Y-94287428D01*
X118955994Y-94246900D01*
X118955990Y-94246900D01*
X118887200Y-94233217D01*
X118818410Y-94246900D01*
X118648952Y-94246900D01*
X118648952Y-94174875D01*
X118951828Y-93872000D01*
X119052612Y-93872000D01*
X119386341Y-93733765D01*
X119641765Y-93478341D01*
X119780000Y-93144612D01*
X119780000Y-92783388D01*
X119641765Y-92449659D01*
X119386341Y-92194235D01*
X119052612Y-92056000D01*
X118691388Y-92056000D01*
X118357659Y-92194235D01*
X118102235Y-92449659D01*
X117964000Y-92783388D01*
X117964000Y-92884172D01*
X117661125Y-93187048D01*
X117581000Y-93187048D01*
X117382788Y-93226475D01*
X117214753Y-93338753D01*
X117102475Y-93506788D01*
X117063048Y-93705000D01*
X117063048Y-94137048D01*
X116631000Y-94137048D01*
X116432788Y-94176475D01*
X116327390Y-94246900D01*
X116019588Y-94246900D01*
X115950799Y-94233217D01*
X115882010Y-94246900D01*
X115882006Y-94246900D01*
X115678259Y-94287428D01*
X115588804Y-94347200D01*
X115460388Y-94347200D01*
X115210532Y-94450694D01*
X128841501Y-71887486D01*
X128841501Y-72575202D01*
X128841500Y-72575207D01*
X128841501Y-92060095D01*
X128517659Y-92194235D01*
X128262235Y-92449659D01*
X128124000Y-92783388D01*
X128124000Y-93144612D01*
X128262235Y-93478341D01*
X128517659Y-93733765D01*
X128851388Y-93872000D01*
X129212612Y-93872000D01*
X129546341Y-93733765D01*
X129801765Y-93478341D01*
X129940000Y-93144612D01*
X129940000Y-93043828D01*
X129985269Y-92998559D01*
X130043590Y-92959590D01*
X130197972Y-92728541D01*
X130238500Y-92524794D01*
X130238500Y-92524790D01*
X130252183Y-92456001D01*
X130238500Y-92387212D01*
X130238500Y-91440000D01*
X137045396Y-91440000D01*
X137150793Y-91969865D01*
X137450937Y-92419063D01*
X137886356Y-92710000D01*
X137450937Y-93000937D01*
X137150793Y-93450135D01*
X137045396Y-93980000D01*
X137150793Y-94509865D01*
X137450937Y-94959063D01*
X137900135Y-95259207D01*
X138296253Y-95338000D01*
X138563747Y-95338000D01*
X138959865Y-95259207D01*
X139409063Y-94959063D01*
X139709207Y-94509865D01*
X139814604Y-93980000D01*
X139709207Y-93450135D01*
X139409063Y-93000937D01*
X138973644Y-92710000D01*
X139409063Y-92419063D01*
X139709207Y-91969865D01*
X139814604Y-91440000D01*
X139709207Y-90910135D01*
X139409063Y-90460937D01*
X138959865Y-90160793D01*
X138563747Y-90082000D01*
X138296253Y-90082000D01*
X137900135Y-90160793D01*
X137450937Y-90460937D01*
X137150793Y-90910135D01*
X137045396Y-91440000D01*
X130238500Y-91440000D01*
X130238500Y-68403606D01*
X130309765Y-68332341D01*
X130448000Y-67998612D01*
X130448000Y-67637388D01*
X130309765Y-67303659D01*
X130054341Y-67048235D01*
X129720612Y-66910000D01*
X129359388Y-66910000D01*
X129025659Y-67048235D01*
X128770235Y-67303659D01*
X128632000Y-67637388D01*
X128632000Y-67998612D01*
X128770235Y-68332341D01*
X128841500Y-68403606D01*
X128841500Y-69190159D01*
X128809670Y-69168891D01*
X128809669Y-69168890D01*
X128681912Y-69115971D01*
X128599511Y-69081839D01*
X128599510Y-69081839D01*
X128307905Y-69023835D01*
X128305688Y-69023835D01*
X128251217Y-69013000D01*
X127549458Y-69013000D01*
X127654000Y-68760612D01*
X127654000Y-68399388D01*
X127515765Y-68065659D01*
X127260341Y-67810235D01*
X126926612Y-67672000D01*
X126798196Y-67672000D01*
X126708741Y-67612228D01*
X126504994Y-67571700D01*
X126504990Y-67571700D01*
X126436200Y-67558017D01*
X126367410Y-67571700D01*
X126202127Y-67571700D01*
X126571828Y-67202000D01*
X126672612Y-67202000D01*
X127006341Y-67063765D01*
X127261765Y-66808341D01*
X127400000Y-66474612D01*
X127400000Y-66113388D01*
X127261765Y-65779659D01*
X127006341Y-65524235D01*
X126672612Y-65386000D01*
X126311388Y-65386000D01*
X125977659Y-65524235D01*
X125722235Y-65779659D01*
X125584000Y-66113388D01*
X125584000Y-66214172D01*
X125270925Y-66527248D01*
X125124800Y-66527248D01*
X124926588Y-66566675D01*
X124758553Y-66678953D01*
X124646275Y-66846988D01*
X124606848Y-67045200D01*
X124606848Y-67477248D01*
X124174800Y-67477248D01*
X123976588Y-67516675D01*
X123894238Y-67571700D01*
X123568588Y-67571700D01*
X123499799Y-67558017D01*
X123431010Y-67571700D01*
X123431006Y-67571700D01*
X123227259Y-67612228D01*
X123138335Y-67671645D01*
X140220065Y-36412080D01*
X140251373Y-36414132D01*
X140310015Y-36443051D01*
X140353127Y-36492212D01*
X140386749Y-36591258D01*
X140387001Y-36595104D01*
X140387000Y-65993173D01*
X140245661Y-65851833D01*
X140215765Y-65779659D01*
X139960341Y-65524235D01*
X139626612Y-65386000D01*
X139265388Y-65386000D01*
X138931659Y-65524235D01*
X138676235Y-65779659D01*
X138538000Y-66113388D01*
X138538000Y-66474612D01*
X138676235Y-66808341D01*
X138931659Y-67063765D01*
X139265388Y-67202000D01*
X139509501Y-67202000D01*
X139509500Y-67749205D01*
X139509500Y-68140793D01*
X139509501Y-68140798D01*
X139509500Y-85275210D01*
X139495817Y-85344000D01*
X139509500Y-85412790D01*
X139509500Y-85412793D01*
X139550028Y-85616540D01*
X139704410Y-85847589D01*
X139762731Y-85886558D01*
X140173441Y-86297269D01*
X140212410Y-86355590D01*
X140443459Y-86509972D01*
X140647206Y-86550500D01*
X140647210Y-86550500D01*
X140715999Y-86564183D01*
X140784788Y-86550500D01*
X143695210Y-86550500D01*
X143764000Y-86564183D01*
X143832790Y-86550500D01*
X143832794Y-86550500D01*
X144036541Y-86509972D01*
X144267590Y-86355590D01*
X144306560Y-86297267D01*
X144717269Y-85886559D01*
X144775590Y-85847590D01*
X144929972Y-85616541D01*
X144970500Y-85412794D01*
X144970500Y-85412790D01*
X144984183Y-85344001D01*
X144970500Y-85275212D01*
X144970500Y-67202000D01*
X145214612Y-67202000D01*
X145548341Y-67063765D01*
X145803765Y-66808341D01*
X145942000Y-66474612D01*
X145942000Y-66113388D01*
X145803765Y-65779659D01*
X145548341Y-65524235D01*
X145214612Y-65386000D01*
X144853388Y-65386000D01*
X144519659Y-65524235D01*
X144264235Y-65779659D01*
X144234340Y-65851832D01*
X144093000Y-65993172D01*
X144093000Y-36632933D01*
X144117178Y-36511380D01*
X144153504Y-36457015D01*
X144207869Y-36420689D01*
X144259074Y-36410504D01*
X159815082Y-64878000D01*
X159815082Y-64878000D01*
G37*
X159815082Y-64878000D02*
X159585388Y-64878000D01*
X159251659Y-65016235D01*
X158996235Y-65271659D01*
X158858000Y-65605388D01*
X158858000Y-65966612D01*
X158996235Y-66300341D01*
X159212942Y-66517048D01*
X158795000Y-66517048D01*
X158596788Y-66556475D01*
X158514438Y-66611500D01*
X155516788Y-66611500D01*
X155447999Y-66597817D01*
X155379210Y-66611500D01*
X155379206Y-66611500D01*
X155175459Y-66652028D01*
X154944410Y-66806410D01*
X154905441Y-66864731D01*
X154860172Y-66910000D01*
X154759388Y-66910000D01*
X154425659Y-67048235D01*
X154170235Y-67303659D01*
X154032000Y-67637388D01*
X154032000Y-67998612D01*
X154170235Y-68332341D01*
X154425659Y-68587765D01*
X154759388Y-68726000D01*
X155120612Y-68726000D01*
X155454341Y-68587765D01*
X155709765Y-68332341D01*
X155843904Y-68008500D01*
X158514438Y-68008500D01*
X158596788Y-68063525D01*
X158795000Y-68102952D01*
X159227048Y-68102952D01*
X159227048Y-68535000D01*
X159266475Y-68733212D01*
X159378753Y-68901247D01*
X159546002Y-69013000D01*
X156228783Y-69013000D01*
X156212879Y-69016163D01*
X156148242Y-69020400D01*
X156074579Y-69040138D01*
X155998972Y-69050092D01*
X155717433Y-69145662D01*
X155520434Y-69259400D01*
X155296899Y-69455434D01*
X155158421Y-69635902D01*
X155158421Y-69635903D01*
X155026922Y-69902556D01*
X155026921Y-69902558D01*
X154968046Y-70122282D01*
X154948600Y-70418963D01*
X154978291Y-70644492D01*
X154978292Y-70644494D01*
X155038424Y-70821635D01*
X155038121Y-70828268D01*
X155097103Y-70991317D01*
X167515882Y-91548000D01*
X167205388Y-91548000D01*
X166871659Y-91686235D01*
X166616235Y-91941659D01*
X166478000Y-92275388D01*
X166478000Y-92636612D01*
X166616235Y-92970341D01*
X166822742Y-93176848D01*
X166415000Y-93176848D01*
X166216788Y-93216275D01*
X166134438Y-93271300D01*
X165955524Y-93271300D01*
X166008000Y-93144612D01*
X166008000Y-92783388D01*
X165869765Y-92449659D01*
X165614341Y-92194235D01*
X165280612Y-92056000D01*
X164919388Y-92056000D01*
X164585659Y-92194235D01*
X164514394Y-92265500D01*
X155843904Y-92265500D01*
X155709765Y-91941659D01*
X155454341Y-91686235D01*
X155120612Y-91548000D01*
X154759388Y-91548000D01*
X154425659Y-91686235D01*
X154170235Y-91941659D01*
X154032000Y-92275388D01*
X154032000Y-92636612D01*
X154170235Y-92970341D01*
X154425659Y-93225765D01*
X154759388Y-93364000D01*
X154860172Y-93364000D01*
X154905441Y-93409269D01*
X154944410Y-93467590D01*
X155175459Y-93621972D01*
X155379206Y-93662500D01*
X155379210Y-93662500D01*
X155447999Y-93676183D01*
X155516788Y-93662500D01*
X161672215Y-93662500D01*
X161537659Y-93718235D01*
X161282235Y-93973659D01*
X161144000Y-94307388D01*
X161144000Y-94668612D01*
X161282235Y-95002341D01*
X161537659Y-95257765D01*
X161871388Y-95396000D01*
X162232612Y-95396000D01*
X162566341Y-95257765D01*
X162821765Y-95002341D01*
X162960000Y-94668612D01*
X162960000Y-94668300D01*
X166134438Y-94668300D01*
X166216788Y-94723325D01*
X166415000Y-94762752D01*
X166847048Y-94762752D01*
X166847048Y-95194800D01*
X166886475Y-95393012D01*
X166998753Y-95561047D01*
X167166788Y-95673325D01*
X167365000Y-95712752D01*
X167915000Y-95712752D01*
X168006146Y-95694622D01*
X168106542Y-95937000D01*
X163315383Y-95937000D01*
X163295146Y-95941026D01*
X163234842Y-95944978D01*
X163161179Y-95964716D01*
X163085572Y-95974670D01*
X162804033Y-96070240D01*
X162607034Y-96183978D01*
X162383499Y-96380012D01*
X162245021Y-96560480D01*
X162245021Y-96560481D01*
X162113522Y-96827134D01*
X162113521Y-96827136D01*
X162054646Y-97046860D01*
X162035200Y-97343541D01*
X162064891Y-97569070D01*
X162064892Y-97569072D01*
X162123541Y-97741845D01*
X162123445Y-97743422D01*
X162179969Y-97907340D01*
X176261218Y-122028000D01*
X176095388Y-122028000D01*
X175761659Y-122166235D01*
X175506235Y-122421659D01*
X175368000Y-122755388D01*
X175368000Y-123116612D01*
X175506235Y-123450341D01*
X175722942Y-123667048D01*
X175305000Y-123667048D01*
X175106788Y-123706475D01*
X175024438Y-123761500D01*
X174841299Y-123761500D01*
X174898000Y-123624612D01*
X174898000Y-123263388D01*
X174759765Y-122929659D01*
X174504341Y-122674235D01*
X174170612Y-122536000D01*
X173809388Y-122536000D01*
X173475659Y-122674235D01*
X173404394Y-122745500D01*
X162955904Y-122745500D01*
X162821765Y-122421659D01*
X162566341Y-122166235D01*
X162232612Y-122028000D01*
X161871388Y-122028000D01*
X161537659Y-122166235D01*
X161282235Y-122421659D01*
X161144000Y-122755388D01*
X161144000Y-123116612D01*
X161282235Y-123450341D01*
X161537659Y-123705765D01*
X161672215Y-123761500D01*
X160669904Y-123761500D01*
X160535765Y-123437659D01*
X160280341Y-123182235D01*
X159946612Y-123044000D01*
X159585388Y-123044000D01*
X159251659Y-123182235D01*
X158996235Y-123437659D01*
X158858000Y-123771388D01*
X158858000Y-124132612D01*
X158996235Y-124466341D01*
X159251659Y-124721765D01*
X159585388Y-124860000D01*
X159686172Y-124860000D01*
X159731441Y-124905269D01*
X159770410Y-124963590D01*
X160001459Y-125117972D01*
X160205206Y-125158500D01*
X160205210Y-125158500D01*
X160273999Y-125172183D01*
X160342788Y-125158500D01*
X168829414Y-125158500D01*
X168878315Y-125231685D01*
X169123401Y-125395447D01*
X169412500Y-125452952D01*
X169987500Y-125452952D01*
X170276599Y-125395447D01*
X170521685Y-125231685D01*
X170575000Y-125151894D01*
X170628315Y-125231685D01*
X170873401Y-125395447D01*
X171162500Y-125452952D01*
X171737500Y-125452952D01*
X172026599Y-125395447D01*
X172271685Y-125231685D01*
X172320586Y-125158500D01*
X175024438Y-125158500D01*
X175106788Y-125213525D01*
X175305000Y-125252952D01*
X175737048Y-125252952D01*
X175737048Y-125685000D01*
X175776475Y-125883212D01*
X175888753Y-126051247D01*
X176056788Y-126163525D01*
X176255000Y-126202952D01*
X176805000Y-126202952D01*
X176900050Y-126184045D01*
X176996542Y-126417000D01*
X122063952Y-126417000D01*
X122063952Y-124430000D01*
X122033994Y-124279388D01*
X128378000Y-124279388D01*
X128378000Y-124640612D01*
X128516235Y-124974341D01*
X128771659Y-125229765D01*
X129105388Y-125368000D01*
X129466612Y-125368000D01*
X129800341Y-125229765D01*
X129871606Y-125158500D01*
X130475414Y-125158500D01*
X130524315Y-125231685D01*
X130769401Y-125395447D01*
X131058500Y-125452952D01*
X131633500Y-125452952D01*
X131922599Y-125395447D01*
X132167685Y-125231685D01*
X132221000Y-125151894D01*
X132274315Y-125231685D01*
X132519401Y-125395447D01*
X132808500Y-125452952D01*
X133383500Y-125452952D01*
X133672599Y-125395447D01*
X133917685Y-125231685D01*
X133966586Y-125158500D01*
X134257414Y-125158500D01*
X134306315Y-125231685D01*
X134551401Y-125395447D01*
X134840500Y-125452952D01*
X135415500Y-125452952D01*
X135704599Y-125395447D01*
X135949685Y-125231685D01*
X136113447Y-124986599D01*
X136170952Y-124697500D01*
X136170952Y-124222500D01*
X136113447Y-123933401D01*
X135949685Y-123688315D01*
X135704599Y-123524553D01*
X135415500Y-123467048D01*
X134840500Y-123467048D01*
X134551401Y-123524553D01*
X134306315Y-123688315D01*
X134257414Y-123761500D01*
X133966586Y-123761500D01*
X133917685Y-123688315D01*
X133672599Y-123524553D01*
X133383500Y-123467048D01*
X132808500Y-123467048D01*
X132519401Y-123524553D01*
X132274315Y-123688315D01*
X132221000Y-123768106D01*
X132167685Y-123688315D01*
X131922599Y-123524553D01*
X131633500Y-123467048D01*
X131058500Y-123467048D01*
X130769401Y-123524553D01*
X130524315Y-123688315D01*
X130475414Y-123761500D01*
X129871606Y-123761500D01*
X129800341Y-123690235D01*
X129466612Y-123552000D01*
X129105388Y-123552000D01*
X128771659Y-123690235D01*
X128516235Y-123945659D01*
X128378000Y-124279388D01*
X122033994Y-124279388D01*
X122024525Y-124231788D01*
X121912247Y-124063753D01*
X121744212Y-123951475D01*
X121546000Y-123912048D01*
X121290150Y-123912048D01*
X121304000Y-123878612D01*
X121304000Y-123517388D01*
X121233817Y-123347952D01*
X121546000Y-123347952D01*
X121744212Y-123308525D01*
X121912247Y-123196247D01*
X122024525Y-123028212D01*
X122063952Y-122830000D01*
X122063952Y-122330000D01*
X122034115Y-122180000D01*
X122063952Y-122030000D01*
X122063952Y-121530000D01*
X122034115Y-121380000D01*
X122063952Y-121230000D01*
X122063952Y-120730000D01*
X122034115Y-120580000D01*
X122063952Y-120430000D01*
X122063952Y-119930000D01*
X122024525Y-119731788D01*
X121912247Y-119563753D01*
X121744212Y-119451475D01*
X121546000Y-119412048D01*
X119246000Y-119412048D01*
X119047788Y-119451475D01*
X118879753Y-119563753D01*
X118767475Y-119731788D01*
X118728048Y-119930000D01*
X118728048Y-120430000D01*
X118757885Y-120580000D01*
X118728048Y-120730000D01*
X118728048Y-121230000D01*
X118757885Y-121380000D01*
X118728048Y-121530000D01*
X118728048Y-122030000D01*
X118757885Y-122180000D01*
X118728048Y-122330000D01*
X118728048Y-122830000D01*
X118767475Y-123028212D01*
X118879753Y-123196247D01*
X119047788Y-123308525D01*
X119246000Y-123347952D01*
X119558183Y-123347952D01*
X119488000Y-123517388D01*
X119488000Y-123878612D01*
X119501850Y-123912048D01*
X119046000Y-123912048D01*
X118847788Y-123951475D01*
X118679753Y-124063753D01*
X118567475Y-124231788D01*
X118528048Y-124430000D01*
X118528048Y-124541000D01*
X116563952Y-124541000D01*
X116563952Y-124430000D01*
X116524525Y-124231788D01*
X116412247Y-124063753D01*
X116244212Y-123951475D01*
X116046000Y-123912048D01*
X115685000Y-123912048D01*
X115685000Y-123416482D01*
X115704000Y-123370612D01*
X115704000Y-123009388D01*
X115695739Y-122989442D01*
X116588000Y-122989442D01*
X116588000Y-123370558D01*
X116733847Y-123722663D01*
X117003337Y-123992153D01*
X117355442Y-124138000D01*
X117736558Y-124138000D01*
X118088663Y-123992153D01*
X118358153Y-123722663D01*
X118504000Y-123370558D01*
X118504000Y-122989442D01*
X118358153Y-122637337D01*
X118088663Y-122367847D01*
X117736558Y-122222000D01*
X117355442Y-122222000D01*
X117003337Y-122367847D01*
X116733847Y-122637337D01*
X116588000Y-122989442D01*
X115695739Y-122989442D01*
X115685000Y-122963518D01*
X115685000Y-119098482D01*
X115704000Y-119052612D01*
X115704000Y-118691388D01*
X115685000Y-118645518D01*
X115685000Y-118589442D01*
X116588000Y-118589442D01*
X116588000Y-118970558D01*
X116733847Y-119322663D01*
X117003337Y-119592153D01*
X117355442Y-119738000D01*
X117736558Y-119738000D01*
X118088663Y-119592153D01*
X118358153Y-119322663D01*
X118504000Y-118970558D01*
X118504000Y-118589442D01*
X118358153Y-118237337D01*
X118088663Y-117967847D01*
X117736558Y-117822000D01*
X117355442Y-117822000D01*
X117003337Y-117967847D01*
X116733847Y-118237337D01*
X116588000Y-118589442D01*
X115685000Y-118589442D01*
X115685000Y-118047952D01*
X116046000Y-118047952D01*
X116244212Y-118008525D01*
X116412247Y-117896247D01*
X116524525Y-117728212D01*
X116563952Y-117530000D01*
X116563952Y-117419000D01*
X117375518Y-117419000D01*
X117421388Y-117438000D01*
X117782612Y-117438000D01*
X117828482Y-117419000D01*
X118528048Y-117419000D01*
X118528048Y-117530000D01*
X118567475Y-117728212D01*
X118679753Y-117896247D01*
X118847788Y-118008525D01*
X119046000Y-118047952D01*
X121546000Y-118047952D01*
X121744212Y-118008525D01*
X121912247Y-117896247D01*
X122024525Y-117728212D01*
X122063952Y-117530000D01*
X122063952Y-115530000D01*
X122024525Y-115331788D01*
X121912247Y-115163753D01*
X121744212Y-115051475D01*
X121546000Y-115012048D01*
X119046000Y-115012048D01*
X118847788Y-115051475D01*
X118679753Y-115163753D01*
X118567475Y-115331788D01*
X118528048Y-115530000D01*
X118528048Y-115641000D01*
X117828482Y-115641000D01*
X117782612Y-115622000D01*
X117421388Y-115622000D01*
X117375518Y-115641000D01*
X116563952Y-115641000D01*
X116563952Y-115530000D01*
X116524525Y-115331788D01*
X116412247Y-115163753D01*
X116244212Y-115051475D01*
X116046000Y-115012048D01*
X113546000Y-115012048D01*
X113347788Y-115051475D01*
X113179753Y-115163753D01*
X113067475Y-115331788D01*
X113028048Y-115530000D01*
X113028048Y-117530000D01*
X113067475Y-117728212D01*
X113179753Y-117896247D01*
X113347788Y-118008525D01*
X113546000Y-118047952D01*
X113907000Y-118047952D01*
X113907000Y-118645518D01*
X113888000Y-118691388D01*
X113888000Y-119052612D01*
X113907001Y-119098484D01*
X113907000Y-122963518D01*
X113888000Y-123009388D01*
X113888000Y-123370612D01*
X113907000Y-123416482D01*
X113907000Y-123755555D01*
X113907001Y-123755560D01*
X113907001Y-123912048D01*
X113546000Y-123912048D01*
X113347788Y-123951475D01*
X113179753Y-124063753D01*
X113067475Y-124231788D01*
X113028048Y-124430000D01*
X113028048Y-126417000D01*
X106026222Y-126417000D01*
X105904669Y-126392822D01*
X105850304Y-126356496D01*
X105813978Y-126302131D01*
X105801222Y-126238000D01*
X105821628Y-126135411D01*
X105825372Y-126127820D01*
X121729500Y-98884639D01*
X121729501Y-110675202D01*
X121729500Y-110675207D01*
X121729500Y-111066794D01*
X121729501Y-111066798D01*
X121729500Y-113460394D01*
X121658235Y-113531659D01*
X121520000Y-113865388D01*
X121520000Y-114226612D01*
X121658235Y-114560341D01*
X121913659Y-114815765D01*
X122247388Y-114954000D01*
X122608612Y-114954000D01*
X122936000Y-114818392D01*
X123263388Y-114954000D01*
X123624612Y-114954000D01*
X123958341Y-114815765D01*
X124213765Y-114560341D01*
X124352000Y-114226612D01*
X124352000Y-113865388D01*
X124213765Y-113531659D01*
X124142500Y-113460394D01*
X124142500Y-106680000D01*
X130681529Y-106680000D01*
X130787981Y-107215172D01*
X131091132Y-107668868D01*
X131511874Y-107950000D01*
X131091132Y-108231132D01*
X130787981Y-108684828D01*
X130681529Y-109220000D01*
X130787981Y-109755172D01*
X131091132Y-110208868D01*
X131376169Y-110399324D01*
X131367817Y-110441314D01*
X131422028Y-110713854D01*
X131488138Y-110812794D01*
X131576411Y-110944904D01*
X131634731Y-110983872D01*
X132094127Y-111443269D01*
X132133096Y-111501590D01*
X132364145Y-111655972D01*
X132567892Y-111696500D01*
X132567896Y-111696500D01*
X132636686Y-111710183D01*
X132705476Y-111696500D01*
X150459673Y-111696500D01*
X150458731Y-111697442D01*
X150400411Y-111736410D01*
X150361442Y-111794731D01*
X150246028Y-111967460D01*
X150191817Y-112240000D01*
X150205501Y-112308795D01*
X150205500Y-113700005D01*
X150082315Y-113782315D01*
X149918553Y-114027401D01*
X149861048Y-114316500D01*
X149861048Y-114791500D01*
X149918553Y-115080599D01*
X150067964Y-115304207D01*
X149700124Y-115672048D01*
X148745000Y-115672048D01*
X148546788Y-115711475D01*
X148378753Y-115823753D01*
X148266475Y-115991788D01*
X148227048Y-116190000D01*
X148227048Y-117490000D01*
X148266475Y-117688212D01*
X148378753Y-117856247D01*
X148546788Y-117968525D01*
X148745000Y-118007952D01*
X150295000Y-118007952D01*
X150493212Y-117968525D01*
X150661247Y-117856247D01*
X150773525Y-117688212D01*
X150803305Y-117538500D01*
X156196695Y-117538500D01*
X156226475Y-117688212D01*
X156338753Y-117856247D01*
X156506788Y-117968525D01*
X156705000Y-118007952D01*
X158255000Y-118007952D01*
X158453212Y-117968525D01*
X158621247Y-117856247D01*
X158733525Y-117688212D01*
X158772952Y-117490000D01*
X158772952Y-116190000D01*
X158733525Y-115991788D01*
X158621247Y-115823753D01*
X158453212Y-115711475D01*
X158255000Y-115672048D01*
X156705000Y-115672048D01*
X156506788Y-115711475D01*
X156338753Y-115823753D01*
X156226475Y-115991788D01*
X156196695Y-116141500D01*
X151206329Y-116141500D01*
X151349272Y-115998557D01*
X151407590Y-115959590D01*
X151446557Y-115901272D01*
X151446559Y-115901270D01*
X151561972Y-115728541D01*
X151616184Y-115456000D01*
X151606150Y-115405556D01*
X151725685Y-115325685D01*
X151779000Y-115245894D01*
X151832315Y-115325685D01*
X152077401Y-115489447D01*
X152366500Y-115546952D01*
X152941500Y-115546952D01*
X153230599Y-115489447D01*
X153475685Y-115325685D01*
X153524586Y-115252500D01*
X153815414Y-115252500D01*
X153864315Y-115325685D01*
X154109401Y-115489447D01*
X154398500Y-115546952D01*
X154973500Y-115546952D01*
X155262599Y-115489447D01*
X155507685Y-115325685D01*
X155561000Y-115245894D01*
X155614315Y-115325685D01*
X155859401Y-115489447D01*
X156148500Y-115546952D01*
X156723500Y-115546952D01*
X157012599Y-115489447D01*
X157257685Y-115325685D01*
X157306586Y-115252500D01*
X157402394Y-115252500D01*
X157473659Y-115323765D01*
X157807388Y-115462000D01*
X158168612Y-115462000D01*
X158502341Y-115323765D01*
X158757765Y-115068341D01*
X158896000Y-114734612D01*
X158896000Y-114373388D01*
X158757765Y-114039659D01*
X158502341Y-113784235D01*
X158168612Y-113646000D01*
X157807388Y-113646000D01*
X157473659Y-113784235D01*
X157402394Y-113855500D01*
X157306586Y-113855500D01*
X157257685Y-113782315D01*
X157012599Y-113618553D01*
X156723500Y-113561048D01*
X156148500Y-113561048D01*
X155859401Y-113618553D01*
X155614315Y-113782315D01*
X155561000Y-113862106D01*
X155507685Y-113782315D01*
X155262599Y-113618553D01*
X154973500Y-113561048D01*
X154398500Y-113561048D01*
X154109401Y-113618553D01*
X153864315Y-113782315D01*
X153815414Y-113855500D01*
X153524586Y-113855500D01*
X153475685Y-113782315D01*
X153230599Y-113618553D01*
X152941500Y-113561048D01*
X152366500Y-113561048D01*
X152077401Y-113618553D01*
X151832315Y-113782315D01*
X151779000Y-113862106D01*
X151725685Y-113782315D01*
X151602500Y-113700005D01*
X151602500Y-112529328D01*
X151673328Y-112458500D01*
X156649210Y-112458500D01*
X156718000Y-112472183D01*
X156786790Y-112458500D01*
X156786794Y-112458500D01*
X156990541Y-112417972D01*
X157221590Y-112263590D01*
X157260560Y-112205267D01*
X159449271Y-110016557D01*
X159507589Y-109977590D01*
X159546556Y-109919272D01*
X159546558Y-109919270D01*
X159661971Y-109746542D01*
X159661972Y-109746541D01*
X159702500Y-109542794D01*
X159702500Y-109542790D01*
X159716183Y-109474001D01*
X159702500Y-109405212D01*
X159702500Y-107373000D01*
X159946612Y-107373000D01*
X160280341Y-107234765D01*
X160535765Y-106979341D01*
X160674000Y-106645612D01*
X160674000Y-106284388D01*
X160535765Y-105950659D01*
X160280341Y-105695235D01*
X159946612Y-105557000D01*
X159845828Y-105557000D01*
X159253560Y-104964733D01*
X159214590Y-104906410D01*
X158983541Y-104752028D01*
X158779794Y-104711500D01*
X158779790Y-104711500D01*
X158776674Y-104710880D01*
X158808525Y-104663212D01*
X158847952Y-104465000D01*
X158847952Y-103815000D01*
X158808525Y-103616788D01*
X158696247Y-103448753D01*
X158528212Y-103336475D01*
X158330000Y-103297048D01*
X158178500Y-103297048D01*
X158178500Y-102947606D01*
X158249765Y-102876341D01*
X158388000Y-102542612D01*
X158388000Y-102181388D01*
X158249765Y-101847659D01*
X157994341Y-101592235D01*
X157660612Y-101454000D01*
X157299388Y-101454000D01*
X156965659Y-101592235D01*
X156710235Y-101847659D01*
X156572000Y-102181388D01*
X156572000Y-102542612D01*
X156710235Y-102876341D01*
X156781501Y-102947607D01*
X156781500Y-103297048D01*
X156630000Y-103297048D01*
X156431788Y-103336475D01*
X156263753Y-103448753D01*
X156151475Y-103616788D01*
X156112048Y-103815000D01*
X156112048Y-104465000D01*
X156151475Y-104663212D01*
X156226170Y-104775000D01*
X156151475Y-104886788D01*
X156112048Y-105085000D01*
X156112048Y-105735000D01*
X156151475Y-105933212D01*
X156226170Y-106045000D01*
X156151475Y-106156788D01*
X156112048Y-106355000D01*
X156112048Y-107005000D01*
X156151475Y-107203212D01*
X156183326Y-107250880D01*
X156180210Y-107251500D01*
X156180206Y-107251500D01*
X155976459Y-107292028D01*
X155745410Y-107446410D01*
X155706442Y-107504730D01*
X152911673Y-110299500D01*
X149457039Y-110299500D01*
X149472952Y-110219500D01*
X149472952Y-109744500D01*
X149415447Y-109455401D01*
X149251685Y-109210315D01*
X149006599Y-109046553D01*
X148717500Y-108989048D01*
X148142500Y-108989048D01*
X147853401Y-109046553D01*
X147608315Y-109210315D01*
X147559414Y-109283500D01*
X147397606Y-109283500D01*
X147326341Y-109212235D01*
X146992612Y-109074000D01*
X146631388Y-109074000D01*
X146297659Y-109212235D01*
X146042235Y-109467659D01*
X145904000Y-109801388D01*
X145904000Y-110162612D01*
X145960701Y-110299500D01*
X135473228Y-110299500D01*
X135608868Y-110208868D01*
X135912019Y-109755172D01*
X136018471Y-109220000D01*
X135912019Y-108684828D01*
X135866282Y-108616378D01*
X135908541Y-108607972D01*
X136139590Y-108453590D01*
X136178560Y-108395267D01*
X137195328Y-107378500D01*
X148974608Y-107378500D01*
X149131788Y-107483525D01*
X149330000Y-107522952D01*
X151030000Y-107522952D01*
X151228212Y-107483525D01*
X151396247Y-107371247D01*
X151508525Y-107203212D01*
X151547952Y-107005000D01*
X151547952Y-106355000D01*
X151508525Y-106156788D01*
X151476674Y-106109120D01*
X151479790Y-106108500D01*
X151479794Y-106108500D01*
X151683541Y-106067972D01*
X151914590Y-105913590D01*
X151953561Y-105855266D01*
X152083268Y-105725559D01*
X152141589Y-105686590D01*
X152295972Y-105455541D01*
X152336500Y-105251794D01*
X152336500Y-105251790D01*
X152350183Y-105183001D01*
X152336500Y-105114212D01*
X152336500Y-103788888D01*
X152350183Y-103720098D01*
X152336500Y-103651308D01*
X152336500Y-103651304D01*
X152295972Y-103447557D01*
X152141590Y-103216508D01*
X152083269Y-103177539D01*
X151584462Y-102678733D01*
X151545492Y-102620410D01*
X151314443Y-102466028D01*
X151110696Y-102425500D01*
X151110692Y-102425500D01*
X151041902Y-102411817D01*
X150973112Y-102425500D01*
X148912790Y-102425500D01*
X148844000Y-102411817D01*
X148775210Y-102425500D01*
X148775206Y-102425500D01*
X148571459Y-102466028D01*
X148340410Y-102620410D01*
X148301441Y-102678731D01*
X146522673Y-104457500D01*
X136212794Y-104457500D01*
X136144000Y-104443816D01*
X136075206Y-104457500D01*
X135871459Y-104498028D01*
X135740894Y-104585269D01*
X135709157Y-104606475D01*
X135640410Y-104652410D01*
X135611551Y-104695601D01*
X133623430Y-104695601D01*
X133461552Y-104533724D01*
X133461552Y-103276400D01*
X133422125Y-103078188D01*
X133309847Y-102910153D01*
X133141812Y-102797875D01*
X132943600Y-102758448D01*
X131216400Y-102758448D01*
X131018188Y-102797875D01*
X130850153Y-102910153D01*
X130737875Y-103078188D01*
X130698448Y-103276400D01*
X130698448Y-105003600D01*
X130737875Y-105201812D01*
X130850153Y-105369847D01*
X131018188Y-105482125D01*
X131216400Y-105521552D01*
X131344926Y-105521552D01*
X131091132Y-105691132D01*
X130787981Y-106144828D01*
X130681529Y-106680000D01*
X124142500Y-106680000D01*
X124142500Y-94883904D01*
X124466341Y-94749765D01*
X124721765Y-94494341D01*
X124860000Y-94160612D01*
X124860000Y-93799388D01*
X124721765Y-93465659D01*
X124466341Y-93210235D01*
X124132612Y-93072000D01*
X123771388Y-93072000D01*
X123437659Y-93210235D01*
X123182235Y-93465659D01*
X123044000Y-93799388D01*
X123044000Y-93819894D01*
X122942341Y-93718235D01*
X122608612Y-93580000D01*
X122247388Y-93580000D01*
X121913659Y-93718235D01*
X121658235Y-93973659D01*
X121520000Y-94307388D01*
X121520000Y-94668612D01*
X121658235Y-95002341D01*
X121729500Y-95073606D01*
X121729500Y-96097765D01*
X121723070Y-96093469D01*
X121723069Y-96093468D01*
X121595312Y-96040549D01*
X121512911Y-96006417D01*
X121512910Y-96006417D01*
X121334966Y-95971022D01*
X121334675Y-95970827D01*
X121164617Y-95937000D01*
X119799306Y-95937000D01*
X119966765Y-95769541D01*
X120105000Y-95435812D01*
X120105000Y-95074588D01*
X119966765Y-94740859D01*
X119711341Y-94485435D01*
X119377612Y-94347200D01*
X119249196Y-94347200D01*
X119159741Y-94287428D01*
X118955994Y-94246900D01*
X118955990Y-94246900D01*
X118887200Y-94233217D01*
X118818410Y-94246900D01*
X118648952Y-94246900D01*
X118648952Y-94174875D01*
X118951828Y-93872000D01*
X119052612Y-93872000D01*
X119386341Y-93733765D01*
X119641765Y-93478341D01*
X119780000Y-93144612D01*
X119780000Y-92783388D01*
X119641765Y-92449659D01*
X119386341Y-92194235D01*
X119052612Y-92056000D01*
X118691388Y-92056000D01*
X118357659Y-92194235D01*
X118102235Y-92449659D01*
X117964000Y-92783388D01*
X117964000Y-92884172D01*
X117661125Y-93187048D01*
X117581000Y-93187048D01*
X117382788Y-93226475D01*
X117214753Y-93338753D01*
X117102475Y-93506788D01*
X117063048Y-93705000D01*
X117063048Y-94137048D01*
X116631000Y-94137048D01*
X116432788Y-94176475D01*
X116327390Y-94246900D01*
X116019588Y-94246900D01*
X115950799Y-94233217D01*
X115882010Y-94246900D01*
X115882006Y-94246900D01*
X115678259Y-94287428D01*
X115588804Y-94347200D01*
X115460388Y-94347200D01*
X115210532Y-94450694D01*
X128841501Y-71887486D01*
X128841501Y-72575202D01*
X128841500Y-72575207D01*
X128841501Y-92060095D01*
X128517659Y-92194235D01*
X128262235Y-92449659D01*
X128124000Y-92783388D01*
X128124000Y-93144612D01*
X128262235Y-93478341D01*
X128517659Y-93733765D01*
X128851388Y-93872000D01*
X129212612Y-93872000D01*
X129546341Y-93733765D01*
X129801765Y-93478341D01*
X129940000Y-93144612D01*
X129940000Y-93043828D01*
X129985269Y-92998559D01*
X130043590Y-92959590D01*
X130197972Y-92728541D01*
X130238500Y-92524794D01*
X130238500Y-92524790D01*
X130252183Y-92456001D01*
X130238500Y-92387212D01*
X130238500Y-91440000D01*
X137045396Y-91440000D01*
X137150793Y-91969865D01*
X137450937Y-92419063D01*
X137886356Y-92710000D01*
X137450937Y-93000937D01*
X137150793Y-93450135D01*
X137045396Y-93980000D01*
X137150793Y-94509865D01*
X137450937Y-94959063D01*
X137900135Y-95259207D01*
X138296253Y-95338000D01*
X138563747Y-95338000D01*
X138959865Y-95259207D01*
X139409063Y-94959063D01*
X139709207Y-94509865D01*
X139814604Y-93980000D01*
X139709207Y-93450135D01*
X139409063Y-93000937D01*
X138973644Y-92710000D01*
X139409063Y-92419063D01*
X139709207Y-91969865D01*
X139814604Y-91440000D01*
X139709207Y-90910135D01*
X139409063Y-90460937D01*
X138959865Y-90160793D01*
X138563747Y-90082000D01*
X138296253Y-90082000D01*
X137900135Y-90160793D01*
X137450937Y-90460937D01*
X137150793Y-90910135D01*
X137045396Y-91440000D01*
X130238500Y-91440000D01*
X130238500Y-68403606D01*
X130309765Y-68332341D01*
X130448000Y-67998612D01*
X130448000Y-67637388D01*
X130309765Y-67303659D01*
X130054341Y-67048235D01*
X129720612Y-66910000D01*
X129359388Y-66910000D01*
X129025659Y-67048235D01*
X128770235Y-67303659D01*
X128632000Y-67637388D01*
X128632000Y-67998612D01*
X128770235Y-68332341D01*
X128841500Y-68403606D01*
X128841500Y-69190159D01*
X128809670Y-69168891D01*
X128809669Y-69168890D01*
X128681912Y-69115971D01*
X128599511Y-69081839D01*
X128599510Y-69081839D01*
X128307905Y-69023835D01*
X128305688Y-69023835D01*
X128251217Y-69013000D01*
X127549458Y-69013000D01*
X127654000Y-68760612D01*
X127654000Y-68399388D01*
X127515765Y-68065659D01*
X127260341Y-67810235D01*
X126926612Y-67672000D01*
X126798196Y-67672000D01*
X126708741Y-67612228D01*
X126504994Y-67571700D01*
X126504990Y-67571700D01*
X126436200Y-67558017D01*
X126367410Y-67571700D01*
X126202127Y-67571700D01*
X126571828Y-67202000D01*
X126672612Y-67202000D01*
X127006341Y-67063765D01*
X127261765Y-66808341D01*
X127400000Y-66474612D01*
X127400000Y-66113388D01*
X127261765Y-65779659D01*
X127006341Y-65524235D01*
X126672612Y-65386000D01*
X126311388Y-65386000D01*
X125977659Y-65524235D01*
X125722235Y-65779659D01*
X125584000Y-66113388D01*
X125584000Y-66214172D01*
X125270925Y-66527248D01*
X125124800Y-66527248D01*
X124926588Y-66566675D01*
X124758553Y-66678953D01*
X124646275Y-66846988D01*
X124606848Y-67045200D01*
X124606848Y-67477248D01*
X124174800Y-67477248D01*
X123976588Y-67516675D01*
X123894238Y-67571700D01*
X123568588Y-67571700D01*
X123499799Y-67558017D01*
X123431010Y-67571700D01*
X123431006Y-67571700D01*
X123227259Y-67612228D01*
X123138335Y-67671645D01*
X140220065Y-36412080D01*
X140251373Y-36414132D01*
X140310015Y-36443051D01*
X140353127Y-36492212D01*
X140386749Y-36591258D01*
X140387001Y-36595104D01*
X140387000Y-65993173D01*
X140245661Y-65851833D01*
X140215765Y-65779659D01*
X139960341Y-65524235D01*
X139626612Y-65386000D01*
X139265388Y-65386000D01*
X138931659Y-65524235D01*
X138676235Y-65779659D01*
X138538000Y-66113388D01*
X138538000Y-66474612D01*
X138676235Y-66808341D01*
X138931659Y-67063765D01*
X139265388Y-67202000D01*
X139509501Y-67202000D01*
X139509500Y-67749205D01*
X139509500Y-68140793D01*
X139509501Y-68140798D01*
X139509500Y-85275210D01*
X139495817Y-85344000D01*
X139509500Y-85412790D01*
X139509500Y-85412793D01*
X139550028Y-85616540D01*
X139704410Y-85847589D01*
X139762731Y-85886558D01*
X140173441Y-86297269D01*
X140212410Y-86355590D01*
X140443459Y-86509972D01*
X140647206Y-86550500D01*
X140647210Y-86550500D01*
X140715999Y-86564183D01*
X140784788Y-86550500D01*
X143695210Y-86550500D01*
X143764000Y-86564183D01*
X143832790Y-86550500D01*
X143832794Y-86550500D01*
X144036541Y-86509972D01*
X144267590Y-86355590D01*
X144306560Y-86297267D01*
X144717269Y-85886559D01*
X144775590Y-85847590D01*
X144929972Y-85616541D01*
X144970500Y-85412794D01*
X144970500Y-85412790D01*
X144984183Y-85344001D01*
X144970500Y-85275212D01*
X144970500Y-67202000D01*
X145214612Y-67202000D01*
X145548341Y-67063765D01*
X145803765Y-66808341D01*
X145942000Y-66474612D01*
X145942000Y-66113388D01*
X145803765Y-65779659D01*
X145548341Y-65524235D01*
X145214612Y-65386000D01*
X144853388Y-65386000D01*
X144519659Y-65524235D01*
X144264235Y-65779659D01*
X144234340Y-65851832D01*
X144093000Y-65993172D01*
X144093000Y-36632933D01*
X144117178Y-36511380D01*
X144153504Y-36457015D01*
X144207869Y-36420689D01*
X144259074Y-36410504D01*
X159815082Y-64878000D01*
G04 #@! TD*
M02*
