G04 #@! TF.GenerationSoftware,KiCad,Pcbnew,(5.0.2)-1*
G04 #@! TF.CreationDate,2020-06-10T19:39:16-05:00*
G04 #@! TF.ProjectId,Base_Hardware,42617365-5f48-4617-9264-776172652e6b,rev?*
G04 #@! TF.SameCoordinates,Original*
G04 #@! TF.FileFunction,Legend,Top*
G04 #@! TF.FilePolarity,Positive*
%FSLAX46Y46*%
G04 Gerber Fmt 4.6, Leading zero omitted, Abs format (unit mm)*
G04 Created by KiCad (PCBNEW (5.0.2)-1) date 6/10/2020 7:39:16 PM*
%MOMM*%
%LPD*%
G01*
G04 APERTURE LIST*
%ADD10C,0.300000*%
%ADD11C,0.120000*%
%ADD12C,0.150000*%
G04 APERTURE END LIST*
D10*
X141990000Y-87038571D02*
X141490000Y-86324285D01*
X141132857Y-87038571D02*
X141132857Y-85538571D01*
X141704285Y-85538571D01*
X141847142Y-85610000D01*
X141918571Y-85681428D01*
X141990000Y-85824285D01*
X141990000Y-86038571D01*
X141918571Y-86181428D01*
X141847142Y-86252857D01*
X141704285Y-86324285D01*
X141132857Y-86324285D01*
X142561428Y-85681428D02*
X142632857Y-85610000D01*
X142775714Y-85538571D01*
X143132857Y-85538571D01*
X143275714Y-85610000D01*
X143347142Y-85681428D01*
X143418571Y-85824285D01*
X143418571Y-85967142D01*
X143347142Y-86181428D01*
X142490000Y-87038571D01*
X143418571Y-87038571D01*
X130893714Y-123106571D02*
X130893714Y-121606571D01*
X131465142Y-121606571D01*
X131608000Y-121678000D01*
X131679428Y-121749428D01*
X131750857Y-121892285D01*
X131750857Y-122106571D01*
X131679428Y-122249428D01*
X131608000Y-122320857D01*
X131465142Y-122392285D01*
X130893714Y-122392285D01*
X132608000Y-123106571D02*
X132465142Y-123035142D01*
X132393714Y-122963714D01*
X132322285Y-122820857D01*
X132322285Y-122392285D01*
X132393714Y-122249428D01*
X132465142Y-122178000D01*
X132608000Y-122106571D01*
X132822285Y-122106571D01*
X132965142Y-122178000D01*
X133036571Y-122249428D01*
X133108000Y-122392285D01*
X133108000Y-122820857D01*
X133036571Y-122963714D01*
X132965142Y-123035142D01*
X132822285Y-123106571D01*
X132608000Y-123106571D01*
X133608000Y-122106571D02*
X133893714Y-123106571D01*
X134179428Y-122392285D01*
X134465142Y-123106571D01*
X134750857Y-122106571D01*
X135893714Y-123035142D02*
X135750857Y-123106571D01*
X135465142Y-123106571D01*
X135322285Y-123035142D01*
X135250857Y-122892285D01*
X135250857Y-122320857D01*
X135322285Y-122178000D01*
X135465142Y-122106571D01*
X135750857Y-122106571D01*
X135893714Y-122178000D01*
X135965142Y-122320857D01*
X135965142Y-122463714D01*
X135250857Y-122606571D01*
X136608000Y-123106571D02*
X136608000Y-122106571D01*
X136608000Y-122392285D02*
X136679428Y-122249428D01*
X136750857Y-122178000D01*
X136893714Y-122106571D01*
X137036571Y-122106571D01*
D11*
G04 #@! TO.C,C1*
X149476267Y-110492000D02*
X149133733Y-110492000D01*
X149476267Y-109472000D02*
X149133733Y-109472000D01*
G04 #@! TO.C,D3*
X133021000Y-123725000D02*
X130561000Y-123725000D01*
X130561000Y-123725000D02*
X130561000Y-125195000D01*
X130561000Y-125195000D02*
X133021000Y-125195000D01*
G04 #@! TO.C,D6*
X157221000Y-113819000D02*
X154761000Y-113819000D01*
X157221000Y-115289000D02*
X157221000Y-113819000D01*
X154761000Y-115289000D02*
X157221000Y-115289000D01*
D12*
G04 #@! TO.C,J1*
X111846000Y-126529160D02*
X111846000Y-115429160D01*
D11*
G04 #@! TO.C,J2*
X138025000Y-98790000D02*
X138025000Y-114570000D01*
X138025000Y-114570000D02*
X128675000Y-114570000D01*
X128675000Y-114570000D02*
X128675000Y-98790000D01*
X128675000Y-98790000D02*
X138025000Y-98790000D01*
X128425000Y-98540000D02*
X128425000Y-101080000D01*
X128425000Y-98540000D02*
X130965000Y-98540000D01*
G04 #@! TO.C,R1*
X170746267Y-124970000D02*
X170403733Y-124970000D01*
X170746267Y-123950000D02*
X170403733Y-123950000D01*
G04 #@! TO.C,R2*
X136174267Y-123950000D02*
X135831733Y-123950000D01*
X136174267Y-124970000D02*
X135831733Y-124970000D01*
G04 #@! TO.C,R3*
X151607733Y-114044000D02*
X151950267Y-114044000D01*
X151607733Y-115064000D02*
X151950267Y-115064000D01*
G04 #@! TO.C,SW1*
X156730000Y-115860000D02*
X156730000Y-115890000D01*
X156730000Y-122320000D02*
X156730000Y-122290000D01*
X150270000Y-122320000D02*
X150270000Y-122290000D01*
X150270000Y-115890000D02*
X150270000Y-115860000D01*
X156730000Y-117790000D02*
X156730000Y-120390000D01*
X150270000Y-115860000D02*
X156730000Y-115860000D01*
X150270000Y-117790000D02*
X150270000Y-120390000D01*
X150270000Y-122320000D02*
X156730000Y-122320000D01*
D12*
G04 #@! TO.C,U1*
X156580000Y-108800000D02*
X156580000Y-108595000D01*
X151080000Y-108800000D02*
X151080000Y-108500000D01*
X151080000Y-103290000D02*
X151080000Y-103590000D01*
X156580000Y-103290000D02*
X156580000Y-103590000D01*
X156580000Y-108800000D02*
X151080000Y-108800000D01*
X156580000Y-103290000D02*
X151080000Y-103290000D01*
X156580000Y-108595000D02*
X158330000Y-108595000D01*
G04 #@! TO.C,D1*
X175996600Y-125410000D02*
X176123600Y-125283000D01*
X176123600Y-125537000D02*
X175996600Y-125410000D01*
X176911000Y-125791000D02*
X176911000Y-125664000D01*
X176784000Y-125791000D02*
X176911000Y-125791000D01*
G04 #@! TO.C,D4*
X167106600Y-94919800D02*
X167233600Y-94792800D01*
X167233600Y-95046800D02*
X167106600Y-94919800D01*
X168021000Y-95300800D02*
X168021000Y-95173800D01*
X167894000Y-95300800D02*
X168021000Y-95300800D01*
G04 #@! TO.C,D7*
X159486600Y-68260000D02*
X159613600Y-68133000D01*
X159613600Y-68387000D02*
X159486600Y-68260000D01*
X160401000Y-68641000D02*
X160401000Y-68514000D01*
X160274000Y-68641000D02*
X160401000Y-68641000D01*
G04 #@! TO.C,D9*
X124068800Y-68524200D02*
X124068800Y-68651200D01*
X124068800Y-68651200D02*
X124195800Y-68651200D01*
X124322800Y-67863800D02*
X124449800Y-67736800D01*
X124449800Y-67736800D02*
X124576800Y-67863800D01*
G04 #@! TO.C,D11*
X116525000Y-95184000D02*
X116525000Y-95311000D01*
X116525000Y-95311000D02*
X116652000Y-95311000D01*
X116779000Y-94523600D02*
X116906000Y-94396600D01*
X116906000Y-94396600D02*
X117033000Y-94523600D01*
D11*
G04 #@! TO.C,J3*
X137100000Y-90170000D02*
X139760000Y-90170000D01*
X137100000Y-90170000D02*
X137100000Y-95310000D01*
X137100000Y-95310000D02*
X139760000Y-95310000D01*
X139760000Y-90170000D02*
X139760000Y-95310000D01*
X139760000Y-87570000D02*
X139760000Y-88900000D01*
X138430000Y-87570000D02*
X139760000Y-87570000D01*
G04 #@! TO.C,C1*
D12*
X149185333Y-111863142D02*
X149137714Y-111910761D01*
X148994857Y-111958380D01*
X148899619Y-111958380D01*
X148756761Y-111910761D01*
X148661523Y-111815523D01*
X148613904Y-111720285D01*
X148566285Y-111529809D01*
X148566285Y-111386952D01*
X148613904Y-111196476D01*
X148661523Y-111101238D01*
X148756761Y-111006000D01*
X148899619Y-110958380D01*
X148994857Y-110958380D01*
X149137714Y-111006000D01*
X149185333Y-111053619D01*
X150137714Y-111958380D02*
X149566285Y-111958380D01*
X149852000Y-111958380D02*
X149852000Y-110958380D01*
X149756761Y-111101238D01*
X149661523Y-111196476D01*
X149566285Y-111244095D01*
G04 #@! TO.C,D3*
X131482904Y-126436380D02*
X131482904Y-125436380D01*
X131721000Y-125436380D01*
X131863857Y-125484000D01*
X131959095Y-125579238D01*
X132006714Y-125674476D01*
X132054333Y-125864952D01*
X132054333Y-126007809D01*
X132006714Y-126198285D01*
X131959095Y-126293523D01*
X131863857Y-126388761D01*
X131721000Y-126436380D01*
X131482904Y-126436380D01*
X132387666Y-125436380D02*
X133006714Y-125436380D01*
X132673380Y-125817333D01*
X132816238Y-125817333D01*
X132911476Y-125864952D01*
X132959095Y-125912571D01*
X133006714Y-126007809D01*
X133006714Y-126245904D01*
X132959095Y-126341142D01*
X132911476Y-126388761D01*
X132816238Y-126436380D01*
X132530523Y-126436380D01*
X132435285Y-126388761D01*
X132387666Y-126341142D01*
G04 #@! TO.C,D6*
X154822904Y-113482380D02*
X154822904Y-112482380D01*
X155061000Y-112482380D01*
X155203857Y-112530000D01*
X155299095Y-112625238D01*
X155346714Y-112720476D01*
X155394333Y-112910952D01*
X155394333Y-113053809D01*
X155346714Y-113244285D01*
X155299095Y-113339523D01*
X155203857Y-113434761D01*
X155061000Y-113482380D01*
X154822904Y-113482380D01*
X156251476Y-112482380D02*
X156061000Y-112482380D01*
X155965761Y-112530000D01*
X155918142Y-112577619D01*
X155822904Y-112720476D01*
X155775285Y-112910952D01*
X155775285Y-113291904D01*
X155822904Y-113387142D01*
X155870523Y-113434761D01*
X155965761Y-113482380D01*
X156156238Y-113482380D01*
X156251476Y-113434761D01*
X156299095Y-113387142D01*
X156346714Y-113291904D01*
X156346714Y-113053809D01*
X156299095Y-112958571D01*
X156251476Y-112910952D01*
X156156238Y-112863333D01*
X155965761Y-112863333D01*
X155870523Y-112910952D01*
X155822904Y-112958571D01*
X155775285Y-113053809D01*
G04 #@! TO.C,J1*
X116780866Y-116101680D02*
X116780866Y-116815966D01*
X116733247Y-116958823D01*
X116638009Y-117054061D01*
X116495152Y-117101680D01*
X116399914Y-117101680D01*
X117780866Y-117101680D02*
X117209438Y-117101680D01*
X117495152Y-117101680D02*
X117495152Y-116101680D01*
X117399914Y-116244538D01*
X117304676Y-116339776D01*
X117209438Y-116387395D01*
G04 #@! TO.C,J2*
X133016666Y-96988380D02*
X133016666Y-97702666D01*
X132969047Y-97845523D01*
X132873809Y-97940761D01*
X132730952Y-97988380D01*
X132635714Y-97988380D01*
X133445238Y-97083619D02*
X133492857Y-97036000D01*
X133588095Y-96988380D01*
X133826190Y-96988380D01*
X133921428Y-97036000D01*
X133969047Y-97083619D01*
X134016666Y-97178857D01*
X134016666Y-97274095D01*
X133969047Y-97416952D01*
X133397619Y-97988380D01*
X134016666Y-97988380D01*
G04 #@! TO.C,R1*
X170408333Y-126342380D02*
X170075000Y-125866190D01*
X169836904Y-126342380D02*
X169836904Y-125342380D01*
X170217857Y-125342380D01*
X170313095Y-125390000D01*
X170360714Y-125437619D01*
X170408333Y-125532857D01*
X170408333Y-125675714D01*
X170360714Y-125770952D01*
X170313095Y-125818571D01*
X170217857Y-125866190D01*
X169836904Y-125866190D01*
X171360714Y-126342380D02*
X170789285Y-126342380D01*
X171075000Y-126342380D02*
X171075000Y-125342380D01*
X170979761Y-125485238D01*
X170884523Y-125580476D01*
X170789285Y-125628095D01*
G04 #@! TO.C,R2*
X135836333Y-126436380D02*
X135503000Y-125960190D01*
X135264904Y-126436380D02*
X135264904Y-125436380D01*
X135645857Y-125436380D01*
X135741095Y-125484000D01*
X135788714Y-125531619D01*
X135836333Y-125626857D01*
X135836333Y-125769714D01*
X135788714Y-125864952D01*
X135741095Y-125912571D01*
X135645857Y-125960190D01*
X135264904Y-125960190D01*
X136217285Y-125531619D02*
X136264904Y-125484000D01*
X136360142Y-125436380D01*
X136598238Y-125436380D01*
X136693476Y-125484000D01*
X136741095Y-125531619D01*
X136788714Y-125626857D01*
X136788714Y-125722095D01*
X136741095Y-125864952D01*
X136169666Y-126436380D01*
X136788714Y-126436380D01*
G04 #@! TO.C,R3*
X151612333Y-113482380D02*
X151279000Y-113006190D01*
X151040904Y-113482380D02*
X151040904Y-112482380D01*
X151421857Y-112482380D01*
X151517095Y-112530000D01*
X151564714Y-112577619D01*
X151612333Y-112672857D01*
X151612333Y-112815714D01*
X151564714Y-112910952D01*
X151517095Y-112958571D01*
X151421857Y-113006190D01*
X151040904Y-113006190D01*
X151945666Y-112482380D02*
X152564714Y-112482380D01*
X152231380Y-112863333D01*
X152374238Y-112863333D01*
X152469476Y-112910952D01*
X152517095Y-112958571D01*
X152564714Y-113053809D01*
X152564714Y-113291904D01*
X152517095Y-113387142D01*
X152469476Y-113434761D01*
X152374238Y-113482380D01*
X152088523Y-113482380D01*
X151993285Y-113434761D01*
X151945666Y-113387142D01*
G04 #@! TO.C,SW1*
X152166666Y-115444761D02*
X152309523Y-115492380D01*
X152547619Y-115492380D01*
X152642857Y-115444761D01*
X152690476Y-115397142D01*
X152738095Y-115301904D01*
X152738095Y-115206666D01*
X152690476Y-115111428D01*
X152642857Y-115063809D01*
X152547619Y-115016190D01*
X152357142Y-114968571D01*
X152261904Y-114920952D01*
X152214285Y-114873333D01*
X152166666Y-114778095D01*
X152166666Y-114682857D01*
X152214285Y-114587619D01*
X152261904Y-114540000D01*
X152357142Y-114492380D01*
X152595238Y-114492380D01*
X152738095Y-114540000D01*
X153071428Y-114492380D02*
X153309523Y-115492380D01*
X153500000Y-114778095D01*
X153690476Y-115492380D01*
X153928571Y-114492380D01*
X154833333Y-115492380D02*
X154261904Y-115492380D01*
X154547619Y-115492380D02*
X154547619Y-114492380D01*
X154452380Y-114635238D01*
X154357142Y-114730476D01*
X154261904Y-114778095D01*
G04 #@! TO.C,U1*
X155194095Y-109177380D02*
X155194095Y-109986904D01*
X155241714Y-110082142D01*
X155289333Y-110129761D01*
X155384571Y-110177380D01*
X155575047Y-110177380D01*
X155670285Y-110129761D01*
X155717904Y-110082142D01*
X155765523Y-109986904D01*
X155765523Y-109177380D01*
X156765523Y-110177380D02*
X156194095Y-110177380D01*
X156479809Y-110177380D02*
X156479809Y-109177380D01*
X156384571Y-109320238D01*
X156289333Y-109415476D01*
X156194095Y-109463095D01*
G04 #@! TO.C,D1*
X174267904Y-122880380D02*
X174267904Y-121880380D01*
X174506000Y-121880380D01*
X174648857Y-121928000D01*
X174744095Y-122023238D01*
X174791714Y-122118476D01*
X174839333Y-122308952D01*
X174839333Y-122451809D01*
X174791714Y-122642285D01*
X174744095Y-122737523D01*
X174648857Y-122832761D01*
X174506000Y-122880380D01*
X174267904Y-122880380D01*
X175791714Y-122880380D02*
X175220285Y-122880380D01*
X175506000Y-122880380D02*
X175506000Y-121880380D01*
X175410761Y-122023238D01*
X175315523Y-122118476D01*
X175220285Y-122166095D01*
G04 #@! TO.C,D4*
X165377904Y-92400380D02*
X165377904Y-91400380D01*
X165616000Y-91400380D01*
X165758857Y-91448000D01*
X165854095Y-91543238D01*
X165901714Y-91638476D01*
X165949333Y-91828952D01*
X165949333Y-91971809D01*
X165901714Y-92162285D01*
X165854095Y-92257523D01*
X165758857Y-92352761D01*
X165616000Y-92400380D01*
X165377904Y-92400380D01*
X166806476Y-91733714D02*
X166806476Y-92400380D01*
X166568380Y-91352761D02*
X166330285Y-92067047D01*
X166949333Y-92067047D01*
G04 #@! TO.C,D7*
X157249904Y-66238380D02*
X157249904Y-65238380D01*
X157488000Y-65238380D01*
X157630857Y-65286000D01*
X157726095Y-65381238D01*
X157773714Y-65476476D01*
X157821333Y-65666952D01*
X157821333Y-65809809D01*
X157773714Y-66000285D01*
X157726095Y-66095523D01*
X157630857Y-66190761D01*
X157488000Y-66238380D01*
X157249904Y-66238380D01*
X158154666Y-65238380D02*
X158821333Y-65238380D01*
X158392761Y-66238380D01*
G04 #@! TO.C,D9*
X125245904Y-65730380D02*
X125245904Y-64730380D01*
X125484000Y-64730380D01*
X125626857Y-64778000D01*
X125722095Y-64873238D01*
X125769714Y-64968476D01*
X125817333Y-65158952D01*
X125817333Y-65301809D01*
X125769714Y-65492285D01*
X125722095Y-65587523D01*
X125626857Y-65682761D01*
X125484000Y-65730380D01*
X125245904Y-65730380D01*
X126293523Y-65730380D02*
X126484000Y-65730380D01*
X126579238Y-65682761D01*
X126626857Y-65635142D01*
X126722095Y-65492285D01*
X126769714Y-65301809D01*
X126769714Y-64920857D01*
X126722095Y-64825619D01*
X126674476Y-64778000D01*
X126579238Y-64730380D01*
X126388761Y-64730380D01*
X126293523Y-64778000D01*
X126245904Y-64825619D01*
X126198285Y-64920857D01*
X126198285Y-65158952D01*
X126245904Y-65254190D01*
X126293523Y-65301809D01*
X126388761Y-65349428D01*
X126579238Y-65349428D01*
X126674476Y-65301809D01*
X126722095Y-65254190D01*
X126769714Y-65158952D01*
G04 #@! TO.C,D11*
X117657714Y-92146380D02*
X117657714Y-91146380D01*
X117895809Y-91146380D01*
X118038666Y-91194000D01*
X118133904Y-91289238D01*
X118181523Y-91384476D01*
X118229142Y-91574952D01*
X118229142Y-91717809D01*
X118181523Y-91908285D01*
X118133904Y-92003523D01*
X118038666Y-92098761D01*
X117895809Y-92146380D01*
X117657714Y-92146380D01*
X119181523Y-92146380D02*
X118610095Y-92146380D01*
X118895809Y-92146380D02*
X118895809Y-91146380D01*
X118800571Y-91289238D01*
X118705333Y-91384476D01*
X118610095Y-91432095D01*
X120133904Y-92146380D02*
X119562476Y-92146380D01*
X119848190Y-92146380D02*
X119848190Y-91146380D01*
X119752952Y-91289238D01*
X119657714Y-91384476D01*
X119562476Y-91432095D01*
G04 #@! TO.C,J3*
X138096666Y-85582380D02*
X138096666Y-86296666D01*
X138049047Y-86439523D01*
X137953809Y-86534761D01*
X137810952Y-86582380D01*
X137715714Y-86582380D01*
X138477619Y-85582380D02*
X139096666Y-85582380D01*
X138763333Y-85963333D01*
X138906190Y-85963333D01*
X139001428Y-86010952D01*
X139049047Y-86058571D01*
X139096666Y-86153809D01*
X139096666Y-86391904D01*
X139049047Y-86487142D01*
X139001428Y-86534761D01*
X138906190Y-86582380D01*
X138620476Y-86582380D01*
X138525238Y-86534761D01*
X138477619Y-86487142D01*
G04 #@! TD*
M02*
