G04 #@! TF.GenerationSoftware,KiCad,Pcbnew,(5.0.2)-1*
G04 #@! TF.CreationDate,2020-06-10T19:39:16-05:00*
G04 #@! TF.ProjectId,Base_Hardware,42617365-5f48-4617-9264-776172652e6b,rev?*
G04 #@! TF.SameCoordinates,Original*
G04 #@! TF.FileFunction,Copper,L2,Bot*
G04 #@! TF.FilePolarity,Positive*
%FSLAX46Y46*%
G04 Gerber Fmt 4.6, Leading zero omitted, Abs format (unit mm)*
G04 Created by KiCad (PCBNEW (5.0.2)-1) date 6/10/2020 7:39:16 PM*
%MOMM*%
%LPD*%
G01*
G04 APERTURE LIST*
G04 #@! TA.AperFunction,ComponentPad*
%ADD10R,1.727200X1.727200*%
G04 #@! TD*
G04 #@! TA.AperFunction,ComponentPad*
%ADD11O,1.727200X1.727200*%
G04 #@! TD*
G04 #@! TA.AperFunction,SMDPad,CuDef*
%ADD12R,0.550000X0.550000*%
G04 #@! TD*
G04 #@! TA.AperFunction,ComponentPad*
%ADD13R,1.700000X1.700000*%
G04 #@! TD*
G04 #@! TA.AperFunction,ComponentPad*
%ADD14O,1.700000X1.700000*%
G04 #@! TD*
G04 #@! TA.AperFunction,ViaPad*
%ADD15C,0.800000*%
G04 #@! TD*
G04 #@! TA.AperFunction,Conductor*
%ADD16C,0.381000*%
G04 #@! TD*
G04 #@! TA.AperFunction,Conductor*
%ADD17C,0.254000*%
G04 #@! TD*
G04 APERTURE END LIST*
D10*
G04 #@! TO.P,J2,1*
G04 #@! TO.N,MISO*
X132080000Y-104140000D03*
D11*
G04 #@! TO.P,J2,2*
G04 #@! TO.N,+5V*
X134620000Y-104140000D03*
G04 #@! TO.P,J2,3*
G04 #@! TO.N,SCK*
X132080000Y-106680000D03*
G04 #@! TO.P,J2,4*
G04 #@! TO.N,MOSI*
X134620000Y-106680000D03*
G04 #@! TO.P,J2,5*
G04 #@! TO.N,RST*
X132080000Y-109220000D03*
G04 #@! TO.P,J2,6*
G04 #@! TO.N,GND*
X134620000Y-109220000D03*
G04 #@! TD*
D12*
G04 #@! TO.P,D2,1*
G04 #@! TO.N,Net-(D2-Pad1)*
X175580000Y-124460000D03*
G04 #@! TO.P,D2,4*
G04 #@! TO.N,+5V*
X175580000Y-125410000D03*
G04 #@! TO.P,D2,2*
G04 #@! TO.N,GND*
X176530000Y-124460000D03*
G04 #@! TO.P,D2,3*
G04 #@! TO.N,Net-(D1-Pad1)*
X176530000Y-125410000D03*
G04 #@! TD*
G04 #@! TO.P,D5,1*
G04 #@! TO.N,Net-(D5-Pad1)*
X166690000Y-93969800D03*
G04 #@! TO.P,D5,4*
G04 #@! TO.N,+5V*
X166690000Y-94919800D03*
G04 #@! TO.P,D5,2*
G04 #@! TO.N,GND*
X167640000Y-93969800D03*
G04 #@! TO.P,D5,3*
G04 #@! TO.N,Net-(D4-Pad1)*
X167640000Y-94919800D03*
G04 #@! TD*
G04 #@! TO.P,D8,3*
G04 #@! TO.N,Net-(D7-Pad1)*
X160020000Y-68260000D03*
G04 #@! TO.P,D8,2*
G04 #@! TO.N,GND*
X160020000Y-67310000D03*
G04 #@! TO.P,D8,4*
G04 #@! TO.N,+5V*
X159070000Y-68260000D03*
G04 #@! TO.P,D8,1*
G04 #@! TO.N,Net-(D8-Pad1)*
X159070000Y-67310000D03*
G04 #@! TD*
G04 #@! TO.P,D10,1*
G04 #@! TO.N,Net-(D10-Pad1)*
X125399800Y-67320200D03*
G04 #@! TO.P,D10,4*
G04 #@! TO.N,+5V*
X124449800Y-67320200D03*
G04 #@! TO.P,D10,2*
G04 #@! TO.N,GND*
X125399800Y-68270200D03*
G04 #@! TO.P,D10,3*
G04 #@! TO.N,Net-(D10-Pad3)*
X124449800Y-68270200D03*
G04 #@! TD*
G04 #@! TO.P,D12,3*
G04 #@! TO.N,Net-(D11-Pad1)*
X116906000Y-94930000D03*
G04 #@! TO.P,D12,2*
G04 #@! TO.N,GND*
X117856000Y-94930000D03*
G04 #@! TO.P,D12,4*
G04 #@! TO.N,+5V*
X116906000Y-93980000D03*
G04 #@! TO.P,D12,1*
G04 #@! TO.N,Net-(D12-Pad1)*
X117856000Y-93980000D03*
G04 #@! TD*
G04 #@! TO.P,D13,1*
G04 #@! TO.N,DOut'*
X107762000Y-125410000D03*
G04 #@! TO.P,D13,4*
G04 #@! TO.N,+5V*
X108712000Y-125410000D03*
G04 #@! TO.P,D13,2*
G04 #@! TO.N,GND*
X107762000Y-124460000D03*
G04 #@! TO.P,D13,3*
G04 #@! TO.N,Net-(D12-Pad1)*
X108712000Y-124460000D03*
G04 #@! TD*
D13*
G04 #@! TO.P,J3,1*
G04 #@! TO.N,+5V*
X138430000Y-88900000D03*
D14*
G04 #@! TO.P,J3,2*
G04 #@! TO.N,DOut'*
X138430000Y-91440000D03*
G04 #@! TO.P,J3,3*
G04 #@! TO.N,GND*
X138430000Y-93980000D03*
G04 #@! TD*
D15*
G04 #@! TO.N,+5V*
X153670000Y-121340000D03*
X173990000Y-125730000D03*
X165100000Y-95250000D03*
X157480000Y-68580000D03*
X124714000Y-66040000D03*
X117165000Y-92715200D03*
X109982000Y-125476000D03*
G04 #@! TO.N,GND*
X146812000Y-109982000D03*
X157480000Y-102362000D03*
X117602000Y-116530000D03*
X114796000Y-118872000D03*
X114796000Y-123190000D03*
X120396000Y-123698000D03*
X157988000Y-114554000D03*
X176276000Y-122936000D03*
X167386000Y-92456000D03*
X159766000Y-65786000D03*
X126746000Y-68580000D03*
X119197000Y-95255200D03*
X129286000Y-124460000D03*
G04 #@! TO.N,Net-(D1-Pad1)*
X177800000Y-125984000D03*
G04 #@! TO.N,Net-(D2-Pad1)*
X162052000Y-94488000D03*
G04 #@! TO.N,Net-(D4-Pad1)*
X168910000Y-95504000D03*
G04 #@! TO.N,Net-(D5-Pad1)*
X154940000Y-67818000D03*
X165100000Y-92964000D03*
X154940000Y-92456000D03*
G04 #@! TO.N,Net-(D2-Pad1)*
X173990000Y-123444000D03*
X162052000Y-122936000D03*
G04 #@! TO.N,Net-(D7-Pad1)*
X161290000Y-68834000D03*
G04 #@! TO.N,Net-(D8-Pad1)*
X139446000Y-66294000D03*
X126492000Y-66294000D03*
X145034000Y-66294000D03*
G04 #@! TO.N,Net-(D10-Pad1)*
X118872000Y-92964000D03*
G04 #@! TO.N,Net-(D10-Pad3)*
X123190000Y-68580000D03*
G04 #@! TO.N,Net-(D10-Pad1)*
X129540000Y-67818000D03*
X129032000Y-92964000D03*
G04 #@! TO.N,Net-(D11-Pad1)*
X115641000Y-95255200D03*
G04 #@! TO.N,Net-(D12-Pad1)*
X122428000Y-94488000D03*
X122428000Y-114046000D03*
G04 #@! TO.N,DOut'*
X123444000Y-114046000D03*
X123952000Y-93980000D03*
G04 #@! TO.N,DOut*
X159766000Y-123952000D03*
X159766000Y-106465000D03*
G04 #@! TD*
D16*
G04 #@! TO.N,+5V*
X175580000Y-125410000D02*
X174310000Y-125410000D01*
X174310000Y-125410000D02*
X173990000Y-125730000D01*
X166690000Y-94930000D02*
X165420000Y-94930000D01*
X165420000Y-94930000D02*
X165100000Y-95250000D01*
X159070000Y-68260000D02*
X157800000Y-68260000D01*
X157800000Y-68260000D02*
X157480000Y-68580000D01*
X124449800Y-67320200D02*
X124449800Y-66304200D01*
X124449800Y-66304200D02*
X124714000Y-66040000D01*
X116900800Y-93995400D02*
X116900800Y-92979400D01*
X116900800Y-92979400D02*
X117165000Y-92715200D01*
X108712000Y-125410000D02*
X109916000Y-125410000D01*
X109916000Y-125410000D02*
X109982000Y-125476000D01*
G04 #@! TO.N,Net-(D1-Pad1)*
X176530000Y-125410000D02*
X177226000Y-125410000D01*
X177226000Y-125410000D02*
X177800000Y-125984000D01*
G04 #@! TO.N,Net-(D2-Pad1)*
X162052000Y-94488000D02*
X162052000Y-97457645D01*
X162052000Y-97457645D02*
X162052000Y-120142000D01*
G04 #@! TO.N,Net-(D4-Pad1)*
X168336000Y-94930000D02*
X168910000Y-95504000D01*
X167640000Y-94930000D02*
X168336000Y-94930000D01*
G04 #@! TO.N,Net-(D5-Pad1)*
X166105800Y-93969800D02*
X165100000Y-92964000D01*
X166690000Y-93969800D02*
X166105800Y-93969800D01*
X154940000Y-92456000D02*
X154940000Y-92202000D01*
X154940000Y-67818000D02*
X154940000Y-92202000D01*
G04 #@! TO.N,Net-(D2-Pad1)*
X175580000Y-124449800D02*
X174995800Y-124449800D01*
X174995800Y-124449800D02*
X173990000Y-123444000D01*
X162052000Y-120142000D02*
X162052000Y-122936000D01*
G04 #@! TO.N,Net-(D7-Pad1)*
X160020000Y-68260000D02*
X160716000Y-68260000D01*
X160716000Y-68260000D02*
X161290000Y-68834000D01*
G04 #@! TO.N,Net-(D8-Pad1)*
X158485800Y-67299800D02*
X157480000Y-66294000D01*
X159070000Y-67299800D02*
X158485800Y-67299800D01*
X126492000Y-66294000D02*
X138176000Y-66294000D01*
X138176000Y-66294000D02*
X139446000Y-66294000D01*
X157480000Y-66294000D02*
X145034000Y-66294000D01*
G04 #@! TO.N,Net-(D10-Pad3)*
X124449800Y-68270200D02*
X123499800Y-68270200D01*
X123499800Y-68270200D02*
X123190000Y-68580000D01*
G04 #@! TO.N,Net-(D10-Pad1)*
X125399800Y-67320200D02*
X129042200Y-67320200D01*
X129042200Y-67320200D02*
X129540000Y-67818000D01*
X129032000Y-92964000D02*
X118872000Y-92964000D01*
G04 #@! TO.N,Net-(D11-Pad1)*
X115950800Y-94945400D02*
X115641000Y-95255200D01*
X116900800Y-94945400D02*
X115950800Y-94945400D01*
G04 #@! TO.N,Net-(D12-Pad1)*
X117856000Y-93980000D02*
X121920000Y-93980000D01*
X121920000Y-93980000D02*
X122428000Y-94488000D01*
X108712000Y-124460000D02*
X110490000Y-124460000D01*
X110490000Y-124460000D02*
X111760000Y-125730000D01*
X111760000Y-125730000D02*
X113284000Y-125730000D01*
X115824000Y-125730000D02*
X116078000Y-125730000D01*
X113284000Y-125730000D02*
X115824000Y-125730000D01*
X122428000Y-125222000D02*
X121920000Y-125730000D01*
X122428000Y-114046000D02*
X122428000Y-125222000D01*
X115824000Y-125730000D02*
X121920000Y-125730000D01*
G04 #@! TO.N,DOut'*
X107762000Y-126066000D02*
X108188000Y-126492000D01*
X107762000Y-125410000D02*
X107762000Y-126066000D01*
X108188000Y-126492000D02*
X115824000Y-126492000D01*
X115824000Y-126492000D02*
X121412000Y-126492000D01*
X121412000Y-126492000D02*
X122428000Y-126492000D01*
X123444000Y-125476000D02*
X122936000Y-125984000D01*
X123444000Y-114046000D02*
X123444000Y-125476000D01*
X122428000Y-126492000D02*
X122936000Y-125984000D01*
X122936000Y-125984000D02*
X123190000Y-125730000D01*
X123952000Y-93980000D02*
X129540000Y-93980000D01*
X129540000Y-93980000D02*
X130302000Y-93218000D01*
X130302000Y-91948000D02*
X130810000Y-91440000D01*
X130302000Y-93218000D02*
X130302000Y-91948000D01*
X130810000Y-91440000D02*
X138430000Y-91440000D01*
G04 #@! TO.N,DOut*
X159766000Y-106465000D02*
X159766000Y-123952000D01*
G04 #@! TD*
D17*
G04 #@! TO.N,GND*
G36*
X161483595Y-67931378D02*
X161470612Y-67926000D01*
X161369828Y-67926000D01*
X161258560Y-67814733D01*
X161219590Y-67756410D01*
X160988541Y-67602028D01*
X160784794Y-67561500D01*
X160784790Y-67561500D01*
X160716000Y-67547817D01*
X160647210Y-67561500D01*
X160575562Y-67561500D01*
X160493212Y-67506475D01*
X160295000Y-67467048D01*
X159862952Y-67467048D01*
X159862952Y-67035000D01*
X159823525Y-66836788D01*
X159711247Y-66668753D01*
X159543212Y-66556475D01*
X159345000Y-66517048D01*
X158795000Y-66517048D01*
X158708151Y-66534323D01*
X158022560Y-65848733D01*
X157983590Y-65790410D01*
X157752541Y-65636028D01*
X157548794Y-65595500D01*
X157548790Y-65595500D01*
X157480000Y-65581817D01*
X157411210Y-65595500D01*
X145619606Y-65595500D01*
X145548341Y-65524235D01*
X145214612Y-65386000D01*
X144853388Y-65386000D01*
X144519659Y-65524235D01*
X144264235Y-65779659D01*
X144126000Y-66113388D01*
X144126000Y-66474612D01*
X144264235Y-66808341D01*
X144519659Y-67063765D01*
X144853388Y-67202000D01*
X145214612Y-67202000D01*
X145548341Y-67063765D01*
X145619606Y-66992500D01*
X154560215Y-66992500D01*
X154425659Y-67048235D01*
X154170235Y-67303659D01*
X154032000Y-67637388D01*
X154032000Y-67998612D01*
X154170235Y-68332341D01*
X154241500Y-68403606D01*
X154241501Y-91870393D01*
X154170235Y-91941659D01*
X154032000Y-92275388D01*
X154032000Y-92636612D01*
X154170235Y-92970341D01*
X154425659Y-93225765D01*
X154759388Y-93364000D01*
X155120612Y-93364000D01*
X155454341Y-93225765D01*
X155709765Y-92970341D01*
X155848000Y-92636612D01*
X155848000Y-92275388D01*
X155709765Y-91941659D01*
X155638500Y-91870394D01*
X155638500Y-71887486D01*
X169465820Y-94775714D01*
X169424341Y-94734235D01*
X169090612Y-94596000D01*
X168989828Y-94596000D01*
X168878560Y-94484733D01*
X168839590Y-94426410D01*
X168608541Y-94272028D01*
X168404794Y-94231500D01*
X168404790Y-94231500D01*
X168336000Y-94217817D01*
X168267210Y-94231500D01*
X168210828Y-94231500D01*
X168113212Y-94166275D01*
X167915000Y-94126848D01*
X167482952Y-94126848D01*
X167482952Y-93694800D01*
X167443525Y-93496588D01*
X167331247Y-93328553D01*
X167163212Y-93216275D01*
X166965000Y-93176848D01*
X166415000Y-93176848D01*
X166319643Y-93195816D01*
X166008000Y-92884173D01*
X166008000Y-92783388D01*
X165869765Y-92449659D01*
X165614341Y-92194235D01*
X165280612Y-92056000D01*
X164919388Y-92056000D01*
X164585659Y-92194235D01*
X164330235Y-92449659D01*
X164192000Y-92783388D01*
X164192000Y-93144612D01*
X164330235Y-93478341D01*
X164585659Y-93733765D01*
X164919388Y-93872000D01*
X165020173Y-93872000D01*
X165374950Y-94226778D01*
X165351210Y-94231500D01*
X165351206Y-94231500D01*
X165147459Y-94272028D01*
X165042738Y-94342000D01*
X164919388Y-94342000D01*
X164585659Y-94480235D01*
X164330235Y-94735659D01*
X164192000Y-95069388D01*
X164192000Y-95430612D01*
X164330235Y-95764341D01*
X164502894Y-95937000D01*
X163315383Y-95937000D01*
X163295146Y-95941026D01*
X163234842Y-95944978D01*
X163161179Y-95964716D01*
X163085572Y-95974670D01*
X162804033Y-96070240D01*
X162750500Y-96101147D01*
X162750500Y-95073606D01*
X162821765Y-95002341D01*
X162960000Y-94668612D01*
X162960000Y-94307388D01*
X162821765Y-93973659D01*
X162566341Y-93718235D01*
X162232612Y-93580000D01*
X161871388Y-93580000D01*
X161537659Y-93718235D01*
X161282235Y-93973659D01*
X161144000Y-94307388D01*
X161144000Y-94668612D01*
X161282235Y-95002341D01*
X161353500Y-95073606D01*
X161353501Y-97388847D01*
X161353500Y-97388852D01*
X161353501Y-120073202D01*
X161353500Y-120073207D01*
X161353501Y-122350393D01*
X161282235Y-122421659D01*
X161144000Y-122755388D01*
X161144000Y-123116612D01*
X161282235Y-123450341D01*
X161537659Y-123705765D01*
X161871388Y-123844000D01*
X162232612Y-123844000D01*
X162566341Y-123705765D01*
X162821765Y-123450341D01*
X162960000Y-123116612D01*
X162960000Y-122755388D01*
X162821765Y-122421659D01*
X162750500Y-122350394D01*
X162750500Y-98884639D01*
X178059720Y-125108768D01*
X177980612Y-125076000D01*
X177879828Y-125076000D01*
X177768560Y-124964733D01*
X177729590Y-124906410D01*
X177498541Y-124752028D01*
X177294794Y-124711500D01*
X177294790Y-124711500D01*
X177226000Y-124697817D01*
X177157210Y-124711500D01*
X177085562Y-124711500D01*
X177003212Y-124656475D01*
X176805000Y-124617048D01*
X176372952Y-124617048D01*
X176372952Y-124185000D01*
X176333525Y-123986788D01*
X176221247Y-123818753D01*
X176053212Y-123706475D01*
X175855000Y-123667048D01*
X175305000Y-123667048D01*
X175218151Y-123684323D01*
X174898000Y-123364173D01*
X174898000Y-123263388D01*
X174759765Y-122929659D01*
X174504341Y-122674235D01*
X174170612Y-122536000D01*
X173809388Y-122536000D01*
X173475659Y-122674235D01*
X173220235Y-122929659D01*
X173082000Y-123263388D01*
X173082000Y-123624612D01*
X173220235Y-123958341D01*
X173475659Y-124213765D01*
X173809388Y-124352000D01*
X173910173Y-124352000D01*
X174264950Y-124706778D01*
X174241210Y-124711500D01*
X174241206Y-124711500D01*
X174037459Y-124752028D01*
X173932738Y-124822000D01*
X173809388Y-124822000D01*
X173475659Y-124960235D01*
X173220235Y-125215659D01*
X173082000Y-125549388D01*
X173082000Y-125910612D01*
X173220235Y-126244341D01*
X173392894Y-126417000D01*
X123490827Y-126417000D01*
X123674238Y-126233589D01*
X123889270Y-126018558D01*
X123947590Y-125979590D01*
X124101972Y-125748541D01*
X124142500Y-125544794D01*
X124142500Y-125544790D01*
X124156183Y-125476001D01*
X124142500Y-125407212D01*
X124142500Y-121159388D01*
X152762000Y-121159388D01*
X152762000Y-121520612D01*
X152900235Y-121854341D01*
X153155659Y-122109765D01*
X153489388Y-122248000D01*
X153850612Y-122248000D01*
X154184341Y-122109765D01*
X154439765Y-121854341D01*
X154578000Y-121520612D01*
X154578000Y-121159388D01*
X154439765Y-120825659D01*
X154184341Y-120570235D01*
X153850612Y-120432000D01*
X153489388Y-120432000D01*
X153155659Y-120570235D01*
X152900235Y-120825659D01*
X152762000Y-121159388D01*
X124142500Y-121159388D01*
X124142500Y-114631606D01*
X124213765Y-114560341D01*
X124352000Y-114226612D01*
X124352000Y-113865388D01*
X124213765Y-113531659D01*
X123958341Y-113276235D01*
X123624612Y-113138000D01*
X123263388Y-113138000D01*
X122936000Y-113273608D01*
X122608612Y-113138000D01*
X122247388Y-113138000D01*
X121913659Y-113276235D01*
X121658235Y-113531659D01*
X121520000Y-113865388D01*
X121520000Y-114226612D01*
X121658235Y-114560341D01*
X121729500Y-114631606D01*
X121729501Y-124932671D01*
X121630673Y-125031500D01*
X112049328Y-125031500D01*
X111032560Y-124014733D01*
X110993590Y-123956410D01*
X110762541Y-123802028D01*
X110558794Y-123761500D01*
X110558790Y-123761500D01*
X110490000Y-123747817D01*
X110421210Y-123761500D01*
X109267562Y-123761500D01*
X109185212Y-123706475D01*
X108987000Y-123667048D01*
X108437000Y-123667048D01*
X108238788Y-123706475D01*
X108070753Y-123818753D01*
X107958475Y-123986788D01*
X107919048Y-124185000D01*
X107919048Y-124617048D01*
X107487000Y-124617048D01*
X107288788Y-124656475D01*
X107120753Y-124768753D01*
X107008475Y-124936788D01*
X106969048Y-125135000D01*
X106969048Y-125685000D01*
X107008475Y-125883212D01*
X107063500Y-125965562D01*
X107063500Y-125997210D01*
X107049817Y-126066000D01*
X107063500Y-126134790D01*
X107063500Y-126134794D01*
X107104028Y-126338541D01*
X107156453Y-126417000D01*
X106026222Y-126417000D01*
X105904669Y-126392822D01*
X105850304Y-126356496D01*
X105813978Y-126302131D01*
X105801222Y-126238000D01*
X105821628Y-126135411D01*
X105825372Y-126127820D01*
X107657506Y-122989442D01*
X116588000Y-122989442D01*
X116588000Y-123370558D01*
X116733847Y-123722663D01*
X117003337Y-123992153D01*
X117355442Y-124138000D01*
X117736558Y-124138000D01*
X118088663Y-123992153D01*
X118358153Y-123722663D01*
X118504000Y-123370558D01*
X118504000Y-122989442D01*
X118358153Y-122637337D01*
X118088663Y-122367847D01*
X117736558Y-122222000D01*
X117355442Y-122222000D01*
X117003337Y-122367847D01*
X116733847Y-122637337D01*
X116588000Y-122989442D01*
X107657506Y-122989442D01*
X110226154Y-118589442D01*
X116588000Y-118589442D01*
X116588000Y-118970558D01*
X116733847Y-119322663D01*
X117003337Y-119592153D01*
X117355442Y-119738000D01*
X117736558Y-119738000D01*
X118088663Y-119592153D01*
X118358153Y-119322663D01*
X118504000Y-118970558D01*
X118504000Y-118589442D01*
X118358153Y-118237337D01*
X118088663Y-117967847D01*
X117736558Y-117822000D01*
X117355442Y-117822000D01*
X117003337Y-117967847D01*
X116733847Y-118237337D01*
X116588000Y-118589442D01*
X110226154Y-118589442D01*
X117178694Y-106680000D01*
X130681529Y-106680000D01*
X130787981Y-107215172D01*
X131091132Y-107668868D01*
X131511874Y-107950000D01*
X131091132Y-108231132D01*
X130787981Y-108684828D01*
X130681529Y-109220000D01*
X130787981Y-109755172D01*
X131091132Y-110208868D01*
X131544828Y-110512019D01*
X131944910Y-110591600D01*
X132215090Y-110591600D01*
X132615172Y-110512019D01*
X133068868Y-110208868D01*
X133372019Y-109755172D01*
X133478471Y-109220000D01*
X133372019Y-108684828D01*
X133068868Y-108231132D01*
X132648126Y-107950000D01*
X133068868Y-107668868D01*
X133350000Y-107248126D01*
X133631132Y-107668868D01*
X134084828Y-107972019D01*
X134484910Y-108051600D01*
X134755090Y-108051600D01*
X135155172Y-107972019D01*
X135608868Y-107668868D01*
X135912019Y-107215172D01*
X136018471Y-106680000D01*
X135939780Y-106284388D01*
X158858000Y-106284388D01*
X158858000Y-106645612D01*
X158996235Y-106979341D01*
X159067500Y-107050606D01*
X159067501Y-123366393D01*
X158996235Y-123437659D01*
X158858000Y-123771388D01*
X158858000Y-124132612D01*
X158996235Y-124466341D01*
X159251659Y-124721765D01*
X159585388Y-124860000D01*
X159946612Y-124860000D01*
X160280341Y-124721765D01*
X160535765Y-124466341D01*
X160674000Y-124132612D01*
X160674000Y-123771388D01*
X160535765Y-123437659D01*
X160464500Y-123366394D01*
X160464500Y-107050606D01*
X160535765Y-106979341D01*
X160674000Y-106645612D01*
X160674000Y-106284388D01*
X160535765Y-105950659D01*
X160280341Y-105695235D01*
X159946612Y-105557000D01*
X159585388Y-105557000D01*
X159251659Y-105695235D01*
X158996235Y-105950659D01*
X158858000Y-106284388D01*
X135939780Y-106284388D01*
X135912019Y-106144828D01*
X135608868Y-105691132D01*
X135188126Y-105410000D01*
X135608868Y-105128868D01*
X135912019Y-104675172D01*
X136018471Y-104140000D01*
X135912019Y-103604828D01*
X135608868Y-103151132D01*
X135155172Y-102847981D01*
X134755090Y-102768400D01*
X134484910Y-102768400D01*
X134084828Y-102847981D01*
X133631132Y-103151132D01*
X133461552Y-103404926D01*
X133461552Y-103276400D01*
X133422125Y-103078188D01*
X133309847Y-102910153D01*
X133141812Y-102797875D01*
X132943600Y-102758448D01*
X131216400Y-102758448D01*
X131018188Y-102797875D01*
X130850153Y-102910153D01*
X130737875Y-103078188D01*
X130698448Y-103276400D01*
X130698448Y-105003600D01*
X130737875Y-105201812D01*
X130850153Y-105369847D01*
X131018188Y-105482125D01*
X131216400Y-105521552D01*
X131344926Y-105521552D01*
X131091132Y-105691132D01*
X130787981Y-106144828D01*
X130681529Y-106680000D01*
X117178694Y-106680000D01*
X122300031Y-97907341D01*
X122306792Y-97887734D01*
X122334439Y-97831672D01*
X122354177Y-97758010D01*
X122383361Y-97687554D01*
X122441365Y-97395949D01*
X122441365Y-97168473D01*
X122383361Y-96876868D01*
X122296310Y-96666709D01*
X122296309Y-96666708D01*
X122131128Y-96419498D01*
X121970278Y-96258648D01*
X121723070Y-96093469D01*
X121723069Y-96093468D01*
X121595312Y-96040549D01*
X121512911Y-96006417D01*
X121512910Y-96006417D01*
X121334966Y-95971022D01*
X121334675Y-95970827D01*
X121164617Y-95937000D01*
X116243306Y-95937000D01*
X116410765Y-95769541D01*
X116445358Y-95686025D01*
X116631000Y-95722952D01*
X117181000Y-95722952D01*
X117379212Y-95683525D01*
X117547247Y-95571247D01*
X117659525Y-95403212D01*
X117698952Y-95205000D01*
X117698952Y-94772952D01*
X118131000Y-94772952D01*
X118329212Y-94733525D01*
X118411562Y-94678500D01*
X121524096Y-94678500D01*
X121658235Y-95002341D01*
X121913659Y-95257765D01*
X122247388Y-95396000D01*
X122608612Y-95396000D01*
X122942341Y-95257765D01*
X123197765Y-95002341D01*
X123336000Y-94668612D01*
X123336000Y-94648106D01*
X123437659Y-94749765D01*
X123771388Y-94888000D01*
X124132612Y-94888000D01*
X124466341Y-94749765D01*
X124537606Y-94678500D01*
X129471210Y-94678500D01*
X129540000Y-94692183D01*
X129608790Y-94678500D01*
X129608794Y-94678500D01*
X129812541Y-94637972D01*
X130043590Y-94483590D01*
X130082560Y-94425267D01*
X130747271Y-93760557D01*
X130805589Y-93721590D01*
X130844556Y-93663272D01*
X130844558Y-93663270D01*
X130959972Y-93490541D01*
X130976138Y-93409269D01*
X131000500Y-93286794D01*
X131000500Y-93286790D01*
X131014183Y-93218000D01*
X131000500Y-93149210D01*
X131000500Y-92237327D01*
X131099328Y-92138500D01*
X137263471Y-92138500D01*
X137450937Y-92419063D01*
X137900135Y-92719207D01*
X138296253Y-92798000D01*
X138563747Y-92798000D01*
X138959865Y-92719207D01*
X139409063Y-92419063D01*
X139709207Y-91969865D01*
X139814604Y-91440000D01*
X139709207Y-90910135D01*
X139409063Y-90460937D01*
X139120240Y-90267952D01*
X139280000Y-90267952D01*
X139478212Y-90228525D01*
X139646247Y-90116247D01*
X139758525Y-89948212D01*
X139797952Y-89750000D01*
X139797952Y-88050000D01*
X139758525Y-87851788D01*
X139646247Y-87683753D01*
X139478212Y-87571475D01*
X139280000Y-87532048D01*
X137580000Y-87532048D01*
X137381788Y-87571475D01*
X137213753Y-87683753D01*
X137101475Y-87851788D01*
X137062048Y-88050000D01*
X137062048Y-89750000D01*
X137101475Y-89948212D01*
X137213753Y-90116247D01*
X137381788Y-90228525D01*
X137580000Y-90267952D01*
X137739760Y-90267952D01*
X137450937Y-90460937D01*
X137263471Y-90741500D01*
X130878788Y-90741500D01*
X130809999Y-90727817D01*
X130741210Y-90741500D01*
X130741206Y-90741500D01*
X130537459Y-90782028D01*
X130306410Y-90936410D01*
X130267441Y-90994731D01*
X129856731Y-91405442D01*
X129798411Y-91444410D01*
X129759442Y-91502731D01*
X129644028Y-91675460D01*
X129589817Y-91948000D01*
X129603501Y-92016794D01*
X129603501Y-92251395D01*
X129546341Y-92194235D01*
X129212612Y-92056000D01*
X128851388Y-92056000D01*
X128517659Y-92194235D01*
X128446394Y-92265500D01*
X119457606Y-92265500D01*
X119386341Y-92194235D01*
X119052612Y-92056000D01*
X118691388Y-92056000D01*
X118357659Y-92194235D01*
X118102235Y-92449659D01*
X118070028Y-92527413D01*
X117934765Y-92200859D01*
X117679341Y-91945435D01*
X117345612Y-91807200D01*
X116984388Y-91807200D01*
X116748502Y-91904907D01*
X129382897Y-70991318D01*
X129392237Y-70965497D01*
X129421039Y-70907094D01*
X129440777Y-70833432D01*
X129469961Y-70762976D01*
X129527965Y-70471371D01*
X129527965Y-70243895D01*
X129469961Y-69952290D01*
X129382910Y-69742131D01*
X129382909Y-69742130D01*
X129217728Y-69494920D01*
X129056878Y-69334070D01*
X128809670Y-69168891D01*
X128809669Y-69168890D01*
X128681912Y-69115971D01*
X128599511Y-69081839D01*
X128599510Y-69081839D01*
X128307905Y-69023835D01*
X128305688Y-69023835D01*
X128251217Y-69013000D01*
X124939063Y-69013000D01*
X125091047Y-68911447D01*
X125203325Y-68743412D01*
X125242752Y-68545200D01*
X125242752Y-68113152D01*
X125674800Y-68113152D01*
X125873012Y-68073725D01*
X125955362Y-68018700D01*
X128640321Y-68018700D01*
X128770235Y-68332341D01*
X129025659Y-68587765D01*
X129359388Y-68726000D01*
X129720612Y-68726000D01*
X130054341Y-68587765D01*
X130309765Y-68332341D01*
X130448000Y-67998612D01*
X130448000Y-67637388D01*
X130309765Y-67303659D01*
X130054341Y-67048235D01*
X129919785Y-66992500D01*
X138860394Y-66992500D01*
X138931659Y-67063765D01*
X139265388Y-67202000D01*
X139626612Y-67202000D01*
X139960341Y-67063765D01*
X140215765Y-66808341D01*
X140354000Y-66474612D01*
X140354000Y-66113388D01*
X140215765Y-65779659D01*
X139960341Y-65524235D01*
X139626612Y-65386000D01*
X139265388Y-65386000D01*
X138931659Y-65524235D01*
X138860394Y-65595500D01*
X127077606Y-65595500D01*
X127006341Y-65524235D01*
X126672612Y-65386000D01*
X126311388Y-65386000D01*
X125977659Y-65524235D01*
X125722235Y-65779659D01*
X125622000Y-66021648D01*
X125622000Y-65859388D01*
X125483765Y-65525659D01*
X125228341Y-65270235D01*
X124894612Y-65132000D01*
X124533388Y-65132000D01*
X124523992Y-65135892D01*
X140220065Y-36412080D01*
X140251373Y-36414132D01*
X140310015Y-36443051D01*
X140353127Y-36492212D01*
X140386749Y-36591258D01*
X140387001Y-36595104D01*
X140387000Y-83877416D01*
X140396954Y-83927459D01*
X140472447Y-84355603D01*
X140541697Y-84545866D01*
X140541698Y-84545867D01*
X140762230Y-84927838D01*
X140762231Y-84927840D01*
X140892379Y-85082944D01*
X141230252Y-85366453D01*
X141230254Y-85366456D01*
X141405602Y-85467693D01*
X141820069Y-85618547D01*
X142019467Y-85653706D01*
X142460533Y-85653706D01*
X142659931Y-85618547D01*
X143074398Y-85467693D01*
X143249746Y-85366456D01*
X143249748Y-85366453D01*
X143587621Y-85082944D01*
X143717769Y-84927840D01*
X143717770Y-84927838D01*
X143938302Y-84545867D01*
X143938303Y-84545866D01*
X144002614Y-84369173D01*
X144007553Y-84355604D01*
X144007553Y-84355602D01*
X144083044Y-83927468D01*
X144093000Y-83877417D01*
X144093000Y-36632933D01*
X144117178Y-36511380D01*
X144153504Y-36457015D01*
X144207869Y-36420689D01*
X144259074Y-36410504D01*
X161483595Y-67931378D01*
X161483595Y-67931378D01*
G37*
X161483595Y-67931378D02*
X161470612Y-67926000D01*
X161369828Y-67926000D01*
X161258560Y-67814733D01*
X161219590Y-67756410D01*
X160988541Y-67602028D01*
X160784794Y-67561500D01*
X160784790Y-67561500D01*
X160716000Y-67547817D01*
X160647210Y-67561500D01*
X160575562Y-67561500D01*
X160493212Y-67506475D01*
X160295000Y-67467048D01*
X159862952Y-67467048D01*
X159862952Y-67035000D01*
X159823525Y-66836788D01*
X159711247Y-66668753D01*
X159543212Y-66556475D01*
X159345000Y-66517048D01*
X158795000Y-66517048D01*
X158708151Y-66534323D01*
X158022560Y-65848733D01*
X157983590Y-65790410D01*
X157752541Y-65636028D01*
X157548794Y-65595500D01*
X157548790Y-65595500D01*
X157480000Y-65581817D01*
X157411210Y-65595500D01*
X145619606Y-65595500D01*
X145548341Y-65524235D01*
X145214612Y-65386000D01*
X144853388Y-65386000D01*
X144519659Y-65524235D01*
X144264235Y-65779659D01*
X144126000Y-66113388D01*
X144126000Y-66474612D01*
X144264235Y-66808341D01*
X144519659Y-67063765D01*
X144853388Y-67202000D01*
X145214612Y-67202000D01*
X145548341Y-67063765D01*
X145619606Y-66992500D01*
X154560215Y-66992500D01*
X154425659Y-67048235D01*
X154170235Y-67303659D01*
X154032000Y-67637388D01*
X154032000Y-67998612D01*
X154170235Y-68332341D01*
X154241500Y-68403606D01*
X154241501Y-91870393D01*
X154170235Y-91941659D01*
X154032000Y-92275388D01*
X154032000Y-92636612D01*
X154170235Y-92970341D01*
X154425659Y-93225765D01*
X154759388Y-93364000D01*
X155120612Y-93364000D01*
X155454341Y-93225765D01*
X155709765Y-92970341D01*
X155848000Y-92636612D01*
X155848000Y-92275388D01*
X155709765Y-91941659D01*
X155638500Y-91870394D01*
X155638500Y-71887486D01*
X169465820Y-94775714D01*
X169424341Y-94734235D01*
X169090612Y-94596000D01*
X168989828Y-94596000D01*
X168878560Y-94484733D01*
X168839590Y-94426410D01*
X168608541Y-94272028D01*
X168404794Y-94231500D01*
X168404790Y-94231500D01*
X168336000Y-94217817D01*
X168267210Y-94231500D01*
X168210828Y-94231500D01*
X168113212Y-94166275D01*
X167915000Y-94126848D01*
X167482952Y-94126848D01*
X167482952Y-93694800D01*
X167443525Y-93496588D01*
X167331247Y-93328553D01*
X167163212Y-93216275D01*
X166965000Y-93176848D01*
X166415000Y-93176848D01*
X166319643Y-93195816D01*
X166008000Y-92884173D01*
X166008000Y-92783388D01*
X165869765Y-92449659D01*
X165614341Y-92194235D01*
X165280612Y-92056000D01*
X164919388Y-92056000D01*
X164585659Y-92194235D01*
X164330235Y-92449659D01*
X164192000Y-92783388D01*
X164192000Y-93144612D01*
X164330235Y-93478341D01*
X164585659Y-93733765D01*
X164919388Y-93872000D01*
X165020173Y-93872000D01*
X165374950Y-94226778D01*
X165351210Y-94231500D01*
X165351206Y-94231500D01*
X165147459Y-94272028D01*
X165042738Y-94342000D01*
X164919388Y-94342000D01*
X164585659Y-94480235D01*
X164330235Y-94735659D01*
X164192000Y-95069388D01*
X164192000Y-95430612D01*
X164330235Y-95764341D01*
X164502894Y-95937000D01*
X163315383Y-95937000D01*
X163295146Y-95941026D01*
X163234842Y-95944978D01*
X163161179Y-95964716D01*
X163085572Y-95974670D01*
X162804033Y-96070240D01*
X162750500Y-96101147D01*
X162750500Y-95073606D01*
X162821765Y-95002341D01*
X162960000Y-94668612D01*
X162960000Y-94307388D01*
X162821765Y-93973659D01*
X162566341Y-93718235D01*
X162232612Y-93580000D01*
X161871388Y-93580000D01*
X161537659Y-93718235D01*
X161282235Y-93973659D01*
X161144000Y-94307388D01*
X161144000Y-94668612D01*
X161282235Y-95002341D01*
X161353500Y-95073606D01*
X161353501Y-97388847D01*
X161353500Y-97388852D01*
X161353501Y-120073202D01*
X161353500Y-120073207D01*
X161353501Y-122350393D01*
X161282235Y-122421659D01*
X161144000Y-122755388D01*
X161144000Y-123116612D01*
X161282235Y-123450341D01*
X161537659Y-123705765D01*
X161871388Y-123844000D01*
X162232612Y-123844000D01*
X162566341Y-123705765D01*
X162821765Y-123450341D01*
X162960000Y-123116612D01*
X162960000Y-122755388D01*
X162821765Y-122421659D01*
X162750500Y-122350394D01*
X162750500Y-98884639D01*
X178059720Y-125108768D01*
X177980612Y-125076000D01*
X177879828Y-125076000D01*
X177768560Y-124964733D01*
X177729590Y-124906410D01*
X177498541Y-124752028D01*
X177294794Y-124711500D01*
X177294790Y-124711500D01*
X177226000Y-124697817D01*
X177157210Y-124711500D01*
X177085562Y-124711500D01*
X177003212Y-124656475D01*
X176805000Y-124617048D01*
X176372952Y-124617048D01*
X176372952Y-124185000D01*
X176333525Y-123986788D01*
X176221247Y-123818753D01*
X176053212Y-123706475D01*
X175855000Y-123667048D01*
X175305000Y-123667048D01*
X175218151Y-123684323D01*
X174898000Y-123364173D01*
X174898000Y-123263388D01*
X174759765Y-122929659D01*
X174504341Y-122674235D01*
X174170612Y-122536000D01*
X173809388Y-122536000D01*
X173475659Y-122674235D01*
X173220235Y-122929659D01*
X173082000Y-123263388D01*
X173082000Y-123624612D01*
X173220235Y-123958341D01*
X173475659Y-124213765D01*
X173809388Y-124352000D01*
X173910173Y-124352000D01*
X174264950Y-124706778D01*
X174241210Y-124711500D01*
X174241206Y-124711500D01*
X174037459Y-124752028D01*
X173932738Y-124822000D01*
X173809388Y-124822000D01*
X173475659Y-124960235D01*
X173220235Y-125215659D01*
X173082000Y-125549388D01*
X173082000Y-125910612D01*
X173220235Y-126244341D01*
X173392894Y-126417000D01*
X123490827Y-126417000D01*
X123674238Y-126233589D01*
X123889270Y-126018558D01*
X123947590Y-125979590D01*
X124101972Y-125748541D01*
X124142500Y-125544794D01*
X124142500Y-125544790D01*
X124156183Y-125476001D01*
X124142500Y-125407212D01*
X124142500Y-121159388D01*
X152762000Y-121159388D01*
X152762000Y-121520612D01*
X152900235Y-121854341D01*
X153155659Y-122109765D01*
X153489388Y-122248000D01*
X153850612Y-122248000D01*
X154184341Y-122109765D01*
X154439765Y-121854341D01*
X154578000Y-121520612D01*
X154578000Y-121159388D01*
X154439765Y-120825659D01*
X154184341Y-120570235D01*
X153850612Y-120432000D01*
X153489388Y-120432000D01*
X153155659Y-120570235D01*
X152900235Y-120825659D01*
X152762000Y-121159388D01*
X124142500Y-121159388D01*
X124142500Y-114631606D01*
X124213765Y-114560341D01*
X124352000Y-114226612D01*
X124352000Y-113865388D01*
X124213765Y-113531659D01*
X123958341Y-113276235D01*
X123624612Y-113138000D01*
X123263388Y-113138000D01*
X122936000Y-113273608D01*
X122608612Y-113138000D01*
X122247388Y-113138000D01*
X121913659Y-113276235D01*
X121658235Y-113531659D01*
X121520000Y-113865388D01*
X121520000Y-114226612D01*
X121658235Y-114560341D01*
X121729500Y-114631606D01*
X121729501Y-124932671D01*
X121630673Y-125031500D01*
X112049328Y-125031500D01*
X111032560Y-124014733D01*
X110993590Y-123956410D01*
X110762541Y-123802028D01*
X110558794Y-123761500D01*
X110558790Y-123761500D01*
X110490000Y-123747817D01*
X110421210Y-123761500D01*
X109267562Y-123761500D01*
X109185212Y-123706475D01*
X108987000Y-123667048D01*
X108437000Y-123667048D01*
X108238788Y-123706475D01*
X108070753Y-123818753D01*
X107958475Y-123986788D01*
X107919048Y-124185000D01*
X107919048Y-124617048D01*
X107487000Y-124617048D01*
X107288788Y-124656475D01*
X107120753Y-124768753D01*
X107008475Y-124936788D01*
X106969048Y-125135000D01*
X106969048Y-125685000D01*
X107008475Y-125883212D01*
X107063500Y-125965562D01*
X107063500Y-125997210D01*
X107049817Y-126066000D01*
X107063500Y-126134790D01*
X107063500Y-126134794D01*
X107104028Y-126338541D01*
X107156453Y-126417000D01*
X106026222Y-126417000D01*
X105904669Y-126392822D01*
X105850304Y-126356496D01*
X105813978Y-126302131D01*
X105801222Y-126238000D01*
X105821628Y-126135411D01*
X105825372Y-126127820D01*
X107657506Y-122989442D01*
X116588000Y-122989442D01*
X116588000Y-123370558D01*
X116733847Y-123722663D01*
X117003337Y-123992153D01*
X117355442Y-124138000D01*
X117736558Y-124138000D01*
X118088663Y-123992153D01*
X118358153Y-123722663D01*
X118504000Y-123370558D01*
X118504000Y-122989442D01*
X118358153Y-122637337D01*
X118088663Y-122367847D01*
X117736558Y-122222000D01*
X117355442Y-122222000D01*
X117003337Y-122367847D01*
X116733847Y-122637337D01*
X116588000Y-122989442D01*
X107657506Y-122989442D01*
X110226154Y-118589442D01*
X116588000Y-118589442D01*
X116588000Y-118970558D01*
X116733847Y-119322663D01*
X117003337Y-119592153D01*
X117355442Y-119738000D01*
X117736558Y-119738000D01*
X118088663Y-119592153D01*
X118358153Y-119322663D01*
X118504000Y-118970558D01*
X118504000Y-118589442D01*
X118358153Y-118237337D01*
X118088663Y-117967847D01*
X117736558Y-117822000D01*
X117355442Y-117822000D01*
X117003337Y-117967847D01*
X116733847Y-118237337D01*
X116588000Y-118589442D01*
X110226154Y-118589442D01*
X117178694Y-106680000D01*
X130681529Y-106680000D01*
X130787981Y-107215172D01*
X131091132Y-107668868D01*
X131511874Y-107950000D01*
X131091132Y-108231132D01*
X130787981Y-108684828D01*
X130681529Y-109220000D01*
X130787981Y-109755172D01*
X131091132Y-110208868D01*
X131544828Y-110512019D01*
X131944910Y-110591600D01*
X132215090Y-110591600D01*
X132615172Y-110512019D01*
X133068868Y-110208868D01*
X133372019Y-109755172D01*
X133478471Y-109220000D01*
X133372019Y-108684828D01*
X133068868Y-108231132D01*
X132648126Y-107950000D01*
X133068868Y-107668868D01*
X133350000Y-107248126D01*
X133631132Y-107668868D01*
X134084828Y-107972019D01*
X134484910Y-108051600D01*
X134755090Y-108051600D01*
X135155172Y-107972019D01*
X135608868Y-107668868D01*
X135912019Y-107215172D01*
X136018471Y-106680000D01*
X135939780Y-106284388D01*
X158858000Y-106284388D01*
X158858000Y-106645612D01*
X158996235Y-106979341D01*
X159067500Y-107050606D01*
X159067501Y-123366393D01*
X158996235Y-123437659D01*
X158858000Y-123771388D01*
X158858000Y-124132612D01*
X158996235Y-124466341D01*
X159251659Y-124721765D01*
X159585388Y-124860000D01*
X159946612Y-124860000D01*
X160280341Y-124721765D01*
X160535765Y-124466341D01*
X160674000Y-124132612D01*
X160674000Y-123771388D01*
X160535765Y-123437659D01*
X160464500Y-123366394D01*
X160464500Y-107050606D01*
X160535765Y-106979341D01*
X160674000Y-106645612D01*
X160674000Y-106284388D01*
X160535765Y-105950659D01*
X160280341Y-105695235D01*
X159946612Y-105557000D01*
X159585388Y-105557000D01*
X159251659Y-105695235D01*
X158996235Y-105950659D01*
X158858000Y-106284388D01*
X135939780Y-106284388D01*
X135912019Y-106144828D01*
X135608868Y-105691132D01*
X135188126Y-105410000D01*
X135608868Y-105128868D01*
X135912019Y-104675172D01*
X136018471Y-104140000D01*
X135912019Y-103604828D01*
X135608868Y-103151132D01*
X135155172Y-102847981D01*
X134755090Y-102768400D01*
X134484910Y-102768400D01*
X134084828Y-102847981D01*
X133631132Y-103151132D01*
X133461552Y-103404926D01*
X133461552Y-103276400D01*
X133422125Y-103078188D01*
X133309847Y-102910153D01*
X133141812Y-102797875D01*
X132943600Y-102758448D01*
X131216400Y-102758448D01*
X131018188Y-102797875D01*
X130850153Y-102910153D01*
X130737875Y-103078188D01*
X130698448Y-103276400D01*
X130698448Y-105003600D01*
X130737875Y-105201812D01*
X130850153Y-105369847D01*
X131018188Y-105482125D01*
X131216400Y-105521552D01*
X131344926Y-105521552D01*
X131091132Y-105691132D01*
X130787981Y-106144828D01*
X130681529Y-106680000D01*
X117178694Y-106680000D01*
X122300031Y-97907341D01*
X122306792Y-97887734D01*
X122334439Y-97831672D01*
X122354177Y-97758010D01*
X122383361Y-97687554D01*
X122441365Y-97395949D01*
X122441365Y-97168473D01*
X122383361Y-96876868D01*
X122296310Y-96666709D01*
X122296309Y-96666708D01*
X122131128Y-96419498D01*
X121970278Y-96258648D01*
X121723070Y-96093469D01*
X121723069Y-96093468D01*
X121595312Y-96040549D01*
X121512911Y-96006417D01*
X121512910Y-96006417D01*
X121334966Y-95971022D01*
X121334675Y-95970827D01*
X121164617Y-95937000D01*
X116243306Y-95937000D01*
X116410765Y-95769541D01*
X116445358Y-95686025D01*
X116631000Y-95722952D01*
X117181000Y-95722952D01*
X117379212Y-95683525D01*
X117547247Y-95571247D01*
X117659525Y-95403212D01*
X117698952Y-95205000D01*
X117698952Y-94772952D01*
X118131000Y-94772952D01*
X118329212Y-94733525D01*
X118411562Y-94678500D01*
X121524096Y-94678500D01*
X121658235Y-95002341D01*
X121913659Y-95257765D01*
X122247388Y-95396000D01*
X122608612Y-95396000D01*
X122942341Y-95257765D01*
X123197765Y-95002341D01*
X123336000Y-94668612D01*
X123336000Y-94648106D01*
X123437659Y-94749765D01*
X123771388Y-94888000D01*
X124132612Y-94888000D01*
X124466341Y-94749765D01*
X124537606Y-94678500D01*
X129471210Y-94678500D01*
X129540000Y-94692183D01*
X129608790Y-94678500D01*
X129608794Y-94678500D01*
X129812541Y-94637972D01*
X130043590Y-94483590D01*
X130082560Y-94425267D01*
X130747271Y-93760557D01*
X130805589Y-93721590D01*
X130844556Y-93663272D01*
X130844558Y-93663270D01*
X130959972Y-93490541D01*
X130976138Y-93409269D01*
X131000500Y-93286794D01*
X131000500Y-93286790D01*
X131014183Y-93218000D01*
X131000500Y-93149210D01*
X131000500Y-92237327D01*
X131099328Y-92138500D01*
X137263471Y-92138500D01*
X137450937Y-92419063D01*
X137900135Y-92719207D01*
X138296253Y-92798000D01*
X138563747Y-92798000D01*
X138959865Y-92719207D01*
X139409063Y-92419063D01*
X139709207Y-91969865D01*
X139814604Y-91440000D01*
X139709207Y-90910135D01*
X139409063Y-90460937D01*
X139120240Y-90267952D01*
X139280000Y-90267952D01*
X139478212Y-90228525D01*
X139646247Y-90116247D01*
X139758525Y-89948212D01*
X139797952Y-89750000D01*
X139797952Y-88050000D01*
X139758525Y-87851788D01*
X139646247Y-87683753D01*
X139478212Y-87571475D01*
X139280000Y-87532048D01*
X137580000Y-87532048D01*
X137381788Y-87571475D01*
X137213753Y-87683753D01*
X137101475Y-87851788D01*
X137062048Y-88050000D01*
X137062048Y-89750000D01*
X137101475Y-89948212D01*
X137213753Y-90116247D01*
X137381788Y-90228525D01*
X137580000Y-90267952D01*
X137739760Y-90267952D01*
X137450937Y-90460937D01*
X137263471Y-90741500D01*
X130878788Y-90741500D01*
X130809999Y-90727817D01*
X130741210Y-90741500D01*
X130741206Y-90741500D01*
X130537459Y-90782028D01*
X130306410Y-90936410D01*
X130267441Y-90994731D01*
X129856731Y-91405442D01*
X129798411Y-91444410D01*
X129759442Y-91502731D01*
X129644028Y-91675460D01*
X129589817Y-91948000D01*
X129603501Y-92016794D01*
X129603501Y-92251395D01*
X129546341Y-92194235D01*
X129212612Y-92056000D01*
X128851388Y-92056000D01*
X128517659Y-92194235D01*
X128446394Y-92265500D01*
X119457606Y-92265500D01*
X119386341Y-92194235D01*
X119052612Y-92056000D01*
X118691388Y-92056000D01*
X118357659Y-92194235D01*
X118102235Y-92449659D01*
X118070028Y-92527413D01*
X117934765Y-92200859D01*
X117679341Y-91945435D01*
X117345612Y-91807200D01*
X116984388Y-91807200D01*
X116748502Y-91904907D01*
X129382897Y-70991318D01*
X129392237Y-70965497D01*
X129421039Y-70907094D01*
X129440777Y-70833432D01*
X129469961Y-70762976D01*
X129527965Y-70471371D01*
X129527965Y-70243895D01*
X129469961Y-69952290D01*
X129382910Y-69742131D01*
X129382909Y-69742130D01*
X129217728Y-69494920D01*
X129056878Y-69334070D01*
X128809670Y-69168891D01*
X128809669Y-69168890D01*
X128681912Y-69115971D01*
X128599511Y-69081839D01*
X128599510Y-69081839D01*
X128307905Y-69023835D01*
X128305688Y-69023835D01*
X128251217Y-69013000D01*
X124939063Y-69013000D01*
X125091047Y-68911447D01*
X125203325Y-68743412D01*
X125242752Y-68545200D01*
X125242752Y-68113152D01*
X125674800Y-68113152D01*
X125873012Y-68073725D01*
X125955362Y-68018700D01*
X128640321Y-68018700D01*
X128770235Y-68332341D01*
X129025659Y-68587765D01*
X129359388Y-68726000D01*
X129720612Y-68726000D01*
X130054341Y-68587765D01*
X130309765Y-68332341D01*
X130448000Y-67998612D01*
X130448000Y-67637388D01*
X130309765Y-67303659D01*
X130054341Y-67048235D01*
X129919785Y-66992500D01*
X138860394Y-66992500D01*
X138931659Y-67063765D01*
X139265388Y-67202000D01*
X139626612Y-67202000D01*
X139960341Y-67063765D01*
X140215765Y-66808341D01*
X140354000Y-66474612D01*
X140354000Y-66113388D01*
X140215765Y-65779659D01*
X139960341Y-65524235D01*
X139626612Y-65386000D01*
X139265388Y-65386000D01*
X138931659Y-65524235D01*
X138860394Y-65595500D01*
X127077606Y-65595500D01*
X127006341Y-65524235D01*
X126672612Y-65386000D01*
X126311388Y-65386000D01*
X125977659Y-65524235D01*
X125722235Y-65779659D01*
X125622000Y-66021648D01*
X125622000Y-65859388D01*
X125483765Y-65525659D01*
X125228341Y-65270235D01*
X124894612Y-65132000D01*
X124533388Y-65132000D01*
X124523992Y-65135892D01*
X140220065Y-36412080D01*
X140251373Y-36414132D01*
X140310015Y-36443051D01*
X140353127Y-36492212D01*
X140386749Y-36591258D01*
X140387001Y-36595104D01*
X140387000Y-83877416D01*
X140396954Y-83927459D01*
X140472447Y-84355603D01*
X140541697Y-84545866D01*
X140541698Y-84545867D01*
X140762230Y-84927838D01*
X140762231Y-84927840D01*
X140892379Y-85082944D01*
X141230252Y-85366453D01*
X141230254Y-85366456D01*
X141405602Y-85467693D01*
X141820069Y-85618547D01*
X142019467Y-85653706D01*
X142460533Y-85653706D01*
X142659931Y-85618547D01*
X143074398Y-85467693D01*
X143249746Y-85366456D01*
X143249748Y-85366453D01*
X143587621Y-85082944D01*
X143717769Y-84927840D01*
X143717770Y-84927838D01*
X143938302Y-84545867D01*
X143938303Y-84545866D01*
X144002614Y-84369173D01*
X144007553Y-84355604D01*
X144007553Y-84355602D01*
X144083044Y-83927468D01*
X144093000Y-83877417D01*
X144093000Y-36632933D01*
X144117178Y-36511380D01*
X144153504Y-36457015D01*
X144207869Y-36420689D01*
X144259074Y-36410504D01*
X161483595Y-67931378D01*
G04 #@! TD*
M02*
